<svg id="Layer_1" data-name="Layer 1" xmlns="http://www.w3.org/2000/svg" viewBox="0 0 14 20"><title>accessible</title><g id="EUXICONS"><g id="accessiblity"><path id="Combined-Shape" d="M12,6a2,2,0,1,0-2-2A2,2,0,0,0,12,6Zm7,7V11a6,6,0,0,1-4.1-1.8L13.6,7.8a2.09,2.09,0,0,0-.6-.4h0A1.92,1.92,0,0,0,11.8,7,2.06,2.06,0,0,0,10,9.1V15a2,2,0,0,0,2,2h5v5h2V16.5a2,2,0,0,0-2-2H14V11.1A8.78,8.78,0,0,0,19,13Zm-6.2,5A2.91,2.91,0,0,1,10,20a3,3,0,0,1-3-3,2.91,2.91,0,0,1,2-2.8V12.1A5,5,0,0,0,5,17a5,5,0,0,0,5,5,5.13,5.13,0,0,0,4.9-4Z" transform="translate(-5 -2)"/></g></g></svg>