<svg id="Layer_3" data-name="Layer 3" xmlns="http://www.w3.org/2000/svg" viewBox="0 0 20 20"><title>ad-tag</title><polygon points="9.32 12.09 7.4 11.14 7.39 11.16 8.31 13.1 9.32 12.09"/><path d="M15.29,9.36a3.29,3.29,0,0,0-.59-.48,1.51,1.51,0,0,0-.6-.22,1.18,1.18,0,0,0-.61.09,2,2,0,0,0-.62.44l-.61.61,2.46,2.46.77-.77a1.57,1.57,0,0,0,.3-.42,1.13,1.13,0,0,0,.11-.51,1.41,1.41,0,0,0-.14-.58A2.27,2.27,0,0,0,15.29,9.36Z" transform="translate(-2 -2)"/><path d="M21.4,11.6l-9-9A2,2,0,0,0,11,2H4A2,2,0,0,0,2,4v7a2,2,0,0,0,.6,1.4l9,9a1.93,1.93,0,0,0,2.8,0l7-7a1.93,1.93,0,0,0,0-2.8ZM5.5,7A1.54,1.54,0,0,1,4,5.5,1.54,1.54,0,0,1,5.5,4,1.54,1.54,0,0,1,7,5.5,1.54,1.54,0,0,1,5.5,7Zm7.85,8.07-1.16-.57L10.73,16l.56,1.18-.86.86L8,12.62l.88-.88,5.36,2.44Zm3.54-3.84a2.64,2.64,0,0,1-.63.93l-1.68,1.68-3.9-3.9,1.68-1.68a2.85,2.85,0,0,1,.82-.58,2.16,2.16,0,0,1,.92-.2,2.38,2.38,0,0,1,1,.23,3.47,3.47,0,0,1,1,.71,3.9,3.9,0,0,1,.68.9,2.45,2.45,0,0,1,.29,1A2.18,2.18,0,0,1,16.89,11.23Z" transform="translate(-2 -2)"/></svg>