<svg id="Layer_3" data-name="Layer 3" xmlns="http://www.w3.org/2000/svg" viewBox="0 0 20 20"><title>appliance-ordering</title><path d="M12,2A10,10,0,1,0,22,12,10,10,0,0,0,12,2Zm.1,18h0A8,8,0,1,1,20,12,7.94,7.94,0,0,1,12.1,20Z" transform="translate(-2 -2)"/><path d="M13.5,11.5l-3.1,3.1a2.19,2.19,0,0,0,3.2-3Z" transform="translate(-2 -2)"/><path d="M15.3,6.6H8.7a1,1,0,0,0-1.1,1h0v8.8a1.11,1.11,0,0,0,1.1,1.1h6.6a1.11,1.11,0,0,0,1.1-1.1h0V7.6A1,1,0,0,0,15.3,6.6Zm-4.4,1a.5.5,0,1,1-.5.5A.47.47,0,0,1,10.9,7.6Zm-1.6,0a.47.47,0,0,1,.5.5.55.55,0,0,1-1.1.1A.65.65,0,0,1,9.3,7.6ZM12,16.4a3.3,3.3,0,1,1,3.3-3.3A3.33,3.33,0,0,1,12,16.4Z" transform="translate(-2 -2)"/></svg>