<svg id="Layer_4" data-name="Layer 4" xmlns="http://www.w3.org/2000/svg" viewBox="0 0 16 20"><title>appliance-blender</title><g id="EUXICONS"><g id="home_accessories" data-name="home accessories"><path id="Combined-Shape" d="M4,2H17.1V3.8H4Zm6.5,18.6a1.1,1.1,0,1,1,1.1-1.1,1,1,0,0,1-1.1,1.1h0M14.2,17H6.7A1.67,1.67,0,0,0,5,18.6V22H15.8V18.6A1.58,1.58,0,0,0,14.2,17m4-5.8H16.3l.4-2.8h1.6v2.8ZM17,5.2H15.2l-1.1,8.6H6.9L6.1,7,5.8,5.2H4L5.3,15.6H15.7l.4-2.6H20V6.6H16.9Z" transform="translate(-4 -2)"/></g></g></svg>