<svg id="Layer_3" data-name="Layer 3" xmlns="http://www.w3.org/2000/svg" viewBox="0 0 20 20"><title>appliance-ordering-filled</title><path d="M9.3,8.7a.56.56,0,0,0,.5-.6.47.47,0,0,0-.5-.5.65.65,0,0,0-.6.6A.56.56,0,0,0,9.3,8.7Z" transform="translate(-2 -2)"/><path d="M12,9.8a3.3,3.3,0,1,0,3.3,3.3A3.33,3.33,0,0,0,12,9.8Zm1.5,4.9a2.12,2.12,0,0,1-3.1-.1l3.1-3.1.1.1A2.12,2.12,0,0,1,13.5,14.7Z" transform="translate(-2 -2)"/><path d="M10.9,8.6a.5.5,0,1,0-.5-.5A.47.47,0,0,0,10.9,8.6Z" transform="translate(-2 -2)"/><path d="M12,2A10,10,0,1,0,22,12,10,10,0,0,0,12,2Zm4.4,14.4a1.11,1.11,0,0,1-1.1,1.1H8.7a1.11,1.11,0,0,1-1.1-1.1V7.6a1,1,0,0,1,1.1-1h6.6a1,1,0,0,1,1.1,1Z" transform="translate(-2 -2)"/></svg>