<svg id="Layer_1" data-name="Layer 1" xmlns="http://www.w3.org/2000/svg" viewBox="0 0 18 20.1"><title>appliance-grill</title><g id="EUXICONS"><g id="grill"><path id="Combined-Shape" d="M19.4,18.65a1.61,1.61,0,0,0-1.6,1.7,1.67,1.67,0,0,0,1.6,1.7,1.7,1.7,0,0,0,0-3.4ZM8.7,1.95h6.6v1.4H8.7ZM12,4.75c-4.6,0-8.4,2.3-9,5.4H21C20.4,7,16.6,4.75,12,4.75Zm0,12.2c4.6,0,8.4-2.3,9-5.4H3c.6,3.1,4.4,5.4,9,5.4Zm5.3-.1a14.58,14.58,0,0,1-1.9.7l.7.7H7.9l.7-.7a10.66,10.66,0,0,1-1.9-.7L3,20.65v1.3H4.3l2.2-2.3H16.6a3.22,3.22,0,0,1,1.5-2.1Z" transform="translate(-3 -1.95)"/></g></g></svg>