<svg id="Layer_3" data-name="Layer 3" xmlns="http://www.w3.org/2000/svg" viewBox="0 0 20 20"><title>my-apron-outlined</title><path d="M12,2A10,10,0,1,0,22,12,10,10,0,0,0,12,2Zm.1,18A8,8,0,1,1,20,12,7.94,7.94,0,0,1,12.1,20Z" transform="translate(-2 -2)"/><path d="M17.3,12.83c0-.79-.2-1.59-1.2-1.79-.1,0-.1,0-.2-.1a2.05,2.05,0,0,1-1.1-.89,6.74,6.74,0,0,1-.4-1.29l-.5-2.18A2,2,0,0,0,12,5a2,2,0,0,0-1.9,1.59L9.8,7.78l-.2.89A6.74,6.74,0,0,1,9.2,10a1.92,1.92,0,0,1-1.1,1c-.1,0-.1,0-.2.1a1.59,1.59,0,0,0-1.2,1.69v.1a.62.62,0,0,1-.7.69v1.09a1.67,1.67,0,0,0,1.7-1.69v-.3c0-.2.1-.5.8-.5V17h7.1l-.1-4.86c.7.1.8.4.8.5v.3A1.66,1.66,0,0,0,18,14.62V13.53A.61.61,0,0,1,17.3,12.83ZM10.6,9.07,10.9,7a1.06,1.06,0,0,1,1-.89A1.27,1.27,0,0,1,13,7l.3,2.18H10.6Z" transform="translate(-2 -2)"/></svg>