<svg id="Layer_4" data-name="Layer 4" xmlns="http://www.w3.org/2000/svg" viewBox="0 0 20.1 20"><title>apron</title><g id="EUXICONS"><g id="apron"><path id="Shape" d="M21,15.1h0c0-1.4-.4-2.6-2-2.9h0c-.1,0-.2-.1-.3-.1a2.69,2.69,0,0,1-1.8-1.4,7.09,7.09,0,0,1-.8-2.1l-.8-3.7V4.6h0A3.31,3.31,0,0,0,12.05,2a3.51,3.51,0,0,0-3.3,2.6h0v.2l-.4,1.8h0v.1l-.3,1.5a17.69,17.69,0,0,1-.8,2.2,2.87,2.87,0,0,1-1.9,1.7c-.1,0-.2.1-.3.1h0a2.6,2.6,0,0,0-2,2.9v.1c0,1-.8,1.1-1.1,1.2V18a2.93,2.93,0,0,0,2.9-2.9v-.2h0v-.1c0-.2.2-.8,1.4-.9L6.15,22h11.9l-.2-8.1c1.1.1,1.3.6,1.3.9v.1h0v.2A2.82,2.82,0,0,0,22,18V16.2A1,1,0,0,1,21,15.1ZM9.85,8.8l.5-3.6h0a1.72,1.72,0,0,1,1.7-1.4,1.65,1.65,0,0,1,1.7,1.4h0l.5,3.6Z" transform="translate(-1.95 -2)"/></g></g></svg>