<svg id="Layer_3" data-name="Layer 3" xmlns="http://www.w3.org/2000/svg" viewBox="0 0 20 20"><title>my-apron-filled</title><path d="M11.88,5.27a1.24,1.24,0,0,0-1.17,1l-.35,2.43v.12h3.15l-.35-2.55A1.48,1.48,0,0,0,11.88,5.27Z" transform="translate(-2 -2)"/><path d="M12,2A10,10,0,1,0,22,12,10,10,0,0,0,12,2Zm7,13.22a1.93,1.93,0,0,1-2-2v-.35c0-.12-.12-.46-.93-.58L16.2,18H7.92V12.33c-.82,0-.93.35-.93.58v.35a2,2,0,0,1-2,2V14a.73.73,0,0,0,.82-.81V13a1.85,1.85,0,0,1,1.4-2c.12-.12.12-.12.23-.12A2.24,2.24,0,0,0,8.73,9.79a7.86,7.86,0,0,0,.47-1.5l.23-1,.35-1.39A2.35,2.35,0,0,1,12,4a2.35,2.35,0,0,1,2.22,1.85L14.8,8.4a7.86,7.86,0,0,0,.47,1.5,2.4,2.4,0,0,0,1.28,1c.12.12.12.12.23.12,1.17.23,1.4,1.16,1.4,2.08A.71.71,0,0,0,19,14Z" transform="translate(-2 -2)"/></svg>