<?xml version="1.0" encoding="utf-8"?>
<!-- Generator: Adobe Illustrator 20.1.0, SVG Export Plug-In . SVG Version: 6.00 Build 0)  -->
<svg version="1.1" id="Layer_1" xmlns="http://www.w3.org/2000/svg" xmlns:xlink="http://www.w3.org/1999/xlink" x="0px" y="0px"
	 viewBox="0 0 24 24" style="enable-background:new 0 0 24 24;" xml:space="preserve">
<style type="text/css">
	.st0{fill:none;}
</style>
<title>attach_file</title>
<desc>Created with Sketch.</desc>
<g id="EUXICONS">
	<g id="attach_file">
		<path id="Shape" d="M15.6,6.6V17c0,2-1.6,3.6-3.6,3.6S8.4,19,8.4,17V5.6c0-1.2,1-2.2,2.3-2.2s2.2,1,2.2,2.2v9.6
			c0,0.5-0.4,0.9-0.9,0.9c-0.5,0-0.9-0.4-0.9-0.9V6.6H9.6v8.6c0,1.2,1,2.2,2.2,2.2s2.2-1,2.2-2.2V5.6c0.1-2-1.5-3.6-3.5-3.6
			S7,3.6,7,5.6V17c0,2.8,2.2,5,5,5s5-2.2,5-5V6.6H15.6L15.6,6.6z"/>
	</g>
</g>
<rect x="0" class="st0" width="24" height="24"/>
</svg>
