<svg id="Layer_4" data-name="Layer 4" xmlns="http://www.w3.org/2000/svg" viewBox="0 0 19.8 9.99"><title>bat</title><g id="EUXICONS"><g id="holiday_bat" data-name="holiday bat"><path id="Shape" d="M18.7,7.1A6.81,6.81,0,0,0,13.5,11L12.1,9.1l-1.3,2a6.92,6.92,0,0,0-5.3-4,5.12,5.12,0,0,0-3.4.5c2.2.3,2.8,1.7,2.4,3a2.47,2.47,0,0,1,2.9,3.2,3.45,3.45,0,0,1,1.7-.2c1.5.2,2.5,1.7,2.9,3.4.4-1.8,1.4-3.2,2.9-3.4a3.21,3.21,0,0,1,1.7.2,2.47,2.47,0,0,1,2.9-3.2c-.4-1.4.2-2.7,2.4-3A4.41,4.41,0,0,0,18.7,7.1Z" transform="translate(-2.1 -7)"/></g></g></svg>