<svg id="Layer_4" data-name="Layer 4" xmlns="http://www.w3.org/2000/svg" viewBox="0 0 10.01 20"><title>battery-unknown</title><g id="EUXICONS"><g id="battery_unknown" data-name="battery unknown"><path id="Shape" d="M15.7,4H14V2H10V4H8.3A1.32,1.32,0,0,0,7,5.3V20.6A1.35,1.35,0,0,0,8.3,22h7.4A1.26,1.26,0,0,0,17,20.7V5.3A1.26,1.26,0,0,0,15.7,4ZM13,17.9H11.1V16H13v1.9Zm1.4-5.2-.7.7a2.45,2.45,0,0,0-.8,1.6H11.3a2.88,2.88,0,0,1,.9-2l.9-.9a1.25,1.25,0,0,0,.4-1.1,1.5,1.5,0,0,0-3,0H9a3,3,0,0,1,6,0,2.52,2.52,0,0,1-.6,1.7Z" transform="translate(-7 -2)"/></g></g></svg>