<svg id="Layer_1" data-name="Layer 1" xmlns="http://www.w3.org/2000/svg" viewBox="0 0 20 20.01"><title>benefits</title><path d="M22,11.51a1.2,1.2,0,0,0-1.1-1.2h0a1.42,1.42,0,0,0-.6.2h0l-4.8,2.7h-3c-.3,0-.5-.2-.7-.5a.9.9,0,0,1-.1-.5,1,1,0,0,1,.7-.9h2.8a1.28,1.28,0,0,0,1.2-1.1v-.1a1.42,1.42,0,0,0-.2-.6A1.61,1.61,0,0,0,15.1,9H7.9a1.22,1.22,0,0,0-.9.4H7l-3.2,3L2,14.11V22l1.8-1.5,5-4.3h0a2,2,0,0,1,1.4-.6H16l5.4-3h0A1.15,1.15,0,0,0,22,11.51Z" transform="translate(-2 -2)"/><path d="M11.38,6.75A1,1,0,0,1,11,5.88V5.7h1.2v.23a1.67,1.67,0,0,0,0,.46c0,.06.08.09.18.09a.24.24,0,0,0,.18-.06.26.26,0,0,0,.06-.19,1.26,1.26,0,0,0-.06-.45.78.78,0,0,0-.39-.29q-.55-.27-.75-.39a1.11,1.11,0,0,1-.34-.35A.94.94,0,0,1,11,4.24a.78.78,0,0,1,.3-.65,1.74,1.74,0,0,1,.91-.29V3h.55v.3a1.5,1.5,0,0,1,.83.29.8.8,0,0,1,.28.64s0,.1,0,.17h-1.2V4.25a.79.79,0,0,0,0-.32.18.18,0,0,0-.18-.08.2.2,0,0,0-.16.07.3.3,0,0,0-.05.2.36.36,0,0,0,.11.3,4.6,4.6,0,0,0,.65.34,5.09,5.09,0,0,1,.62.33.91.91,0,0,1,.28.32,1.06,1.06,0,0,1,.11.52,1,1,0,0,1-.31.78A1.46,1.46,0,0,1,13,7h5a5.27,5.27,0,0,0-5.5-5A5.27,5.27,0,0,0,7,7h5A1.62,1.62,0,0,1,11.38,6.75Z" transform="translate(-2 -2)"/></svg>