<svg id="Layer_4" data-name="Layer 4" xmlns="http://www.w3.org/2000/svg" viewBox="0 0 20 20"><title>bitcoin</title><path d="M11.49,12.3l-.59,2.38c.73.18,3,.91,3.32-.43S12.22,12.48,11.49,12.3Z" transform="translate(-2 -2)"/><path d="M12.29,9.05l-.54,2.16c.61.15,2.49.77,2.79-.45S12.9,9.2,12.29,9.05Z" transform="translate(-2 -2)"/><path d="M12,2A10,10,0,1,0,22,12,10,10,0,0,0,12,2Zm4.68,8.78a1.72,1.72,0,0,1-1.38,1.59,1.89,1.89,0,0,1,1,2.62c-.58,1.67-2,1.81-3.81,1.46L12,18.23,11,18l.44-1.77L10.54,16l-.44,1.78L9,17.48l.45-1.79-.77-.2-1.41-.35.54-1.24s.8.21.79.2a.39.39,0,0,0,.49-.26L9.81,11l.11,0-.11,0,.5-2a.57.57,0,0,0-.5-.63S9,8.16,9,8.16L9.32,7l1.49.37h0l.69.16.44-1.77L13,6l-.43,1.74.87.2.43-1.73L15,6.52l-.44,1.77C15.88,8.76,16.88,9.47,16.68,10.78Z" transform="translate(-2 -2)"/></svg>