<svg id="Layer_4" data-name="Layer 4" xmlns="http://www.w3.org/2000/svg" viewBox="0 0 18 20"><title>bluetooth-search</title><g id="EUXICONS"><g id="bluetooth_search" data-name="bluetooth search"><path id="Shape" d="M14.2,12l2.3,2.3a5.87,5.87,0,0,0,.4-2.3,5.87,5.87,0,0,0-.4-2.3Zm5.3-5.3L18.3,8a9.46,9.46,0,0,1,1,4,7.92,7.92,0,0,1-1,4l1.2,1.2a9.94,9.94,0,0,0,0-10.5Zm-3.8,1L10,2H9V9.6L4.4,5,3,6.4,8.6,12,3,17.6,4.4,19,9,14.4V22h1l5.7-5.7L11.4,12l4.3-4.3ZM11,5.8l1.9,1.9L11,9.6Zm1.9,10.5L11,18.2V14.4Z" transform="translate(-3 -2)"/></g></g></svg>