<svg id="Layer_3" data-name="Layer 3" xmlns="http://www.w3.org/2000/svg" viewBox="0 0 16 20"><title>bopis</title><path d="M4,15.6v3.72c1.5,1.25,2.63-.16,2.63-1.43A2.54,2.54,0,0,0,4,15.6Z" transform="translate(-4 -2)"/><path d="M17.37,17.9c0,1.27,1.13,2.68,2.63,1.43V15.6A2.54,2.54,0,0,0,17.37,17.9Z" transform="translate(-4 -2)"/><path d="M12.75,20.27V16.6l3.76-1.55L16.35,17l.09-.09a4.35,4.35,0,0,1,1.47-2V13.6L12,11.39,6.1,13.6v1.3a4.35,4.35,0,0,1,1.47,2l.09.09-.16-1.95,3.76,1.55v3.67L7.7,18.84A4.31,4.31,0,0,1,7.3,20L12,22l4.7-2a4.31,4.31,0,0,1-.4-1.17Z" transform="translate(-4 -2)"/><polygon points="5.39 8.3 5.39 7 3.7 7 3.7 10 7.57 8.3 5.39 8.3"/><polygon points="10.61 8.3 8.43 8.3 12.3 10 12.3 7 10.61 7 10.61 8.3"/><circle cx="8" cy="3.01" r="3.01"/></svg>