<svg id="Layer_1" data-name="Layer 1" xmlns="http://www.w3.org/2000/svg" viewBox="0 0 18 19.93"><title>bug</title><path d="M21,7.63H17.8a7,7,0,0,0-2-2.2l1.8-1.8L16,2l-2.4,2.4a8.75,8.75,0,0,0-1.6-.2,8.75,8.75,0,0,0-1.6.2L8,2,6.4,3.63l1.8,1.8a7,7,0,0,0-2,2.2H3v2.2H5.4a4.1,4.1,0,0,0-.1,1.1V12H3v2.2H5.2v1.1a4.1,4.1,0,0,0,.1,1.1H3v2.2H6.2A6.71,6.71,0,0,0,15.4,21a7.18,7.18,0,0,0,2.5-2.4H21v-2.2H18.6a4.1,4.1,0,0,0,.1-1.1v-1.1H21V12H18.7v-1.1a4.1,4.1,0,0,0-.1-1.1H21Zm-6.7,8.8H9.7v-2.2h4.5Zm0-4.4H9.7V9.83h4.5Z" transform="translate(-3 -2.03)"/></svg>