<svg id="Layer_1" data-name="Layer 1" xmlns="http://www.w3.org/2000/svg" viewBox="0 0 20 15.97"><title>bulk_price</title><path d="M6,9.63a1.57,1.57,0,0,0,.61-1.3,1.53,1.53,0,0,0-.25-.91,1.38,1.38,0,0,0-.8-.5v0a1.14,1.14,0,0,0,.68-.47,1.47,1.47,0,0,0,.26-.87A1.25,1.25,0,0,0,5.87,4.4,3.46,3.46,0,0,0,4.07,4H2v6.08H4.31A2.62,2.62,0,0,0,6,9.63ZM3.61,5.27h.45q.76,0,.76.51a.51.51,0,0,1-.19.43.86.86,0,0,1-.53.15H3.61Zm0,3.57V7.56h.53a.91.91,0,0,1,.58.16.56.56,0,0,1,.2.47q0,.65-.75.65Z" transform="translate(-2 -4.03)"/><path d="M9.48,10.19a2.6,2.6,0,0,0,1.91-.66A2.5,2.5,0,0,0,12,7.69V4H10.44V7.59a1.57,1.57,0,0,1-.22.95.84.84,0,0,1-.71.29.84.84,0,0,1-.7-.29,1.49,1.49,0,0,1-.24-.94V4H7v3.7a2.44,2.44,0,0,0,.65,1.83A2.57,2.57,0,0,0,9.48,10.19Z" transform="translate(-2 -4.03)"/><polygon points="14.56 4.76 12.27 4.76 12.27 0 10.67 0 10.67 6.08 14.56 6.08 14.56 4.76"/><path d="M18.5,8.08,19,7.78l1.18,2.33H22L20.13,6.75,22,4H20.24L19,5.89a7.33,7.33,0,0,0-.49.78V4H16.89v6.08H18.5Z" transform="translate(-2 -4.03)"/><path d="M3.59,15H4a2.34,2.34,0,0,0,1.65-.54,2,2,0,0,0,.58-1.52,1.74,1.74,0,0,0-.56-1.38A2.49,2.49,0,0,0,4,11H2v5.88H3.59Zm0-2.64H4c.44,0,.66.2.66.59a.73.73,0,0,1-.21.55.79.79,0,0,1-.57.2H3.59Z" transform="translate(-2 -4.03)"/><path d="M8.17,14.78h.4l1.25,2.14h3.31V11h-1.6V16.8L9.91,14.36a1.73,1.73,0,0,0,1-1.58q0-1.74-2.4-1.74H6.58v5.88H8.17Zm0-2.54h.31q.82,0,.82.61t-.83.73h-.3Z" transform="translate(-2 -4.03)"/><path d="M16.4,12.26a2.29,2.29,0,0,1,.7.1,5.69,5.69,0,0,1,.65.26l.49-1.25A4.19,4.19,0,0,0,16.42,11a3,3,0,0,0-1.52.37,2.47,2.47,0,0,0-1,1.06,3.57,3.57,0,0,0-.34,1.6,3.18,3.18,0,0,0,.71,2.23,2.63,2.63,0,0,0,2,.77A4.05,4.05,0,0,0,18,16.67V15.33a7.73,7.73,0,0,1-.74.26,2.64,2.64,0,0,1-.76.11q-1.29,0-1.29-1.7a2.23,2.23,0,0,1,.32-1.28A1,1,0,0,1,16.4,12.26Z" transform="translate(-2 -4.03)"/><polygon points="16.51 12.89 20 12.89 20 11.6 18.1 11.6 18.1 10.49 19.86 10.49 19.86 9.21 18.1 9.21 18.1 8.29 20 8.29 20 7.02 16.51 7.02 16.51 12.89"/><rect x="0.01" y="13.97" width="19.99" height="2"/></svg>