<svg id="Layer_1" data-name="Layer 1" xmlns="http://www.w3.org/2000/svg" viewBox="0 0 15 20"><title>calculator</title><g id="EUXICONS"><g id="calculator"><path id="Shape" d="M18.9,2H4.5V22h15V2Zm-4.4,8.7H12.8V9.1h1.7Zm-3.4,0H9.5V9.1h1.7l-.1,1.6ZM6.2,12.3H7.9v1.6H6.2Zm3.3,0h1.7v1.6H9.5ZM7.8,10.7H6.2V9.1H7.9v1.6ZM6.2,15.6H7.9v1.6H6.2Zm3.3,0h1.7v1.6H9.5Zm4.9,1.6H12.7V15.6h1.7v1.6Zm-3.3,3.2H9.5V18.8h1.7A8.6,8.6,0,0,0,11.1,20.4Zm1.7-1.6h1.7v1.6H12.8V18.8Zm1.6-4.9H12.7V12.3h1.7v1.6Zm3.4-6.4H6.2V3.6H17.9V7.5ZM6.2,18.8H7.9v1.6H6.2Zm9.9-6.5h1.7v8.1H16.1Z" transform="translate(-4.5 -2)"/></g></g></svg>