<svg id="Layer_1" data-name="Layer 1" xmlns="http://www.w3.org/2000/svg" viewBox="0 0 19.71 19.71"><title>camera-off</title><path d="M12,8.44a4.45,4.45,0,0,1,4.12,6.24l4.55,4.55a1.75,1.75,0,0,0,.33-1V7.56a1.79,1.79,0,0,0-1.8-1.78H16.32L14.7,4H9.3L7.68,5.78H7.21l3,3A4.63,4.63,0,0,1,12,8.44Z" transform="translate(-1.78 -2.51)"/><path d="M21.49,21.51l-19-19-.71.71L4.39,5.83A1.79,1.79,0,0,0,3,7.56V18.22A1.79,1.79,0,0,0,4.8,20H18.56l2.22,2.22ZM12,17.33a4.43,4.43,0,0,1-4.5-4.44A4.37,4.37,0,0,1,8.57,10l1.16,1.16a2.78,2.78,0,0,0-.61,1.72A2.83,2.83,0,0,0,12,15.73a2.87,2.87,0,0,0,1.72-.58l1.16,1.16A4.49,4.49,0,0,1,12,17.33Z" transform="translate(-1.78 -2.51)"/></svg>