<svg id="Layer_1" data-name="Layer 1" xmlns="http://www.w3.org/2000/svg" viewBox="0 0 20 16"><title>visa_card_full</title><path d="M17.29,11.05l-.15.4-.45,1.16h.94l-.26-1.2Z" transform="translate(-2 -4)"/><path d="M20,4H4A2,2,0,0,0,2,6V18a2,2,0,0,0,2,2H20a2,2,0,0,0,2-2V6A2,2,0,0,0,20,4ZM7.2,14.08l-1-3.6A4.71,4.71,0,0,0,5,10V9.93H6.84a.47.47,0,0,1,.51.35l.4,1.91.12.58L9,9.93h1.2L8.4,14.08Zm3.87,0H9.93l.71-4.16h1.13Zm2,.06a3.59,3.59,0,0,1-1.26-.22l.16-.93.15.07a2.37,2.37,0,0,0,1.07.22c.33,0,.68-.13.68-.41s-.15-.31-.59-.52-1-.53-1-1.13c0-.81.8-1.37,1.92-1.37a2.93,2.93,0,0,1,1,.17l-.15.9-.1,0a2.09,2.09,0,0,0-.85-.16c-.44,0-.65.18-.65.36s.24.32.64.52c.65.3,1,.66,1,1.13C15,13.59,14.23,14.15,13,14.15Zm4.91-.06-.14-.62H16.36l-.24.62H14.93l1.68-3.81a.56.56,0,0,1,.59-.34h.88L19,14.09Z" transform="translate(-2 -4)"/></svg>