<svg id="Layer_1" data-name="Layer 1" xmlns="http://www.w3.org/2000/svg" viewBox="0 0 20 16"><title>card-discover-full</title><path d="M4.63,8.74H4.5v1.69h.13a.94.94,0,0,0,.68-.2.87.87,0,0,0,.27-.64.86.86,0,0,0-.27-.63A.92.92,0,0,0,4.63,8.74Z" transform="translate(-2 -4)"/><path d="M20,4H4A2,2,0,0,0,2,6V18a2,2,0,0,0,2,2H20a2,2,0,0,0,2-2V6A2,2,0,0,0,20,4ZM16.4,8.3h1.41v.43h-.91V9.3h.88v.43h-.88v.69h.91v.43H16.4Zm-2.14,0L14.94,10l.69-1.71h.54l-1.1,2.62H14.8L13.72,8.3Zm-1.8,0A1.33,1.33,0,1,1,11.1,9.57,1.33,1.33,0,0,1,12.46,8.26Zm-2.16,0a1.27,1.27,0,0,1,.61.16V9a.83.83,0,0,0-.62-.29.85.85,0,0,0-.83.88.83.83,0,0,0,.86.88.8.8,0,0,0,.6-.28v.59a1.37,1.37,0,0,1-.62.15A1.32,1.32,0,0,1,8.94,9.58,1.34,1.34,0,0,1,10.3,8.25ZM8.12,9.84a1.92,1.92,0,0,0-.34-.15c-.47-.17-.63-.35-.63-.7a.75.75,0,0,1,.8-.73,1.12,1.12,0,0,1,.75.28l-.26.34A.52.52,0,0,0,8,8.68c-.21,0-.37.12-.37.28s.09.21.39.32c.57.21.73.39.73.8a.82.82,0,0,1-.88.84A1,1,0,0,1,7,10.43l.32-.31a.59.59,0,0,0,.54.34.36.36,0,0,0,.39-.36A.31.31,0,0,0,8.12,9.84ZM6.33,8.3h.5v2.55h-.5ZM4,10.86V8.3h.73A1.27,1.27,0,0,1,6.1,9.58a1.28,1.28,0,0,1-.46,1,1.33,1.33,0,0,1-.91.29ZM20,18H5.2C14.77,16.35,20,12.66,20,12.66Zm-.61-7.14-.69-1h-.07v1h-.5V8.3h.74c.57,0,.9.28.9.75a.68.68,0,0,1-.58.72l.8,1.07Z" transform="translate(-2 -4)"/><path d="M18.79,8.71h-.15v.77h.14c.32,0,.49-.14.49-.39S19.1,8.71,18.79,8.71Z" transform="translate(-2 -4)"/></svg>