<svg id="Layer_1" data-name="Layer 1" xmlns="http://www.w3.org/2000/svg" viewBox="0 0 20 16"><title>card-paypal-filled</title><path d="M14.46,10.37H14.3a.25.25,0,0,0-.23.19l-.15.64a.15.15,0,0,0,.15.19h.12a1,1,0,0,0,.62-.16.54.54,0,0,0,.22-.46.32.32,0,0,0-.14-.29A.77.77,0,0,0,14.46,10.37Z" transform="translate(-2 -4)"/><path d="M16.75,12a.46.46,0,0,0-.21.14.37.37,0,0,0-.07.24.19.19,0,0,0,.1.18.58.58,0,0,0,.28.05.67.67,0,0,0,.26-.06,1.22,1.22,0,0,0,.26-.14l.12-.53-.41,0A1.62,1.62,0,0,0,16.75,12Z" transform="translate(-2 -4)"/><path d="M5.82,10.37H5.66a.25.25,0,0,0-.23.19l-.15.64a.15.15,0,0,0,.15.19h.12a1,1,0,0,0,.62-.16.54.54,0,0,0,.22-.46.33.33,0,0,0-.14-.29A.77.77,0,0,0,5.82,10.37Z" transform="translate(-2 -4)"/><path d="M8.11,12a.47.47,0,0,0-.21.14.37.37,0,0,0-.07.24.19.19,0,0,0,.1.18.58.58,0,0,0,.28.05.67.67,0,0,0,.26-.06,1.24,1.24,0,0,0,.26-.14l.12-.53-.41,0A1.6,1.6,0,0,0,8.11,12Z" transform="translate(-2 -4)"/><path d="M20,4H4A2,2,0,0,0,2,6V18a2,2,0,0,0,2,2H20a2,2,0,0,0,2-2V6A2,2,0,0,0,20,4ZM5.42,12H5.28a.25.25,0,0,0-.23.19l-.17.73a.25.25,0,0,1-.23.19H4.15A.15.15,0,0,1,4,12.94l.69-3a.25.25,0,0,1,.23-.19H6a3.23,3.23,0,0,1,.58,0A1.22,1.22,0,0,1,7,10a.74.74,0,0,1,.27.29,1,1,0,0,1,.09.44,1.15,1.15,0,0,1-.5,1A2.31,2.31,0,0,1,5.42,12Zm4.37-.76a.78.78,0,0,1,0,.13l-.36,1.54a.25.25,0,0,1-.23.19H8.56l.06-.27L8.44,13l-.2.11L8,13.17a1.34,1.34,0,0,1-.31,0A.75.75,0,0,1,7.18,13a.59.59,0,0,1-.2-.46A.89.89,0,0,1,7.12,12a1,1,0,0,1,.42-.33,2.34,2.34,0,0,1,.62-.17q.36-.05.78-.08v0a.38.38,0,0,0,0-.07.23.23,0,0,0-.15-.22,1.19,1.19,0,0,0-.44-.06,1.64,1.64,0,0,0-.44.07l-.36.11s-.06-.08,0-.19l.08-.42.44-.08a3.89,3.89,0,0,1,.59,0,1.86,1.86,0,0,1,.87.16.52.52,0,0,1,.28.49A1.11,1.11,0,0,1,9.79,11.26Zm.78,3h-.51c-.11,0-.14-.08-.08-.19l.47-.79,0-.14-.38-2.45a.15.15,0,0,1,.15-.19h.44a.25.25,0,0,1,.23.19l.24,1.48L12,10.69a.41.41,0,0,1,.31-.19H13l-2.11,3.57A.41.41,0,0,1,10.57,14.26ZM14.06,12h-.14a.25.25,0,0,0-.23.19l-.17.73a.25.25,0,0,1-.23.19h-.49a.15.15,0,0,1-.15-.19l.69-3a.25.25,0,0,1,.23-.19h1a3.23,3.23,0,0,1,.58,0,1.21,1.21,0,0,1,.42.16.74.74,0,0,1,.27.29,1,1,0,0,1,.09.44,1.15,1.15,0,0,1-.5,1A2.31,2.31,0,0,1,14.06,12Zm4.37-.76a.93.93,0,0,1,0,.13L18,12.93a.25.25,0,0,1-.23.19H17.2l.06-.27-.18.12-.2.11-.24.08a1.35,1.35,0,0,1-.31,0,.75.75,0,0,1-.52-.18.59.59,0,0,1-.2-.46.89.89,0,0,1,.14-.51,1,1,0,0,1,.42-.33,2.33,2.33,0,0,1,.62-.17q.36-.05.78-.08v0a.36.36,0,0,0,0-.07.23.23,0,0,0-.15-.22,1.18,1.18,0,0,0-.44-.06,1.65,1.65,0,0,0-.44.07l-.36.11s-.06-.08,0-.19l.08-.42.44-.08a3.91,3.91,0,0,1,.59,0,1.86,1.86,0,0,1,.87.16.52.52,0,0,1,.28.48S18.43,11.21,18.43,11.26Zm.87,1.67a.25.25,0,0,1-.23.19h-.44a.15.15,0,0,1-.15-.19l.66-3a.25.25,0,0,1,.23-.19H20Z" transform="translate(-2 -4)"/></svg>