<svg id="Layer_1" data-name="Layer 1" xmlns="http://www.w3.org/2000/svg" viewBox="0 0 20 16"><defs><style>.cls-1{fill-rule:evenodd;}</style></defs><title>card-american-express-full</title><path class="cls-1" d="M20,4H4A2,2,0,0,0,2,6v4.33l.76-1.79h1l.59,1.38V8.54h1.4l.47,1.2.5-1.2h5.52l.12,0,.11,0,.1,0,.1,0,.09,0,.06,0,.05,0,0,0,0,0V8.54h1.14v.36l0,0,.06-.06.06-.05.07,0,.07,0,.07,0,.08,0,.08,0,.08,0,.08,0h2.4l.66,1.57V8.54H19l.39.72V8.54h1.11v2.88H19.36l-.42-.74v.74H17.11l-.22-.52h-.44l-.22.52H14.69l-.13,0-.13,0-.12-.06-.11-.08-.1-.09h0v.35h-2L12,11.17v-.51h-.47v.85H6.91V11l-.18.42h-1l-.14-.34v.34H3.7l-.22-.52H3l-.22.52H2V18a2,2,0,0,0,2,2H20a2,2,0,0,0,2-2V15.16l0,0-.08.06-.08.05-.09,0-.09,0-.09,0H19.72v-.19l0,0-.08.05-.09,0-.09,0-.09,0H14.43l-.08-.26v-.51h-.35v.85H12.77V14.3l0,0,0,0,0,0,0,0,0,0,0,0,0,0,0,0,0,0,0,0h-1v.78H9.84l-.43-.56L9,15.42H6.08V12.54H9l.38.52.41-.52h2.42l.06,0,.09,0,.08,0,.08,0,.08.05.07.06.06.06v-.35H14.6l.11,0,.1,0,.1,0,.09,0,.08,0,.05,0,0,0h0v-.23h2.55v.21l.06,0,.08,0,.09,0,.09,0,.09,0H20v.21l.05,0,.08,0,.09,0,.09,0,.09,0H22V6A2,2,0,0,0,20,4ZM17.78,14.37h.11l-.08,0-.07-.05,0,0,0,0,0,0,0,0,0,0v.27h.22v0Zm2.3,0v0h0l0,0ZM8.46,14.18,8.64,14l-.18-.23v.45Zm7.27-4.6h-.79v.6l0,0v0h.43l.33-.79Z" transform="translate(-2 -4)"/><path class="cls-1" d="M6.4,10.1h.52l-.42,1H5.88L5.2,9.41v1.68H4.64V8.85H5.5l.69,1.74.21-.5Zm.82,0h.56v1H7.21v-1Zm1.15,0h1.73v0H8.89v.51h1.42v.43h-2v-1Zm2.2,0h1.93l-.08,0a.83.83,0,0,1,.23.1.49.49,0,0,1,.14.15.61.61,0,0,1,.07.15,1.46,1.46,0,0,1,0,.22,1.29,1.29,0,0,0,.06.34h-.62a1.67,1.67,0,0,1-.06-.32.79.79,0,0,0-.08-.3.41.41,0,0,0-.18-.16,1.07,1.07,0,0,0-.44-.07h-.45v.85h-.56v-1Zm2.71,0h.49v1h-.49v-1Zm.77,0h.54a.66.66,0,0,0,.19.48.69.69,0,0,0,.43.11h.41l.25-.59h.52l0,.07H17l0-.07h.51l.42,1h-.57l-.22-.52h-.87l-.22.52h-.91l-.35,0a.79.79,0,0,1-.6-.46,1.37,1.37,0,0,1-.11-.5Zm4.12,0h.47v1h-.47v-1Zm.84,0h.47l.23.42V10.1h.47v1h-.6l-.56-1Zm1.17,0H19.7V8.85h.47V10.1Zm-.69,0H19l-.37-.65v.65h-.47V8.85h.63l.68,1.25Zm-2,0H17l-.3-.71-.3.71h-.52l.53-1.25H17l.53,1.25Zm-2.9,0H14S14,10,14,10a1.35,1.35,0,0,1,.18-.73.75.75,0,0,1,.35-.3,1.45,1.45,0,0,1,.56-.09h.78v.4h-.72a.62.62,0,0,0-.48.17.78.78,0,0,0-.13.51q0,.09,0,.17Zm-.83,0h-.49V8.85h.49V10.1Zm-1.26,0H10.56V8.85h1.28a1.74,1.74,0,0,1,.77.12.6.6,0,0,1,.23.21.55.55,0,0,1,.08.29.63.63,0,0,1-.19.49.72.72,0,0,1-.23.13Zm-2.4,0H8.36V8.85h1.91v.42H8.89v.45h1.2v.38Zm-2.32,0H7.21V9.41l-.3.69H6.4l.52-1.25h.86V10.1Zm10.07,5v-.4h1a.67.67,0,0,0,.32,0,.23.23,0,0,0,.11-.21.25.25,0,0,0-.13-.24.52.52,0,0,0-.24,0h-.4A.82.82,0,0,1,18,14a.6.6,0,0,1-.16-.22.7.7,0,0,1-.06-.28.75.75,0,0,1,.13-.43.55.55,0,0,1,.42-.22h1.36v.4h-1l-.29,0c-.1,0-.15.1-.15.23a.22.22,0,0,0,.12.22.71.71,0,0,0,.27,0H19a1.24,1.24,0,0,1,.4,0,.5.5,0,0,1,.32.28.87.87,0,0,1,.07.35.74.74,0,0,1-.09.37.52.52,0,0,1-.38.27l-.37,0Zm-2.33-2.24h1.91v.42H16v.45h1.2v.42H16v.51h1.42v.43h-2V12.86Zm-9.13,0H8.86l.53.73.58-.73h1.76a2,2,0,0,1,.49,0,.67.67,0,0,1,.39.31.71.71,0,0,1,.11.38.77.77,0,0,1-.07.32.67.67,0,0,1-.19.25.64.64,0,0,1-.24.12,1.38,1.38,0,0,1-.34,0H11v.78H10l-.6-.77-.58.77H6.39V12.86ZM8.29,13v.25H6.92v.45h1.2v.42H6.92v.51H8.47L9,14,8.29,13ZM20.06,15.1v-.4h1a.68.68,0,0,0,.32,0,.23.23,0,0,0,.11-.21.25.25,0,0,0-.13-.24.52.52,0,0,0-.24,0h-.4a.81.81,0,0,1-.53-.14A.6.6,0,0,1,20,13.8a.71.71,0,0,1-.06-.28.75.75,0,0,1,.13-.43.55.55,0,0,1,.42-.22h1.36v.4h-1l-.29,0c-.1,0-.15.1-.15.23a.21.21,0,0,0,.12.22.71.71,0,0,0,.27,0h.35a1.24,1.24,0,0,1,.4,0,.5.5,0,0,1,.32.28.87.87,0,0,1,.07.35.74.74,0,0,1-.09.37.52.52,0,0,1-.38.27l-.37,0Zm-6.47-1.25h.7a.47.47,0,0,0,.25,0,.29.29,0,0,0,.11-.26.25.25,0,0,0-.17-.26l-.19,0h-.7v.59Zm0,.4v.85h-.5V12.86h1.15a1.42,1.42,0,0,1,.69.12.56.56,0,0,1,.21.21.59.59,0,0,1,.07.29A.67.67,0,0,1,15,14a.68.68,0,0,1-.28.16.71.71,0,0,1,.21.1.47.47,0,0,1,.13.15.68.68,0,0,1,.06.15,1.64,1.64,0,0,1,0,.22,1.4,1.4,0,0,0,.06.34h-.56a1.85,1.85,0,0,1-.05-.32.87.87,0,0,0-.08-.3.38.38,0,0,0-.16-.16.87.87,0,0,0-.39-.07Zm-3.1-1.16L9.75,14l.74.9V13.09Zm.53.83h.72a.49.49,0,0,0,.27-.06.33.33,0,0,0,.12-.29.27.27,0,0,0-.18-.29.65.65,0,0,0-.2,0H11v.66ZM3.23,9.39l-.33.78h.65l-.33-.78ZM2,11.09,3,8.85h.56l.95,2.24H3.89l-.22-.52H2.8l-.22.52Zm9.12-1.25h.78a.57.57,0,0,0,.28,0,.28.28,0,0,0,.12-.26.25.25,0,0,0-.19-.26l-.22,0h-.78v.59Z" transform="translate(-2 -4)"/></svg>