<svg id="Layer_1" data-name="Layer 1" xmlns="http://www.w3.org/2000/svg" viewBox="0 0 20 16"><title>card-paypal-outlined</title><path d="M20,4H4A2,2,0,0,0,2,6V18a2,2,0,0,0,2,2H20a2,2,0,0,0,2-2V6A2,2,0,0,0,20,4Zm0,14H4V6H20Z" transform="translate(-2 -4)"/><path d="M12.69,13h.43a.22.22,0,0,0,.21-.16l.15-.64a.22.22,0,0,1,.2-.16h.12A2,2,0,0,0,15,11.72a1,1,0,0,0,.44-.85.83.83,0,0,0-.08-.39.65.65,0,0,0-.24-.25,1.06,1.06,0,0,0-.37-.14,2.83,2.83,0,0,0-.5,0h-.89a.22.22,0,0,0-.2.16l-.6,2.63A.13.13,0,0,0,12.69,13Zm1.11-2.24a.22.22,0,0,1,.2-.16h.14a.67.67,0,0,1,.37.08.28.28,0,0,1,.12.25.47.47,0,0,1-.19.4.9.9,0,0,1-.54.14H13.8a.13.13,0,0,1-.13-.16Z" transform="translate(-2 -4)"/><path d="M16,11.26a1.44,1.44,0,0,1,.39-.06,1,1,0,0,1,.39.06.2.2,0,0,1,.13.19.31.31,0,0,1,0,.06v0l-.68.07a2,2,0,0,0-.54.15.85.85,0,0,0-.37.29.78.78,0,0,0-.12.45.52.52,0,0,0,.17.41.65.65,0,0,0,.45.16,1.18,1.18,0,0,0,.27,0l.21-.07.18-.1.16-.11-.06.24h.54a.22.22,0,0,0,.2-.16l.31-1.35a.8.8,0,0,0,0-.11,1,1,0,0,0,0-.1.45.45,0,0,0-.24-.42,1.62,1.62,0,0,0-.76-.14,3.41,3.41,0,0,0-.52,0l-.38.07-.07.37c0,.09,0,.16,0,.16Zm.69,1.16a1.07,1.07,0,0,1-.22.12.59.59,0,0,1-.22,0,.51.51,0,0,1-.24,0,.17.17,0,0,1-.08-.16.32.32,0,0,1,.06-.21.4.4,0,0,1,.18-.12,1.42,1.42,0,0,1,.28-.06l.36,0Z" transform="translate(-2 -4)"/><path d="M17.8,13h.38a.22.22,0,0,0,.21-.16L19,10.08h-.55a.22.22,0,0,0-.2.16l-.57,2.6A.13.13,0,0,0,17.8,13Z" transform="translate(-2 -4)"/><path d="M5.13,13h.43a.22.22,0,0,0,.2-.16l.15-.64a.22.22,0,0,1,.2-.16h.12a2,2,0,0,0,1.22-.32,1,1,0,0,0,.44-.85.83.83,0,0,0-.08-.39.65.65,0,0,0-.24-.25,1.07,1.07,0,0,0-.37-.14,2.82,2.82,0,0,0-.5,0H5.81a.22.22,0,0,0-.21.16L5,12.85A.13.13,0,0,0,5.13,13Zm1.11-2.24a.22.22,0,0,1,.2-.16h.14a.67.67,0,0,1,.37.08.28.28,0,0,1,.12.26.47.47,0,0,1-.19.4.9.9,0,0,1-.54.14H6.25a.13.13,0,0,1-.13-.16Z" transform="translate(-2 -4)"/><path d="M8.44,11.27a1.43,1.43,0,0,1,.39-.06,1,1,0,0,1,.39.06.2.2,0,0,1,.13.19.33.33,0,0,1,0,.06v0l-.68.07a2,2,0,0,0-.54.15.86.86,0,0,0-.37.29.78.78,0,0,0-.12.45.52.52,0,0,0,.18.41.65.65,0,0,0,.45.16,1.17,1.17,0,0,0,.27,0L8.71,13l.18-.1L9,12.77,9,13h.54a.22.22,0,0,0,.21-.16L10,11.49a.69.69,0,0,0,0-.11,1,1,0,0,0,0-.1.45.45,0,0,0-.24-.42,1.62,1.62,0,0,0-.76-.14,3.41,3.41,0,0,0-.52,0l-.38.07-.07.37c0,.09,0,.16,0,.16Zm.69,1.16a1.09,1.09,0,0,1-.22.12.59.59,0,0,1-.22,0,.51.51,0,0,1-.24,0,.17.17,0,0,1-.08-.16.33.33,0,0,1,.06-.21.41.41,0,0,1,.18-.12A1.4,1.4,0,0,1,8.88,12l.35,0Z" transform="translate(-2 -4)"/><path d="M10.75,14a.36.36,0,0,0,.27-.16l1.85-3.12h-.61a.36.36,0,0,0-.27.16l-.76,1.3L11,10.88a.22.22,0,0,0-.21-.16h-.38a.13.13,0,0,0-.13.16L10.63,13l0,.12-.41.69c-.06.09,0,.16.07.16Z" transform="translate(-2 -4)"/></svg>