<svg id="Layer_1" data-name="Layer 1" xmlns="http://www.w3.org/2000/svg" viewBox="0 0 20 16"><title>visa_card</title><path d="M7.2,14.08H8.4l1.78-4.15H9L7.87,12.76l-.12-.58-.4-1.91a.47.47,0,0,0-.51-.35H5V10a4.71,4.71,0,0,1,1.19.47Z" transform="translate(-2 -4)"/><polygon points="9.06 10.09 9.77 5.93 8.64 5.93 7.93 10.09 9.06 10.09"/><path d="M15,12.73c0-.47-.3-.83-1-1.13-.4-.19-.64-.32-.64-.52s.21-.36.65-.36a2.09,2.09,0,0,1,.85.16l.1,0,.15-.9a2.93,2.93,0,0,0-1-.17c-1.12,0-1.91.56-1.92,1.37,0,.6.56.93,1,1.13s.59.33.59.52-.35.41-.68.41a2.37,2.37,0,0,1-1.07-.22L11.93,13l-.16.93a3.59,3.59,0,0,0,1.26.22C14.23,14.15,15,13.59,15,12.73Z" transform="translate(-2 -4)"/><path d="M16.12,14.09l.24-.62h1.45l.14.62H19l-.92-4.16h-.88a.56.56,0,0,0-.59.34l-1.68,3.81Zm1-2.64.15-.4.08.36.26,1.2h-.94Z" transform="translate(-2 -4)"/><path d="M20,4H4A2,2,0,0,0,2,6V18a2,2,0,0,0,2,2H20a2,2,0,0,0,2-2V6A2,2,0,0,0,20,4Zm0,14H4V6H20Z" transform="translate(-2 -4)"/></svg>