<svg id="Layer_1" data-name="Layer 1" xmlns="http://www.w3.org/2000/svg" viewBox="0 0 20 16"><title>card-homedepot-1-outlined</title><polygon points="4 13 4 11 7 11 7 13 4 13"/><polygon points="9 13 9 11 13 11 13 13 9 13"/><path d="M6,8H7.91v2H9.15V8h1.91v6H9.15V12H7.91v2H6Z" transform="translate(-2 -4)"/><path d="M12.46,8h2.11C16.49,8,18,8.86,18,11.11A2.7,2.7,0,0,1,15.48,14H12.56V8Zm2.11,4.29h.1c.7,0,1.21-.32,1.21-1.07A1.12,1.12,0,0,0,14.67,10h-.1Z" transform="translate(-2 -4)"/><path d="M20,4H4A2,2,0,0,0,2,6V18a2,2,0,0,0,2,2H20a2,2,0,0,0,2-2V6A2,2,0,0,0,20,4Zm0,14H4V6H20Z" transform="translate(-2 -4)"/></svg>