<svg id="Layer_1" data-name="Layer 1" xmlns="http://www.w3.org/2000/svg" viewBox="0 0 20 16.1"><title>card-credit</title><g id="EUXICONS"><g id="payment_credit_card" data-name="payment credit card"><path id="Combined-Shape" d="M20.3,3.95a1.85,1.85,0,0,1,1.2.5,1.66,1.66,0,0,1,.5,1.2v12.7a1.85,1.85,0,0,1-.5,1.2,1.66,1.66,0,0,1-1.2.5H3.7a1.85,1.85,0,0,1-1.2-.5,2.11,2.11,0,0,1-.5-1.3V5.65a1.85,1.85,0,0,1,.5-1.2,1.66,1.66,0,0,1,1.2-.5ZM3.7,5.25c-.1,0-.2,0-.2.1s-.2.2-.2.3v2.3H20.6V5.65c0-.1,0-.2-.1-.2s-.1-.1-.2-.1H3.7Zm16.6,13.4c.1,0,.2,0,.2-.1s.1-.1.1-.2v-6.4H3.3v6.3c0,.1,0,.2.1.2s.1.1.2.1S20.3,18.65,20.3,18.65ZM4.7,17.25v-1.3H7.4v1.3Zm4,0v-1.3h4v1.3Z" transform="translate(-2 -3.95)"/></g></g></svg>