<svg id="Layer_1" data-name="Layer 1" xmlns="http://www.w3.org/2000/svg" viewBox="0 0 20 10.81"><defs><style>.cls-1{fill:none;stroke:#ea1313;stroke-miterlimit:10;stroke-width:0.05px;}</style></defs><title>timeline</title><path class="cls-1" d="M17.75,10.25" transform="translate(-2 -6.6)"/><path class="cls-1" d="M6.53,10.25" transform="translate(-2 -6.6)"/><g id="EUXICONS"><g id="timeline"><path id="Shape" d="M22,8.4a1.79,1.79,0,0,1-1.8,1.8.9.9,0,0,1-.5-.1l-3.2,3.2c0,.2.1.3.1.5a1.8,1.8,0,0,1-3.6,0,.9.9,0,0,1,.1-.5L10.7,11a1.39,1.39,0,0,1-.9,0L5.7,15.1c0,.2.1.3.1.5A1.79,1.79,0,0,1,4,17.4a2,2,0,0,1-2-1.8,1.79,1.79,0,0,1,1.8-1.8h0a.9.9,0,0,1,.5.1L8.4,9.8c0-.2-.1-.3-.1-.5a1.79,1.79,0,0,1,1.8-1.8A1.88,1.88,0,0,1,12,9.3a.9.9,0,0,1-.1.5l2.3,2.3a1.39,1.39,0,0,1,.9,0l3.2-3.2c0-.2-.1-.3-.1-.5A1.79,1.79,0,0,1,20,6.6a1.79,1.79,0,0,1,2,1.8Z" transform="translate(-2 -6.6)"/></g></g></svg>