<svg id="Layer_1" data-name="Layer 1" xmlns="http://www.w3.org/2000/svg" viewBox="0 0 18 22"><title>claims_intake</title><polygon points="10 9 8.04 9.01 8 11 6 11 5.93 13 8 13 8 15 10 15 10 13 12 13 12 11 10 11 10 9"/><path d="M20,7.67V4.9A2,2,0,0,0,18,3H14.82A3,3,0,0,0,9.18,3H6A2,2,0,0,0,4,4.9V7.67L3,8a15.76,15.76,0,0,0,1,5.53V20.1A2,2,0,0,0,6,22h4.51A15.16,15.16,0,0,0,12,23a15.16,15.16,0,0,0,1.49-1H18a2,2,0,0,0,2-1.9V13.53A15.76,15.76,0,0,0,21,8ZM16,6V5h2V7L15,6ZM12,3a1,1,0,1,1-1,1A1,1,0,0,1,12,3ZM6,5H8V6H9L6,7ZM6,20V17.35A19.87,19.87,0,0,0,8.22,20Zm12,0H15.78A19.87,19.87,0,0,0,18,17.35Zm.48-8.57-.06.22c-.12.48-.26,1-.42,1.41a16.77,16.77,0,0,1-5,7,12.11,12.11,0,0,1-1,.78,12.1,12.1,0,0,1-1-.78A17.16,17.16,0,0,1,5.7,12.51c-.05-.15-.09-.31-.14-.47s-.12-.44-.18-.66-.06-.27-.09-.4c-.08-.37-.15-.75-.2-1.14L6,9.45C8.23,8.51,12,7,12,7s3.89,1.56,6,2.5l.4.18.35.16A13,13,0,0,1,18.48,11.43Z" transform="translate(-3 -1)"/></svg>