<svg id="Layer_1" data-name="Layer 1" xmlns="http://www.w3.org/2000/svg" viewBox="0 0 20 18.1"><title>closed-caption</title><path d="M18.7,10.85V9.65a1.1,1.1,0,0,0-1-1.1H14.3a1.11,1.11,0,0,0-1.1,1.1h0v4.5a1.11,1.11,0,0,0,1.1,1.1h3.3a1.11,1.11,0,0,0,1.1-1.1v-1.3H17v.6H14.8v-3.4H17v.6h1.7Zm-7.8,0V9.65a1.11,1.11,0,0,0-1.1-1.1H6.4a1.11,1.11,0,0,0-1.1,1.1v4.6a1.1,1.1,0,0,0,1,1.1H9.7a1.11,1.11,0,0,0,1.1-1.1h0v-1.2H9.2v.6H7v-3.4H9.2v.6ZM19.8,3A2.24,2.24,0,0,1,22,5.25v13.5A2.38,2.38,0,0,1,19.8,21H4.2A2.4,2.4,0,0,1,2,18.65V5.25A2.24,2.24,0,0,1,4.2,3Z" transform="translate(-2 -2.95)"/></svg>