<svg id="Layer_3" data-name="Layer 3" xmlns="http://www.w3.org/2000/svg" viewBox="0 0 20 20"><title>settings</title><path d="M19.64,13a7.58,7.58,0,0,0,.07-1,7.58,7.58,0,0,0-.07-1l2.17-1.65a.5.5,0,0,0,.12-.64L19.88,5.27a.52.52,0,0,0-.63-.22l-2.56,1a7.56,7.56,0,0,0-1.74-1l-.39-2.65a.5.5,0,0,0-.5-.42H9.95a.5.5,0,0,0-.5.42L9.05,5.07a8,8,0,0,0-1.74,1l-2.56-1a.51.51,0,0,0-.63.22L2.07,8.73a.48.48,0,0,0,.12.64L4.36,11a7.72,7.72,0,0,0-.07,1,7.72,7.72,0,0,0,.07,1L2.19,14.63a.5.5,0,0,0-.12.64l2.06,3.46a.52.52,0,0,0,.63.22l2.56-1a7.56,7.56,0,0,0,1.74,1l.39,2.65a.5.5,0,0,0,.5.42h4.11a.5.5,0,0,0,.5-.42L15,18.93a8,8,0,0,0,1.74-1l2.56,1a.51.51,0,0,0,.63-.22l2.06-3.46a.5.5,0,0,0-.12-.64ZM12,15.5A3.5,3.5,0,1,1,15.6,12,3.55,3.55,0,0,1,12,15.5Z" transform="translate(-2 -2)"/></svg>