<svg id="Layer_3" data-name="Layer 3" xmlns="http://www.w3.org/2000/svg" viewBox="0 0 20 20"><title>credit-card-services</title><rect x="6" y="12.4" width="1.5" height="0.8"/><rect x="8.2" y="12.4" width="2.3" height="0.8"/><path d="M17.5,7.8a.91.91,0,0,0-.7-.3H7.4a.91.91,0,0,0-.7.3,1.08,1.08,0,0,0-.3.7v7.2a1,1,0,0,0,1,1h9.4a1,1,0,0,0,1-1V8.5A1.08,1.08,0,0,0,17.5,7.8Zm-.5,8a.1.1,0,0,1-.1.1l-.1.1H7.4a.1.1,0,0,1-.1-.1l-.1-.1V12.2H17Zm0-6H7.2V8.5a.1.1,0,0,1,.1-.1l.1-.1h9.4a.1.1,0,0,1,.1.1l.1.1Z" transform="translate(-2 -2)"/><path d="M12,2A10,10,0,1,0,22,12,10,10,0,0,0,12,2Zm.1,18h0A8,8,0,1,1,20,12,7.94,7.94,0,0,1,12.1,20Z" transform="translate(-2 -2)"/></svg>