<svg id="Layer_3" data-name="Layer 3" xmlns="http://www.w3.org/2000/svg" viewBox="0 0 20 20"><title>credit-card-services-filled</title><path d="M7.2,15.8l.1.1a.1.1,0,0,0,.1.1h9.4l.1-.1a.1.1,0,0,0,.1-.1V12.2H7.2Zm3-1.4h2.3v.8H10.2ZM8,14.4H9.5v.8H8Z" transform="translate(-2 -2)"/><path d="M16.8,8.3H7.4l-.1.1a.1.1,0,0,0-.1.1V9.8H17V8.5l-.1-.1A.1.1,0,0,0,16.8,8.3Z" transform="translate(-2 -2)"/><path d="M12,2A10,10,0,1,0,22,12,10,10,0,0,0,12,2Zm5.8,13.7a1,1,0,0,1-1,1H7.4a1,1,0,0,1-1-1V8.5a1.08,1.08,0,0,1,.3-.7.91.91,0,0,1,.7-.3h9.4a.91.91,0,0,1,.7.3,1.08,1.08,0,0,1,.3.7Z" transform="translate(-2 -2)"/></svg>