<?xml version="1.0" encoding="utf-8"?>
<!-- Generator: Adobe Illustrator 20.1.0, SVG Export Plug-In . SVG Version: 6.00 Build 0)  -->
<svg version="1.1" id="Layer_1" xmlns="http://www.w3.org/2000/svg" xmlns:xlink="http://www.w3.org/1999/xlink" x="0px" y="0px"
	 viewBox="0 0 24 24" style="enable-background:new 0 0 24 24;" xml:space="preserve">
<style type="text/css">
	.st0{fill:none;}
</style>
<title>nav_custom_design</title>
<path d="M12,2C6.5,2,2,6.5,2,12s4.5,10,10,10s10-4.5,10-10S17.5,2,12,2z M12,20c-4.4,0-8-3.6-8-8s3.6-8,8-8s8,3.6,8,8S16.4,20,12,20
	z"/>
<rect class="st0" width="24" height="24"/>
<g>
	<path d="M7.8,9.2l0.1-0.8l4.7,4.9c0.2,0.2,0.5,0.2,0.7,0c0.2-0.2,0.2-0.5,0-0.7c0,0,0,0,0,0L8.6,7.8l0,0l0.9,0l4.9,5.2
		c0.2,0.2,0.5,0.2,0.7,0c0.2-0.2,0.2-0.5,0-0.7L9.9,6.9l-1.7,0L7.1,8L6.8,9.6l5.3,5.6c0.1,0.1,0.2,0.1,0.3,0.1c0.1,0,0.2,0,0.3-0.1
		c0.2-0.2,0.2-0.5,0-0.7L7.8,9.2z"/>
	<path d="M15.8,13.4c-0.3,0.1-0.4,0.3-0.4,0.6l0.3,1.2l-0.8,0.8l-1.2-0.3c-0.2-0.1-0.5,0.1-0.6,0.3c0,0.2,0,0.3,0.1,0.4
		c0.1,0.1,0.1,0.1,0.2,0.1l2.9,0.8c0.2,0,0.3,0,0.4-0.1c0.1-0.1,0.2-0.3,0.1-0.4l-0.6-3C16.3,13.5,16.1,13.3,15.8,13.4z"/>
	<path d="M13.3,9.1L13.3,9.1L14,9.7c0.1,0.1,0.2,0.1,0.2,0.1c0.1,0,0.2,0,0.2-0.1c0.1-0.1,0.1-0.4,0-0.5l-0.7-0.7l0.4-0.4l0.7,0.7
		c0.1,0.1,0.2,0.1,0.2,0.1c0.1,0,0.2,0,0.2-0.1c0.1-0.1,0.1-0.4,0-0.5l-0.7-0.7L15,7.4L16.6,9l-1.7,1.7c-0.2,0.2-0.2,0.5,0,0.7
		c0.1,0.1,0.2,0.1,0.3,0.1s0.2,0,0.3-0.1L17.9,9l-3-3l-2.3,2.3c-0.2,0.2-0.2,0.5,0,0.7C12.8,9.3,13.1,9.3,13.3,9.1z"/>
	<path d="M10.7,14.9L9,16.6L7.4,15l0.3-0.3l0.7,0.7c0.1,0.1,0.4,0.1,0.5,0c0.1-0.1,0.1-0.2,0.1-0.2c0-0.1,0-0.2-0.1-0.2l-0.7-0.7
		l0.4-0.4l0.7,0.7c0.1,0.1,0.4,0.1,0.5,0c0.1-0.1,0.1-0.2,0.1-0.2c0-0.1,0-0.2-0.1-0.2L9,13.3l0,0c0.2-0.2,0.2-0.5,0-0.7
		c-0.2-0.2-0.5-0.2-0.7,0L6.1,15l3,3l2.3-2.3c0.1-0.1,0.1-0.2,0.1-0.3c0-0.1,0-0.2-0.1-0.3C11.2,14.8,10.9,14.8,10.7,14.9z"/>
</g>
</svg>
