<svg id="Layer_1" data-name="Layer 1" xmlns="http://www.w3.org/2000/svg" viewBox="0 0 20 20"><title>custom_design</title><path d="M12,2A10,10,0,1,0,22,12,10,10,0,0,0,12,2Zm0,18a8,8,0,1,1,8-8A8,8,0,0,1,12,20Z" transform="translate(-2 -2)"/><path d="M12,6a6,6,0,0,0,0,12,1,1,0,0,0,.74-1.67,1,1,0,0,1,.75-1.66h1.18A3.33,3.33,0,0,0,18,11.33C18,8.39,15.31,6,12,6ZM8.33,12a1,1,0,1,1,1-1A1,1,0,0,1,8.33,12Zm2-2.67a1,1,0,1,1,1-1A1,1,0,0,1,10.33,9.33Zm3.33,0a1,1,0,1,1,1-1A1,1,0,0,1,13.67,9.33Zm2,2.67a1,1,0,1,1,1-1A1,1,0,0,1,15.67,12Z" transform="translate(-2 -2)"/></svg>