<svg id="Layer_3" data-name="Layer 3" xmlns="http://www.w3.org/2000/svg" viewBox="0 0 20 20"><title>delivery-tracks</title><path d="M19.8,8.6l.9-1.2H9.3c-.1,0-.2.1-.3.1s-.1.1-.1.3V9h-1a.6.6,0,0,0-.4.1c-.1,0-.2,0-.2.1L6,10.4c-.1.1-.1.1-.1.2s-.1.1-.1.2-.1.1-.1.2v2.6H5l.8.8h.8A1.5,1.5,0,0,0,7,15.5a1.61,1.61,0,0,0,1.1.5,1.38,1.38,0,0,0,1.5-1.5H12a1.5,1.5,0,1,0,3,0,1.45,1.45,0,0,0-.1-.6h.7l.8-1.1H15l.4-.6h1.4l.8-1H16l.6-.8h1.6l.8-1H17.1l.6-.9h2.1ZM6.5,11.3v-.2c0-.1,0-.1.1-.1L7.8,9.8l.1-.1h1v1.6ZM8.7,15a.71.71,0,0,1-.6.3.86.86,0,0,1-.6-.3.71.71,0,0,1-.3-.6.86.86,0,0,1,.3-.6.71.71,0,0,1,.6-.3.86.86,0,0,1,.6.3c.2.2.2.3.2.6A.85.85,0,0,1,8.7,15Zm5.5,0a.71.71,0,0,1-.6.3A.86.86,0,0,1,13,15a.71.71,0,0,1-.3-.6.86.86,0,0,1,.3-.6.71.71,0,0,1,.6-.3.86.86,0,0,1,.6.3.71.71,0,0,1,.3.6C14.4,14.7,14.4,14.9,14.2,15Z" transform="translate(-2 -2)"/><path d="M21.4,8.7l-1.6,2.1a4.87,4.87,0,0,1,.1,1.2,8,8,0,1,1-8-8,7.91,7.91,0,0,1,5.4,2.1H20A9.8,9.8,0,0,0,12,2,10,10,0,1,0,22,12,9.19,9.19,0,0,0,21.4,8.7Z" transform="translate(-2 -2)"/></svg>