<svg id="Layer_1" data-name="Layer 1" xmlns="http://www.w3.org/2000/svg" viewBox="0 0 20 11.82"><title>dollar-bills</title><path d="M2,17.91H18.36V9.73H2Zm.82-7.36H17.55v6.55H2.82Z" transform="translate(-2 -6.09)"/><path d="M3.64,11.36v4.91H8a3.23,3.23,0,0,1,0-4.91Z" transform="translate(-2 -6.09)"/><path d="M13.45,13.82a3.25,3.25,0,0,1-1.13,2.45h4.4V11.36h-4.4A3.25,3.25,0,0,1,13.45,13.82Z" transform="translate(-2 -6.09)"/><path d="M11.26,13.69a4.75,4.75,0,0,0-.61-.36,4.34,4.34,0,0,1-.63-.38.44.44,0,0,1-.11-.34.37.37,0,0,1,.05-.22.19.19,0,0,1,.16-.07.17.17,0,0,1,.17.08,1,1,0,0,1,0,.36v.17h1.17q0-.13,0-.19a1,1,0,0,0-.27-.72,1.35,1.35,0,0,0-.81-.32v-.33H9.9v.33A1.55,1.55,0,0,0,9,12a.92.92,0,0,0-.3.73,1.17,1.17,0,0,0,.14.57,1.18,1.18,0,0,0,.33.39,8.28,8.28,0,0,0,.73.44.79.79,0,0,1,.38.33,1.6,1.6,0,0,1,.05.5.32.32,0,0,1-.06.21.21.21,0,0,1-.18.07.16.16,0,0,1-.17-.1,2.13,2.13,0,0,1,0-.52v-.25H8.74v.2a1.17,1.17,0,0,0,.35,1,1.49,1.49,0,0,0,.82.32v.4h.54v-.39a1.45,1.45,0,0,0,.9-.39,1.21,1.21,0,0,0,.3-.87,1.33,1.33,0,0,0-.11-.58A1,1,0,0,0,11.26,13.69Z" transform="translate(-2 -6.09)"/><polygon points="0.91 1.82 0.91 2.73 17.27 2.73 17.27 10.91 18.18 10.91 18.18 2.73 18.18 1.82 17.27 1.82 0.91 1.82"/><polygon points="2.73 0 2.73 0.91 19.09 0.91 19.09 9.97 20 9.97 20 0.91 20 0 2.73 0"/></svg>