<svg id="Layer_1" data-name="Layer 1" xmlns="http://www.w3.org/2000/svg" viewBox="0 0 20 10"><title>dollar-bill</title><path d="M2,7V17H22V7Zm19,9H3V8H21Z" transform="translate(-2 -7)"/><path d="M8,12A4,4,0,0,1,9.38,9H4v6H9.38A4,4,0,0,1,8,12Z" transform="translate(-2 -7)"/><path d="M20,15V9H14.62a4,4,0,0,1,0,6Z" transform="translate(-2 -7)"/><path d="M10.79,11.87a10.11,10.11,0,0,0,.89.53,1,1,0,0,1,.46.4,2,2,0,0,1,.07.61.39.39,0,0,1-.07.26.26.26,0,0,1-.22.09.2.2,0,0,1-.21-.12,2.6,2.6,0,0,1,0-.63v-.31H10.23v.25a1.43,1.43,0,0,0,.43,1.18,1.82,1.82,0,0,0,1,.39V15h.66v-.48a1.77,1.77,0,0,0,1.1-.48A1.47,1.47,0,0,0,13.79,13a1.63,1.63,0,0,0-.14-.71,1.21,1.21,0,0,0-.33-.44,5.8,5.8,0,0,0-.74-.45,5.3,5.3,0,0,1-.77-.46.54.54,0,0,1-.13-.42.45.45,0,0,1,.07-.27.23.23,0,0,1,.2-.09.21.21,0,0,1,.21.1,1.22,1.22,0,0,1,0,.44v.21h1.43q0-.16,0-.24a1.16,1.16,0,0,0-.33-.88,1.65,1.65,0,0,0-1-.39V9h-.66v.4a1.9,1.9,0,0,0-1.09.4,1.13,1.13,0,0,0-.36.89,1.43,1.43,0,0,0,.17.7A1.44,1.44,0,0,0,10.79,11.87Z" transform="translate(-2 -7)"/></svg>