<svg id="Layer_1" data-name="Layer 1" xmlns="http://www.w3.org/2000/svg" viewBox="0 0 16.67 20"><title>dollar-symbol</title><path d="M19.56,8.37H12.91v-.7a3,3,0,0,0-.23-1.46q-.23-.34-1-.34a1.26,1.26,0,0,0-.91.3,1.19,1.19,0,0,0-.3.89,1.51,1.51,0,0,0,.63,1.39A27.87,27.87,0,0,0,14.68,10a30.61,30.61,0,0,1,3.46,1.49,4.54,4.54,0,0,1,1.56,1.46,4.13,4.13,0,0,1,.63,2.35,4.18,4.18,0,0,1-1.71,3.54,10.05,10.05,0,0,1-5.14,1.59V22H10.42V20.36a10.66,10.66,0,0,1-4.66-1.3,4.16,4.16,0,0,1-2-3.95v-.82h6.65v1a6.28,6.28,0,0,0,.21,2.11q.21.41,1,.41a1.5,1.5,0,0,0,1-.29,1.07,1.07,0,0,0,.33-.85,4.77,4.77,0,0,0-.31-2,4.28,4.28,0,0,0-2.14-1.33q-3-1.21-4.14-1.78A5.7,5.7,0,0,1,4.47,10a3.72,3.72,0,0,1-.8-2.34,3.34,3.34,0,0,1,1.69-3,11.14,11.14,0,0,1,5.06-1.32V2h3.06V3.35a9.56,9.56,0,0,1,4.61,1.31,3.37,3.37,0,0,1,1.53,2.93A7.11,7.11,0,0,1,19.56,8.37Z" transform="translate(-3.67 -2)"/></svg>