<svg id="Layer_3" data-name="Layer 3" xmlns="http://www.w3.org/2000/svg" viewBox="0 0 20 20"><title>spos-outlined</title><path d="M12,2A10,10,0,1,0,22,12,10,10,0,0,0,12,2Zm.1,18h0A8,8,0,1,1,20,12,7.94,7.94,0,0,1,12.1,20Z" transform="translate(-2 -2)"/><path d="M16.54,9.82h-4V9.41a1.8,1.8,0,0,0-.14-.88q-.14-.21-.59-.21a.76.76,0,0,0-.55.18.72.72,0,0,0-.18.54.91.91,0,0,0,.38.83,16.72,16.72,0,0,0,2.15.93,18.36,18.36,0,0,1,2.08.89,2.72,2.72,0,0,1,.93.88A2.48,2.48,0,0,1,17,14a2.51,2.51,0,0,1-1,2.12,6,6,0,0,1-3.08,1v1H11.05V17a6.4,6.4,0,0,1-2.8-.78,2.49,2.49,0,0,1-1.2-2.37v-.49h4V14a3.77,3.77,0,0,0,.12,1.27q.12.25.6.25a.9.9,0,0,0,.6-.17.64.64,0,0,0,.2-.51,2.86,2.86,0,0,0-.19-1.22,2.57,2.57,0,0,0-1.28-.8q-1.83-.73-2.49-1.07a3.42,3.42,0,0,1-1.14-1A2.23,2.23,0,0,1,7,9.38,2,2,0,0,1,8,7.6a6.68,6.68,0,0,1,3-.79V6h1.84v.81a5.73,5.73,0,0,1,2.77.79,2,2,0,0,1,.92,1.76A4.27,4.27,0,0,1,16.54,9.82Z" transform="translate(-2 -2)"/></svg>