<svg id="Layer_3" data-name="Layer 3" xmlns="http://www.w3.org/2000/svg" viewBox="0 0 20 20"><title>spos-filled</title><path d="M12,2A10,10,0,1,0,22,12,10,10,0,0,0,12,2Zm4.78,14.78a7.21,7.21,0,0,1-3.65,1.11V19H11V17.85a7.65,7.65,0,0,1-3.31-.91,2.9,2.9,0,0,1-1.41-2.76V13.6H11v.72a4.33,4.33,0,0,0,.15,1.48q.15.29.71.29a1.07,1.07,0,0,0,.71-.2.74.74,0,0,0,.23-.6,3.3,3.3,0,0,0-.22-1.42A3,3,0,0,0,11,12.95Q8.86,12.1,8.08,11.7a4,4,0,0,1-1.34-1.12,2.58,2.58,0,0,1-.57-1.64,2.33,2.33,0,0,1,1.2-2.07A8,8,0,0,1,11,5.94V5h2.17v.94a6.86,6.86,0,0,1,3.27.92,2.35,2.35,0,0,1,1.09,2,4.91,4.91,0,0,1,0,.55H12.73V9a2.07,2.07,0,0,0-.16-1q-.16-.24-.7-.24a.9.9,0,0,0-.65.21.83.83,0,0,0-.22.62,1.05,1.05,0,0,0,.44,1A19.93,19.93,0,0,0,14,10.59a21.9,21.9,0,0,1,2.46,1,3.2,3.2,0,0,1,1.1,1A2.86,2.86,0,0,1,18,14.3,2.91,2.91,0,0,1,16.78,16.78Z" transform="translate(-2 -2)"/></svg>