<svg id="Layer_1" data-name="Layer 1" xmlns="http://www.w3.org/2000/svg" viewBox="0 0 20 13.61"><title>enterprise-ux</title><polygon points="16.32 7.98 20 13.24 20 3.61 19.41 3.61 16.32 7.98"/><polygon points="16.06 3.61 13.52 3.61 14.66 5.78 16.06 3.61"/><polygon points="12.32 13.61 16.91 13.61 14.8 10.16 12.32 13.61"/><path d="M2.8,14.27V9H2V19H7.41a4.73,4.73,0,0,1-3.47-1.13A4.92,4.92,0,0,1,2.8,14.27Z" transform="translate(-2 -5.39)"/><path d="M5.79,15.71a1.44,1.44,0,0,0,.55.64,1.94,1.94,0,0,0,1.06.25,1.91,1.91,0,0,0,1.06-.25A1.51,1.51,0,0,0,9,15.71a2.49,2.49,0,0,0,.22-.87c0-.32,0-.64,0-.95V9H5.55v4.89c0,.31,0,.62,0,.95A2.58,2.58,0,0,0,5.79,15.71Z" transform="translate(-2 -5.39)"/><path d="M12.21,9H12v5.27a4.94,4.94,0,0,1-1.13,3.6A4.7,4.7,0,0,1,7.41,19H11l4.13-5.63Z" transform="translate(-2 -5.39)"/><path d="M3.4,6H2.64v.41h.72V7H2.64v.43H3.4v.54H2V5.46H3.4Z" transform="translate(-2 -5.39)"/><path d="M3.87,7.93V5.46h.64L5.69,7V5.46h.64V7.93H5.69L4.51,6.42V7.93Z" transform="translate(-2 -5.39)"/><path d="M7.78,6V7.93H7.14V6H6.62V5.46h1.7V6Z" transform="translate(-2 -5.39)"/><path d="M10,6H9.24v.41H10V7H9.24v.43H10v.54H8.6V5.46H10Z" transform="translate(-2 -5.39)"/><path d="M12.51,7.93h-.8L11.1,7v.95h-.64V5.46h1a1,1,0,0,1,.36.06.68.68,0,0,1,.4.41.84.84,0,0,1,.05.29.72.72,0,0,1-.14.46.68.68,0,0,1-.4.24ZM11.1,6.57h.12a.47.47,0,0,0,.29-.08.3.3,0,0,0,0-.45A.47.47,0,0,0,11.22,6H11.1Z" transform="translate(-2 -5.39)"/><path d="M13.42,7.93h-.64V5.46h1a.88.88,0,0,1,.64.22.81.81,0,0,1,.22.61.81.81,0,0,1-.22.61.87.87,0,0,1-.64.22h-.38Zm0-1.34h.21c.24,0,.35-.1.35-.31S13.87,6,13.64,6h-.21Z" transform="translate(-2 -5.39)"/><path d="M17.05,7.93h-.8L15.64,7v.95H15V5.46h1a1,1,0,0,1,.36.06.68.68,0,0,1,.4.41.84.84,0,0,1,.05.29.72.72,0,0,1-.14.46.68.68,0,0,1-.4.24ZM15.64,6.57h.12a.47.47,0,0,0,.29-.08.3.3,0,0,0,0-.45A.47.47,0,0,0,15.76,6h-.12Z" transform="translate(-2 -5.39)"/><path d="M18,5.46V7.93h-.64V5.46Z" transform="translate(-2 -5.39)"/><path d="M19.83,6.09A.79.79,0,0,0,19.63,6a.56.56,0,0,0-.2,0,.33.33,0,0,0-.2.06.18.18,0,0,0-.08.15.16.16,0,0,0,0,.11l.1.07.14.05.16,0a1,1,0,0,1,.46.28.69.69,0,0,1,.14.46.89.89,0,0,1-.06.34.7.7,0,0,1-.19.26.85.85,0,0,1-.3.17,1.25,1.25,0,0,1-.4.06,1.49,1.49,0,0,1-.87-.28l.27-.52a1.08,1.08,0,0,0,.29.19.68.68,0,0,0,.28.06.33.33,0,0,0,.23-.07.22.22,0,0,0,.08-.16.22.22,0,0,0,0-.1A.21.21,0,0,0,19.43,7L19.31,7l-.18-.06-.24-.09a.77.77,0,0,1-.21-.13.58.58,0,0,1-.15-.2.69.69,0,0,1-.06-.3.88.88,0,0,1,.06-.33.74.74,0,0,1,.17-.26A.77.77,0,0,1,19,5.45a1,1,0,0,1,.35-.06,1.55,1.55,0,0,1,.38.05,1.67,1.67,0,0,1,.38.15Z" transform="translate(-2 -5.39)"/><path d="M22,6h-.76v.41H22V7h-.72v.43H22v.54H20.6V5.46H22Z" transform="translate(-2 -5.39)"/></svg>