<svg id="Layer_1" data-name="Layer 1" xmlns="http://www.w3.org/2000/svg" viewBox="0 0 18 18"><title>facet</title><g id="EUXICONS"><g id="facet_selector" data-name="facet selector"><path id="Combined-Shape" d="M17.58,11.82v-4A4.82,4.82,0,0,0,8,7.77h2.52a2.34,2.34,0,1,1,4.68,0v4H11.91a.81.81,0,0,1-.09.45,2.6,2.6,0,0,1-1,1.62H21V11.82Zm-11.07.45c0-.18-.09-.27-.09-.45H3v2.07H7.41A2.65,2.65,0,0,1,6.51,12.27ZM11.82,18a2.82,2.82,0,0,1-3.15,2.25A2.67,2.67,0,0,1,6.42,18,3.29,3.29,0,0,1,6.78,16H5.43v5H18.66V16H11.55A3.26,3.26,0,0,1,11.82,18ZM9.21,12.9a1.07,1.07,0,0,0,1.08-.9c.18-.81-.63-1.8-1.08-2.61-.36.72-1.26,1.8-1.08,2.61A1.07,1.07,0,0,0,9.21,12.9ZM8.13,17.67a1.08,1.08,0,0,0,1.17.9,1.16,1.16,0,0,0,.9-.9c.18-.81-.63-1.8-1.08-2.61C8.76,15.87,8,17,8.13,17.67Z" transform="translate(-3 -3)"/></g></g></svg>