<svg id="Layer_1" data-name="Layer 1" xmlns="http://www.w3.org/2000/svg" viewBox="0 0 16 15.98"><defs><style>.cls-1{fill:none;stroke:#ea1313;stroke-miterlimit:10;stroke-width:0.05px;}</style></defs><title>shower</title><path class="cls-1" d="M16.6,10.61" transform="translate(-4 -4.02)"/><path class="cls-1" d="M7.63,10.61" transform="translate(-4 -4.02)"/><path d="M14.83,4H5.3v1.6h3V6.89H4v1.6H14.27V6.89H9.9V5.62h5a3.48,3.48,0,0,1,3.47,3.44V20H20V9.05A5.11,5.11,0,0,0,14.83,4Z" transform="translate(-4 -4.02)"/><path d="M4,12.73a1.11,1.11,0,0,0,1.28,1,1.19,1.19,0,0,0,1-1c.24-.88-.72-2-1.12-2.8C4.82,10.73,3.86,11.85,4,12.73Z" transform="translate(-4 -4.02)"/><path d="M4,18.23a1.11,1.11,0,0,0,1.28,1,1.19,1.19,0,0,0,1-1c.32-.88-.64-2-1-2.8C4.83,16.23,3.87,17.35,4,18.23Z" transform="translate(-4 -4.02)"/><path d="M12,12.73a1.11,1.11,0,0,0,1.28,1,1.19,1.19,0,0,0,1-1c.24-.88-.72-2-1.12-2.8-.4.8-1.28,1.92-1.12,2.8Z" transform="translate(-4 -4.02)"/><path d="M12.12,18.23a1.11,1.11,0,0,0,1.28,1,1.19,1.19,0,0,0,1-1c.24-.88-.72-2-1.12-2.8C12.84,16.23,12,17.35,12.12,18.23Z" transform="translate(-4 -4.02)"/><path d="M8,15.6a1.11,1.11,0,0,0,1.28,1,1.19,1.19,0,0,0,1-1c.24-.88-.72-2-1.12-2.8C8.73,13.61,7.77,14.73,8,15.6Z" transform="translate(-4 -4.02)"/></svg>