<svg id="Layer_2" data-name="Layer 2" xmlns="http://www.w3.org/2000/svg" viewBox="0 0 24 24"><defs><style>.cls-1{fill:none;}</style></defs><title>finance_card</title><path d="M20.42,5.5h-11A1.59,1.59,0,0,0,7.87,6.82a4.25,4.25,0,0,0-1.29.7l-4.41,3.4a.46.46,0,0,0-.09.63.43.43,0,0,0,.35.18.42.42,0,0,0,.26-.09l4.41-3.4a3.62,3.62,0,0,1,.73-.45v5.09a.46.46,0,0,0-.18.6.43.43,0,0,0,.59.2,50,50,0,0,1,5.05-2.39.61.61,0,0,1,.71.36,1.15,1.15,0,0,1,0,1.11c-.13.15-1.26,1.24-2.54,2.31-.57.47-2.48,2-3.2,2H2.44a.45.45,0,0,0,0,.9H8.29A1.74,1.74,0,0,0,9,17.82a1.54,1.54,0,0,0,2.43.17,1.54,1.54,0,0,0,2.29,0,1.55,1.55,0,0,0,1.14.51,1.6,1.6,0,0,0,1.58-1.63v-.8h4A1.6,1.6,0,0,0,22,14.44V7.13A1.6,1.6,0,0,0,20.42,5.5ZM10.29,17.6a.69.69,0,0,1-.47-.19A14.24,14.24,0,0,0,11,16.6v.27A.72.72,0,0,1,10.29,17.6Zm2.29,0a.72.72,0,0,1-.7-.73v-.8h1.4v.8A.72.72,0,0,1,12.58,17.6Zm3-.73a.7.7,0,1,1-1.4,0v-.8h1.4Zm5.57-2.43a.72.72,0,0,1-.7.73H12.74c1-.85,1.78-1.63,1.93-1.8a2,2,0,0,0,.1-2.15,1.49,1.49,0,0,0-1.63-.82,35.87,35.87,0,0,0-4.43,2V9.67H21.13Zm0-6.48H8.71V7.17h0v0a.72.72,0,0,1,.7-.73h11a.72.72,0,0,1,.7.73Z" transform="translate(0 0)"/><rect class="cls-1" width="24" height="24"/></svg>