<svg id="Layer_3" data-name="Layer 3" xmlns="http://www.w3.org/2000/svg" viewBox="0 0 20 20"><title>fuel-rewards-filled-1</title><path d="M11.3,8.6V8.2h-.6v.4A1.25,1.25,0,0,0,9.6,9a1.16,1.16,0,0,0-.4,1,2.35,2.35,0,0,0,.2.8,2.18,2.18,0,0,0,.4.5c.2.2.5.3.9.6.2.2.3.2.4.4a1.48,1.48,0,0,1,.1.7c0,.1,0,.1-.1.2a.35.35,0,0,1-.2.1c-.1,0-.2,0-.2-.1s-.1-.3-.1-.7v-.4H9.2v.3a2,2,0,0,0,.4,1.3,1.88,1.88,0,0,0,.9.4v.6h.6v-.5a1.63,1.63,0,0,0,1.1-.5,1.25,1.25,0,0,0,.2-1.3,1.72,1.72,0,0,0-.1-.8.85.85,0,0,0-.3-.5,2.49,2.49,0,0,0-.7-.5,6.12,6.12,0,0,1-.8-.5,1,1,0,0,1-.1-.4.37.37,0,0,1,.1-.3c.1,0,.1-.1.2-.1s.2,0,.2.1.1.2.1.5v.2h1.5V9.9a1.4,1.4,0,0,0-.3-.9C12.1,8.8,11.7,8.7,11.3,8.6Z" transform="translate(-2 -2)"/><path d="M12,2A10,10,0,1,0,22,12,10,10,0,0,0,12,2Zm5.9,13.5a1.6,1.6,0,0,1-3.2,0V12.4h-.9v4.7H7.6V7.2A1.22,1.22,0,0,1,8.8,6h3.9a1.22,1.22,0,0,1,1.2,1.2v4.4h.6a1.22,1.22,0,0,1,1.2,1.2v2.8a.53.53,0,0,0,.6.6.65.65,0,0,0,.6-.6V11.1c-.2,0-.4.1-.6.1a1.58,1.58,0,0,1-1.6-1.6,1.61,1.61,0,0,1,1-1.4L14.4,7l.7-.7,2.3,2.3a1.59,1.59,0,0,1,.5,1Z" transform="translate(-2 -2)"/><path d="M16.3,9.1a.53.53,0,0,0-.6.6.6.6,0,1,0,.6-.6Z" transform="translate(-2 -2)"/></svg>