<svg id="Layer_1" data-name="Layer 1" xmlns="http://www.w3.org/2000/svg" viewBox="0 0 17 19"><title>fuel-rewards</title><path d="M19.32,7.44,15.52,3.57l-1.14,1,2.18,2.17A2.66,2.66,0,0,0,15,10.18a2.54,2.54,0,0,0,2.37,1.7,4,4,0,0,0,1-.19v7.56a1,1,0,0,1-2.09,0V14.53a2.1,2.1,0,0,0-2.09-2.08h-1V5.08A2.1,2.1,0,0,0,11.16,3H5.09A2.1,2.1,0,0,0,3,5.08V21.91H13.34V14.06h1.52v5.29A2.63,2.63,0,0,0,17.42,22,2.57,2.57,0,0,0,20,19.35v-10A2.24,2.24,0,0,0,19.32,7.44ZM10.39,18.73a3.31,3.31,0,0,1-1.83.63V20H7.47v-.66a3.48,3.48,0,0,1-1.66-.52,1.73,1.73,0,0,1-.71-1.58v-.33H7.47v.41a2.81,2.81,0,0,0,.07.85q.07.16.35.16a.49.49,0,0,0,.36-.11.46.46,0,0,0,.12-.34,2.12,2.12,0,0,0-.11-.81,1.52,1.52,0,0,0-.76-.53Q6.42,16.06,6,15.83a2.11,2.11,0,0,1-.67-.64,1.61,1.61,0,0,1-.28-.93,1.38,1.38,0,0,1,.6-1.19,3.63,3.63,0,0,1,1.8-.53V12H8.56v.54a3.13,3.13,0,0,1,1.64.52,1.4,1.4,0,0,1,.54,1.17q0,.1,0,.32H8.36v-.28a1.33,1.33,0,0,0-.08-.58q-.08-.14-.35-.14a.42.42,0,0,0-.33.12.51.51,0,0,0-.11.36.64.64,0,0,0,.22.56A9.39,9.39,0,0,0,9,15.2a10.31,10.31,0,0,1,1.23.59,1.71,1.71,0,0,1,.55.58,1.81,1.81,0,0,1,.23.94A1.75,1.75,0,0,1,10.39,18.73Zm.86-8.36H5.09V5.08h6.17Zm6.26,0a1,1,0,1,1,1-1A1.05,1.05,0,0,1,17.52,10.37Z" transform="translate(-3 -3)"/></svg>