<svg id="Layer_1" data-name="Layer 1" xmlns="http://www.w3.org/2000/svg" viewBox="0 0 17 19"><title>fuel-tank</title><g id="EUXICONS"><g id="fuel"><path id="Shape" d="M19.32,7.44h0L15.52,3.57l-1.14,1,2.18,2.17A2.66,2.66,0,0,0,15,10.18a2.54,2.54,0,0,0,2.37,1.7,4,4,0,0,0,1-.19v7.56a1,1,0,0,1-2.09,0h0V14.53a2.1,2.1,0,0,0-2.09-2.08h-1V5.08A2.1,2.1,0,0,0,11.16,3H5.09A2.1,2.1,0,0,0,3,5.08V21.91H13.34V14.06h1.52v5.29A2.63,2.63,0,0,0,17.42,22,2.57,2.57,0,0,0,20,19.35v-10A2.24,2.24,0,0,0,19.32,7.44Zm-8.06,2.93H5.09V5.08h6.17v5.29Zm6.26,0a1,1,0,1,1,1-1,1.05,1.05,0,0,1-1,1Z" transform="translate(-3 -3)"/></g></g></svg>