<svg id="Layer_1" data-name="Layer 1" xmlns="http://www.w3.org/2000/svg" viewBox="0 0 16.96 19.02"><title>ev-station</title><g id="EUXICONS"><g id="ev_station" data-name="ev station"><path id="Shape" d="M19.32,7.52h0L15.53,3.64l-1.14,1,2.18,2.18a2.66,2.66,0,0,0-1.51,3.41A2.53,2.53,0,0,0,17.43,12a4,4,0,0,0,1-.19v7.57a1,1,0,1,1-2.08,0h0V14.62a2.1,2.1,0,0,0-2.08-2.08h-1V5.16a2.1,2.1,0,0,0-2.08-2.08H5.12A2.1,2.1,0,0,0,3,5.16V22H13.36V14.15h1.51v5.3a2.63,2.63,0,0,0,2.56,2.65A2.57,2.57,0,0,0,20,19.45v-10A2.25,2.25,0,0,0,19.32,7.52Zm-1.89,2.93a1,1,0,1,1,1-1,1.05,1.05,0,0,1-1,1ZM7.2,18.88V14.15H5.12L9.29,6.29v5.3h2.08Z" transform="translate(-3.04 -3.08)"/></g></g></svg>