<svg id="Layer_3" data-name="Layer 3" xmlns="http://www.w3.org/2000/svg" viewBox="0 0 20 20"><title>fuel-rewards-1</title><path d="M12,2A10,10,0,1,0,22,12,10,10,0,0,0,12,2Zm0,18a8,8,0,1,1,8-8A8,8,0,0,1,12,20Z" transform="translate(-2 -2)"/><path d="M17.4,8.6,15.1,6.3l-.7.7,1.3,1.2a1.61,1.61,0,0,0-1,1.4,1.58,1.58,0,0,0,1.6,1.6c.2,0,.4-.1.6-.1v4.5a.65.65,0,0,1-.6.6.53.53,0,0,1-.6-.6V12.8a1.22,1.22,0,0,0-1.2-1.2h-.6V7.2A1.22,1.22,0,0,0,12.7,6H8.8A1.22,1.22,0,0,0,7.6,7.2v9.9h6.2V12.4h.9v3.1a1.6,1.6,0,1,0,3.2,0V9.6A1.59,1.59,0,0,0,17.4,8.6Zm-5.2,5.1a1.63,1.63,0,0,1-1.1.5v.5h-.6v-.6a1.88,1.88,0,0,1-.9-.4,2,2,0,0,1-.4-1.3v-.3h1.4v.4c0,.4,0,.6.1.7s.1.1.2.1a.35.35,0,0,0,.2-.1c.1-.1.1-.1.1-.2a1.48,1.48,0,0,0-.1-.7c-.1-.2-.2-.2-.4-.4-.4-.3-.7-.4-.9-.6a2.18,2.18,0,0,1-.4-.5,2.35,2.35,0,0,1-.2-.8,1.16,1.16,0,0,1,.4-1,1.25,1.25,0,0,1,1.1-.4V8.2h.6v.4c.4.1.8.2.9.4a1.4,1.4,0,0,1,.3.9v.2H11V9.9c0-.3,0-.4-.1-.5s-.1-.1-.2-.1-.1.1-.2.1a.37.37,0,0,0-.1.3,1,1,0,0,0,.1.4,6.13,6.13,0,0,0,.8.5,2.49,2.49,0,0,1,.7.5.85.85,0,0,1,.3.5,1.72,1.72,0,0,1,.1.8A1.25,1.25,0,0,1,12.2,13.7Zm4.1-3.4a.58.58,0,0,1-.6-.6.53.53,0,0,1,.6-.6.6.6,0,0,1,0,1.2Z" transform="translate(-2 -2)"/></svg>