<svg xmlns="http://www.w3.org/2000/svg" viewBox="0 0 24.01 24.01"><defs><style>.cls-1{fill:none;stroke:#000;stroke-miterlimit:10;stroke-width:0.01px;}</style></defs><title>get-it-installed</title><g id="Icon_Grid" data-name="Icon Grid"><path d="M18,2a2,2,0,0,1,2,2V20a2,2,0,0,1-2,2H6a2,2,0,0,1-2-2V4A2,2,0,0,1,6,2H18m0,0H6A2,2,0,0,0,4,4V20a2,2,0,0,0,2,2H18a2,2,0,0,0,2-2V4a2,2,0,0,0-2-2Z" transform="translate(0 0)"/><path d="M20,4a2,2,0,0,1,2,2V18a2,2,0,0,1-2,2H4a2,2,0,0,1-2-2V6A2,2,0,0,1,4,4H20m0,0H4A2,2,0,0,0,2,6V18a2,2,0,0,0,2,2H20a2,2,0,0,0,2-2V6a2,2,0,0,0-2-2Z" transform="translate(0 0)"/><path d="M19,3a2,2,0,0,1,2,2V19a2,2,0,0,1-2,2H5a2,2,0,0,1-2-2V5A2,2,0,0,1,5,3H19m0,0H5A2,2,0,0,0,3,5V19a2,2,0,0,0,2,2H19a2,2,0,0,0,2-2V5a2,2,0,0,0-2-2Z" transform="translate(0 0)"/><path d="M12,2A10,10,0,1,1,2,12,10,10,0,0,1,12,2m0,0A10,10,0,1,0,22,12,10,10,0,0,0,12,2Z" transform="translate(0 0)"/><path d="M12,7a5,5,0,1,1-5,5,5,5,0,0,1,5-5m0,0a5,5,0,1,0,5,5,5,5,0,0,0-5-5Z" transform="translate(0 0)"/><line class="cls-1" y1="24" x2="24"/><line class="cls-1" x2="24" y2="24"/></g><g id="Layer_1" data-name="Layer 1"><g id="EUXICONS"><g id="get_it_installed" data-name="get it installed"><path id="Combined-Shape" d="M6,7.25H7.2v2.1l2.4-.9L22,13.05v-1.4L9.7,7.05h0l-1.1.4V6h-4V9L2,10v1.4l4-1.5V7.25Zm-2.4,7.5a1.85,1.85,0,0,0,1.2-.5,3.55,3.55,0,0,0,.2-1H3.6v.5h.6a.56.56,0,0,1-.6.5h0a.71.71,0,0,1-.7-.8h0a.77.77,0,0,1,.7-.8h0a.68.68,0,0,1,.6.4l.7-.3A1.56,1.56,0,0,0,3.6,12a1.3,1.3,0,0,0-1.5,1.2v.2a1.37,1.37,0,0,0,1.4,1.4Zm3.3-2.1v-.6H5.3v2.6H6.9V14H6.1v-.5h.8v-.6H6.1v-.4h.8Zm1.6,2v-2.1h.6V12h-2v.6h.6v2.1Zm2.1-2.6h.7v2.6h-.7Zm2.3,2.6v-2.1h.6V12H11.6v.6h.6v2.1Zm-10.7.6h.7v2.6H2.2Zm3.3,1.6h0l-1.3-1.6H3.4v2.6h.7v-1.6h0l1.3,1.6h.7v-2.6H5.5Zm2.4-.6H7.7a.32.32,0,0,1-.3-.3c0-.2.2-.2.3-.2s.3.1.5.2l.3-.5a2.92,2.92,0,0,0-.9-.2,1,1,0,0,0-1,.8v.1c0,.5.3.6.8.7.2,0,.4.1.4.3a.32.32,0,0,1-.3.3.71.71,0,0,1-.6-.3l-.3.6a1.69,1.69,0,0,0,1,.3,2.35,2.35,0,0,0,.8-.2.91.91,0,0,0,.3-.7,1,1,0,0,0-.8-.9m.8-.4h.6V18H10v-2.1h.6v-.6h-2v.6Zm3-.6-1.1,2.6h.8l.2-.5h1l.2.5h.8l-1.1-2.6Zm.1,1.7.3-.8h0l.3.8Zm2.7-1.7h-.7v2.6h1.6v-.6h-.9Zm1.9,0h-.7v2.6h1.6v-.6h-.8v-2Zm1.1,2.6h1.6v-.6h-.9v-.5H19v-.6h-.8v-.4H19v-.6H17.4l.1,2.7Zm3-2.6h-1v2.6h1a1.32,1.32,0,0,0,1.3-1.3,1.21,1.21,0,0,0-1.3-1.3h0m-.1,2.1h-.2v-1.5h.2a.68.68,0,0,1,.7.7.85.85,0,0,1-.7.8h0" transform="translate(0 0)"/></g></g></g></svg>