<svg id="Layer_1" data-name="Layer 1" xmlns="http://www.w3.org/2000/svg" viewBox="0 0 18 17.09"><title>card-gift</title><g id="EUXICONS"><g id="gift_card" data-name="gift card"><path id="Shape" d="M19.2,7.5h-2a2.67,2.67,0,0,0-4.77-2.34L12,5.7l-.45-.63a2.72,2.72,0,0,0-3.69-.72A2.58,2.58,0,0,0,6.78,7.5h-2A1.81,1.81,0,0,0,3,9.3H3v9.9A1.81,1.81,0,0,0,4.8,21H19.2A1.81,1.81,0,0,0,21,19.2h0V9.3a1.81,1.81,0,0,0-1.8-1.8ZM14.7,5.7a.85.85,0,0,1,.9.9.9.9,0,1,1-1.8,0,.85.85,0,0,1,.9-.9Zm-5.4,0a.85.85,0,0,1,.9.9.85.85,0,0,1-.9.9.85.85,0,0,1-.9-.9h0a.9.9,0,0,1,.9-.9Zm9.9,13.5H4.8V17.4H19.2Zm0-4.5H4.8V9.3H9.39L7.5,11.82,8.94,12.9,11.1,10,12,8.76,12.9,10l2.16,2.88,1.44-1.08L14.61,9.3H19.2Z" transform="translate(-3 -3.91)"/></g></g></svg>