<svg id="Layer_3" data-name="Layer 3" xmlns="http://www.w3.org/2000/svg" viewBox="0 0 20 20"><title>gift-card-1</title><path d="M16.2,8.7H15.1a.9.9,0,0,0,.1-.5,1.58,1.58,0,0,0-1.6-1.6,1.43,1.43,0,0,0-1.3.7l-.3.5-.3-.4a1.56,1.56,0,0,0-1.3-.7A1.58,1.58,0,0,0,8.8,8.3a4.33,4.33,0,0,0,.1.5H7.8a1,1,0,0,0-1.1,1v5.7a1,1,0,0,0,1.1,1h8.4a1,1,0,0,0,1.1-1V9.8A1.11,1.11,0,0,0,16.2,8.7Zm-2.6-1a.54.54,0,0,1,.5.5.47.47,0,0,1-.5.5.54.54,0,0,1-.5-.5A.47.47,0,0,1,13.6,7.7Zm-3.2,0a.54.54,0,0,1,.5.5.47.47,0,0,1-.5.5.54.54,0,0,1-.5-.5A.47.47,0,0,1,10.4,7.7ZM7.8,9.8h2.7L9.4,11.2l.9.6,1.2-1.7.5-.6.5.7,1.2,1.7.9-.6L13.5,9.9h2.7V13H7.8Zm0,5.6v-1h8.4v1Z" transform="translate(-2 -2)"/><path d="M12,2A10,10,0,1,0,22,12,10,10,0,0,0,12,2Zm0,18a8,8,0,1,1,8-8A8,8,0,0,1,12,20Z" transform="translate(-2 -2)"/></svg>