<svg xmlns="http://www.w3.org/2000/svg" viewBox="0 0 24.01 24.01"><defs><style>.cls-1{fill:none;stroke:#000;stroke-miterlimit:10;stroke-width:0.01px;}</style></defs><title>heart</title><g id="Icon_Grid" data-name="Icon Grid"><path d="M18,2a2,2,0,0,1,2,2V20a2,2,0,0,1-2,2H6a2,2,0,0,1-2-2V4A2,2,0,0,1,6,2H18m0,0H6A2,2,0,0,0,4,4V20a2,2,0,0,0,2,2H18a2,2,0,0,0,2-2V4a2,2,0,0,0-2-2Z" transform="translate(0 0)"/><path d="M20,4a2,2,0,0,1,2,2V18a2,2,0,0,1-2,2H4a2,2,0,0,1-2-2V6A2,2,0,0,1,4,4H20m0,0H4A2,2,0,0,0,2,6V18a2,2,0,0,0,2,2H20a2,2,0,0,0,2-2V6a2,2,0,0,0-2-2Z" transform="translate(0 0)"/><path d="M19,3a2,2,0,0,1,2,2V19a2,2,0,0,1-2,2H5a2,2,0,0,1-2-2V5A2,2,0,0,1,5,3H19m0,0H5A2,2,0,0,0,3,5V19a2,2,0,0,0,2,2H19a2,2,0,0,0,2-2V5a2,2,0,0,0-2-2Z" transform="translate(0 0)"/><path d="M12,2A10,10,0,1,1,2,12,10,10,0,0,1,12,2m0,0A10,10,0,1,0,22,12,10,10,0,0,0,12,2Z" transform="translate(0 0)"/><path d="M12,7a5,5,0,1,1-5,5,5,5,0,0,1,5-5m0,0a5,5,0,1,0,5,5,5,5,0,0,0-5-5Z" transform="translate(0 0)"/><line class="cls-1" y1="24" x2="24"/><line class="cls-1" x2="24" y2="24"/></g><g id="Layer_3" data-name="Layer 3"><g id="EUXICONS"><g id="heart"><path id="like" d="M12,6.18S10.6,3,7.4,3C3.9,3,2,6.18,2,9.25,2,14.44,12,21,12,21S22,14.54,22,9.25C22,6.07,20.1,3,16.7,3A5.19,5.19,0,0,0,12,6.18Z" transform="translate(0 0)"/></g></g></g></svg>