<svg id="Layer_3" data-name="Layer 3" xmlns="http://www.w3.org/2000/svg" viewBox="0 0 20 20"><title>heat-map</title><path d="M10.8,12,9.1,9.87s1.6-1.6,2.6-2.5a2.8,2.8,0,0,1,3.8-.2,1.84,1.84,0,0,1-.6,2.7c-1.8,1.1-2.3.6-4.1,2.1Z" transform="translate(-2 -2)"/><path d="M12.8,12.47c-1.5,1.1-1.7,1.9-3.2,2.9l1.3,2.4c1.5-.8,2.1-1,3.2-1.6,1.4-.7,2-2.4,1.4-3.4a1.78,1.78,0,0,0-2.7-.3Z" transform="translate(-2 -2)"/><path d="M10.2,12.37l-1.7-1.9s-1.1,1.1-.3,2,2-.1,2-.1Z" transform="translate(-2 -2)"/><path d="M8,17.77c.6,1.1,2,.4,2,.4L8.8,16a1.53,1.53,0,0,0-.8,1.8Z" transform="translate(-2 -2)"/><path d="M12,2A10,10,0,1,0,22,12,10,10,0,0,0,12,2Zm0,18a8,8,0,1,1,8-8A8,8,0,0,1,12,20Z" transform="translate(-2 -2)"/></svg>