<svg id="Layer_3" data-name="Layer 3" xmlns="http://www.w3.org/2000/svg" viewBox="0 0 20 20"><title>heat-map-filled</title><path d="M12,2A10,10,0,1,0,22,12,10,10,0,0,0,12,2ZM8.5,10.47l1.7,1.9s-1.2.9-2,.1S8.5,10.47,8.5,10.47ZM8,17.77A1.53,1.53,0,0,1,8.8,16l1.2,2.2S8.6,18.87,8,17.77Zm6.1-1.6c-1.1.6-1.7.8-3.2,1.6l-1.3-2.4c1.5-1,1.7-1.8,3.2-2.9a1.78,1.78,0,0,1,2.7.3C16.1,13.77,15.5,15.47,14.1,16.17Zm.8-6.3c-1.8,1.1-2.3.6-4.1,2.1L9.1,9.87s1.6-1.6,2.6-2.5a2.8,2.8,0,0,1,3.8-.2A1.84,1.84,0,0,1,14.9,9.87Z" transform="translate(-2 -2)"/></svg>