<?xml version="1.0" encoding="utf-8"?>
<!-- Generator: Adobe Illustrator 20.1.0, SVG Export Plug-In . SVG Version: 6.00 Build 0)  -->
<svg version="1.1" id="Layer_1" xmlns="http://www.w3.org/2000/svg" xmlns:xlink="http://www.w3.org/1999/xlink" x="0px" y="0px"
	 viewBox="0 0 24 24" style="enable-background:new 0 0 24 24;" xml:space="preserve">
<style type="text/css">
	.st0{fill:none;}
</style>
<title>holiday_light_2</title>
<g id="EUXICONS">
	<g id="holiday_light_c6">
		<path id="Combined-Shape" d="M12.1,17.1c3.9,0,6.1-3.9,5-7.2c-1.2-3.3-2.9-7.9-5-7.9s-3.5,4.3-5,7.9S8.2,17.1,12.1,17.1z M16,10.4
			c0.7,2.6-0.9,5.2-3.1,5.2c-0.3,0-0.6-0.1-0.8-0.1c1.7-0.6-0.1-12,0.6-12C13.4,3.4,15.3,7.8,16,10.4z M13.7,20.7h1.5
			c0.4,0,0.7-0.3,0.7-0.7c0,0,0,0,0,0v-3.5c-1.1,1-2.4,1.5-3.9,1.5c-1.5,0-2.9-0.6-4-1.6V20c0,0.4,0.3,0.7,0.7,0.7h1.5
			c0.3,0.9,1.3,1.5,2.2,1.2C13.1,21.8,13.6,21.3,13.7,20.7L13.7,20.7z"/>
	</g>
</g>
<rect x="0" class="st0" width="24" height="24"/>
</svg>
