<?xml version="1.0" encoding="utf-8"?>
<!-- Generator: Adobe Illustrator 20.1.0, SVG Export Plug-In . SVG Version: 6.00 Build 0)  -->
<svg version="1.1" id="Layer_1" xmlns="http://www.w3.org/2000/svg" xmlns:xlink="http://www.w3.org/1999/xlink" x="0px" y="0px"
	 viewBox="0 0 24 24" style="enable-background:new 0 0 24 24;" xml:space="preserve">
<style type="text/css">
	.st0{fill:none;}
</style>
<title>holiday_light_4</title>
<g id="EUXICONS">
	<g id="holiday_light_g12">
		<path id="Combined-Shape" d="M12,3.6c-2.2,0-3.9,1.7-3.9,3.9s1.7,3.9,3.9,3.9s3.9-1.7,3.9-3.9c0-0.8-0.3-1.6-0.7-2.3l0,0
			C14.5,4.2,13.3,3.6,12,3.6 M12,13c-3,0-5.5-2.5-5.5-5.5S9,2,12,2c3,0,5.5,2.5,5.5,5.5v0C17.5,10.5,15.1,13,12,13
			C12.1,13,12,13,12,13L12,13z M14,15.9h-3.9L10,16H9.9V16l-2.2,1.9V22h8.5v-4.1L14,15.9z"/>
	</g>
</g>
<rect x="0" class="st0" width="24" height="24"/>
</svg>
