<svg id="Layer_3" data-name="Layer 3" xmlns="http://www.w3.org/2000/svg" viewBox="0 0 20 14.9"><title>holiday-shipping</title><g id="EUXICONS"><g id="holiday_shipping" data-name="holiday shipping"><path id="Combined-Shape" d="M3.15,11.55v1.9h.7V15h-.7v2.5h1.3a2.88,2.88,0,0,1,3.2-2.3,2.54,2.54,0,0,1,2.2,2.2v.7h1.4v-6.6Zm15.5,0-.8-4.9H13v11.5h1.4v-.7a2.72,2.72,0,0,1,3.1-2.3,2.68,2.68,0,0,1,2.2,2H21V12Zm-1.7,4.7a1.6,1.6,0,1,0,1.6,1.6h0a1.58,1.58,0,0,0-1.6-1.6Zm-9.7,0a1.6,1.6,0,1,0,1.6,1.6h0a1.64,1.64,0,0,0-1.6-1.6ZM5,7.25l-.4-1.8L1,4.55l2.1,3Zm5.6,3-2-1.3,1.5-2.1h0L6,5.85l.5,2.6-2.6.4.9,1.4Z" transform="translate(-1.05 -4.55)"/></g></g></svg>