<?xml version="1.0" encoding="utf-8"?>
<!-- Generator: Adobe Illustrator 20.1.0, SVG Export Plug-In . SVG Version: 6.00 Build 0)  -->
<svg version="1.1" id="Layer_1" xmlns="http://www.w3.org/2000/svg" xmlns:xlink="http://www.w3.org/1999/xlink" x="0px" y="0px"
	 viewBox="0 0 24 24" style="enable-background:new 0 0 24 24;" xml:space="preserve">
<style type="text/css">
	.st0{fill:none;}
</style>
<title>holiday_light_1</title>
<g id="EUXICONS">
	<g id="holiday_light_speciality">
		<path id="Combined-Shape" d="M10.1,10.2h1.4v1.3L8,15l1,0.9l2.5-2.5v3h1.3v-2.9l2.4,2.4l0.9-0.9l-3.3-3.4v-1.4h1.5l3.5,3.4
			l0.5-0.5l0,0l0.5-0.5l-2.5-2.5h3.1V8.8h-3l2.4-2.4L18.2,6l0,0l-0.5-0.5l-3.4,3.4h-1.6V7.2l3.3-3.4l-0.5-0.5l0,0l-0.5-0.5l-2.4,2.4
			V2h-1.3v3.4L8.9,2.9L8,3.9l3.4,3.5v1.5H10L6.6,5.5L6.1,5.9l0,0L5.6,6.4l2.4,2.4H4.8v1.3h3.3l-2.5,2.5l0.5,0.5l0,0l0.5,0.5
			L10.1,10.2z M13.2,18.4h-2.1c-0.4,0-0.9-0.1-1.3-0.3V22h4.7v-3.9C14,18.3,13.6,18.4,13.2,18.4L13.2,18.4z"/>
	</g>
</g>
<rect x="0" class="st0" width="24" height="24"/>
</svg>
