<svg id="Layer_3" data-name="Layer 3" xmlns="http://www.w3.org/2000/svg" viewBox="0 0 24 24"><title>homedepot-logo</title><path d="M.6,19.68c-.24-.24-.24-.36-.6-.12V24H4.56c.12-.36.12-.36-.12-.6Z"/><path d="M23.16,3.12h0l.84,1V0H19.8l.84.84s.12.24,0,.36a.22.22,0,0,1-.36,0,2,2,0,0,0-2.16.12L17.76,1l1-1H0V18.72L1.68,17a.33.33,0,0,1,.48,0,.22.22,0,0,1,0,.36c-.12.36-.12.36.12.6l3.84,3.6c.24.24.24.36.6.12a.22.22,0,0,1,.36,0,.33.33,0,0,1,0,.48L5.28,24h6.84v-.12c0-.12,0-.24-.12-.24l-2-2a.42.42,0,0,0-.24-.12c-.12,0-.24.12-.24,0s0-.24.12-.24l1-1,3,3-1,.72H24V12.6l-1,1a.17.17,0,0,1-.24,0v-.24c.12-.24.12-.24-.12-.36l-2.52-2.52,1-1L23.64,12c.12.12.12.12.36.12V5.28l-1.08,1-.36-.36a2,2,0,0,0,.12-2.28c0-.12-.12-.36,0-.48ZM19.92,1.8c.24-.24.48.12.48.12l1.44,1.44s.36.24.12.48-.36.12-.48,0a1.14,1.14,0,0,0-1.08,0l-.48-.48a1.13,1.13,0,0,0-.12-1.08A.72.72,0,0,1,19.92,1.8ZM14.76,4a.33.33,0,0,1,.48,0,.22.22,0,0,1,0,.36c-.12.36-.12.36.12.6l3.72,3.72c.24.24.24.36.6.12a.22.22,0,0,1,.36,0,.33.33,0,0,1,0,.48l-2,2a.33.33,0,0,1-.48,0,.22.22,0,0,1,0-.36c.12-.36.12-.36-.12-.6L14,7.08l2.88,5.28-.24.24L10.8,9.72c-.12-.12-.24-.12-.48-.24s-.24-.12-.36,0-.24.24-.36.12,0-.48,0-.6l1.8-1.8,3,1.44L13,5.76Zm-.12,14c0-.12-.12-.12,0-.24s.24,0,.24.12l.84.84s.24.12.12.24-.12,0-.24,0-.48-.12-.6-.12l-.24-.24A.9.9,0,0,0,14.64,18Zm.36-.6h-.24a.92.92,0,0,0-1.2.12l-.24-.24.84-.84.84.84C15,17.16,15.12,17.28,15,17.4Zm-2.88-1.8h0L8.4,11.88a.59.59,0,0,0-.84-.12L7.2,11.4a3.46,3.46,0,0,1,4.92.6c1.32,1.44,1.92,3.36.6,4.92l-.36-.36A1.29,1.29,0,0,0,12.12,15.6Zm2-2.64h0l-2.4-2.4,1.56.72,1.2,1.2c1,.72,1.2,0,1.44.36s-.12.48-.12.6l-.84.84c-.12.12-.36.36-.6.12S14.88,13.92,14.16,13ZM11.4,4.68c0-.12-.12-.12,0-.24s.12-.12.24,0h0l.72.72L11.52,6l-.24-.24A.91.91,0,0,0,11.4,4.68ZM11,4.8H10.8a.9.9,0,0,0-.6-.12L10,4.44c.12-.24.12-.48-.12-.6,0-.12-.12-.12,0-.24s.24,0,.24.12l.84.72C11,4.56,11.16,4.68,11,4.8ZM9.6,2.4l.72.72a.17.17,0,0,1,0,.24c-.12.12-.12,0-.24,0a.92.92,0,0,0-1.2.12l-.12-.24Zm-2,2,1-1,2.76,2.76-.84,1a.17.17,0,0,1-.24,0V7.08c.12-.12,0-.24-.12-.36l-2-2c-.12-.12-.12-.12-.24,0H7.56A.17.17,0,0,1,7.56,4.44ZM6.12,5.76l1.08-1a.17.17,0,0,1,.24,0v.12c-.12.12,0,.24.12.36L9.48,7.2c.12.12.12.12.36.12H10a.17.17,0,0,1,0,.24L9,8.64a.17.17,0,0,1-.24,0V8.52c.12-.12.12-.24-.12-.36l-1-1-.24.36L7.2,7.32,7.56,7l-1-.84c-.12-.12-.12-.12-.24,0H6.12C6,6,6.12,5.76,6.12,5.76ZM4.8,7.2,5.88,6.12a.17.17,0,0,1,.24,0v.24c-.12.12-.12.12,0,.24L8,8.52c.24.24.24.24.36.12h.24a.17.17,0,0,1,0,.24L7.56,10a.17.17,0,0,1-.24,0V9.72c.12-.12,0-.12-.12-.24L5.28,7.56a.44.44,0,0,0-.36-.12H4.8C4.56,7.32,4.8,7.2,4.8,7.2Zm-.24.24.84.84c.12,0,.12.12,0,.24h0c-.12.12-.24,0-.36,0a1.14,1.14,0,0,0-.84-.24L4,8Zm-.72.72,2.4,2.4c.12.12.12.12.36.12h.24a.17.17,0,0,1,0,.24L5.64,12a.17.17,0,0,1-.24,0v-.24c.12-.12.12-.24-.12-.36L2.88,9ZM2.16,9.84l.48-.48.24.24a1.73,1.73,0,0,0,.24.84.23.23,0,0,1,0,.36c0,.12-.12.12-.24,0h0Zm7.56,9.72h0l-2,2a.33.33,0,0,1-.48,0,.22.22,0,0,1,0-.36c.12-.36.12-.36-.12-.6L5.4,19l-.6.6-.48-.36.6-.6L3.36,17c-.24-.24-.24-.36-.6-.12-.12,0-.36,0-.36-.12a.33.33,0,0,1,0-.48l2-1.92a.33.33,0,0,1,.48,0,.23.23,0,0,1,0,.36c-.12.36-.12.36.12.6l3.72,3.72c.24.24.24.36.6.12a.22.22,0,0,1,.36,0C10,19.32,9.72,19.56,9.72,19.56Zm-2.4-3h0C6,15.12,5.4,13.2,6.72,11.64l.48.48a.74.74,0,0,0,.12.84L11,16.68a.59.59,0,0,0,.84.12l.36.36C10.68,18.6,8.76,18,7.32,16.56ZM13.8,22.8l-.12.12h0l-.24-.24c.24-.24,0-.48-.12-.72l-1.8-1.56a.51.51,0,0,0-.72-.12L10.56,20c.72-.72,1.68-.72,2.76.24A1.67,1.67,0,0,1,13.8,22.8Zm1.32-1.32a.17.17,0,0,1-.24,0v-.24c.12-.12.12-.24-.12-.36l-2.16-2c-.12-.12-.12-.12-.36-.12H12a.17.17,0,0,1,0-.24l1.08-1.08,3,3Zm1.2-1.2L16.08,20a1.29,1.29,0,0,0,.12-1.32c0-.12-.12-.12,0-.24s.12-.12.24,0h0l.72.84Zm2.4-2.4h0l-1.08,1.2c-.12.12-.12.12-.24,0h0v-.24c.12-.24,0-.24-.12-.36l-2.16-2.16c-.12-.12-.12-.12-.36-.12h-.24a.17.17,0,0,1,0-.24l1.08-1.08,2.52,2.52c.12.12.12.12.36.12h.24C18.84,17.76,18.72,17.88,18.72,17.88Zm-.24-2.64h0L18.24,15a.76.76,0,0,1,0,.72,2.61,2.61,0,0,1-.6,1l-.24-.24c.24-.24,0-.48-.12-.6l-.6-.6c-.12-.24-.36-.36-.6-.12l-.24-.24a2.61,2.61,0,0,1,1-.6,1.15,1.15,0,0,1,1.2.36,1.81,1.81,0,0,1,.24-2.16l.24.24a.3.3,0,0,0,.12.48l2,2c.12.12.36.24.48.12l.24.24A2.18,2.18,0,0,1,18.48,15.24Zm1.68-4.32a1.36,1.36,0,0,0,.36,1,.22.22,0,0,1,0,.36c.12.12.36.24.48.36a2.06,2.06,0,0,1,.36,2.76l-.24-.24a.3.3,0,0,0-.12-.48l-2-2c-.12-.12-.36-.24-.48-.12l-.24-.24a1.68,1.68,0,0,1,1.8-.36l-.72-.6.6-.6Zm2.64-1h0c-.12.12-.24,0-.36,0a1.3,1.3,0,0,0-.84-.36l-.24-.24.6-.6,1,1A.37.37,0,0,1,22.8,10ZM22.68,6.6,20.76,8.52a.33.33,0,0,1-.48,0,.22.22,0,0,1,0-.36c.12-.36.12-.36-.12-.6L16.44,3.84c-.24-.24-.24-.36-.6-.12a.23.23,0,0,1-.36,0,.33.33,0,0,1,0-.48L17.4,1.32Z"/></svg>