<svg id="Layer_3" data-name="Layer 3" xmlns="http://www.w3.org/2000/svg" viewBox="0 0 20 20"><title>homedepot-online</title><polygon points="15.3 10.7 11.6 9.4 12.8 13.2 13.7 12.2 14.9 13.4 15.6 12.8 14.4 11.6 15.3 10.7"/><polygon points="11.6 11.9 6.2 11.9 6.2 6.1 13.8 6.1 13.8 9.4 14.9 9.7 14.9 5.2 5.3 5.2 5.3 12.9 11.9 12.9 11.6 11.9"/><rect x="6.7" y="13.9" width="6.1" height="1"/><path d="M12,2A10,10,0,1,0,22,12,10,10,0,0,0,12,2Zm0,18a8,8,0,1,1,8-8A8,8,0,0,1,12,20Z" transform="translate(-2 -2)"/></svg>