<svg id="Layer_3" data-name="Layer 3" xmlns="http://www.w3.org/2000/svg" viewBox="0 0 20.15 20"><title>insect</title><g id="EUXICONS"><g id="insects"><path id="Combined-Shape" d="M10.53,8.6l-1,.1-.8-3.4L5.43,2l-1,.9,3,3,.7,2.9-4,.6h0a2.64,2.64,0,0,0-2.2,2.8,2.58,2.58,0,0,0,2.8,2.3,2.93,2.93,0,0,0,1-.3,36.11,36.11,0,0,0,3.6-2.3L8,13.9l-4.4,4.4,1,.9,4.5-4.6.5-.6v1.3l-2.2,6.2,1.3.5,2-5.9a1.3,1.3,0,0,0,1.8.4,1.56,1.56,0,0,0,.6-.8l2.2,6.3,1.3-.4-2.1-6.2V14l.5.8,4.5,4.6,1-.9-4.4-4.4L15,12.3c1.4,1,2.9,1.8,3.2,2a2.56,2.56,0,1,0,2.6-4.4,1.69,1.69,0,0,0-1-.3h0l-4-.6.5-3,3-3-.9-1-3.3,3.3-.9,3.4-1.1-.2V6.3h-.6V3.2h-1.4V6.3h-.6Z" transform="translate(-1.92 -2)"/></g></g></svg>