<svg id="Layer_3" data-name="Layer 3" xmlns="http://www.w3.org/2000/svg" viewBox="0 0 20 20"><title>language</title><path d="M12,2A10,10,0,1,0,22,12,10,10,0,0,0,12,2Zm6.93,6H16a15.65,15.65,0,0,0-1.38-3.56A8,8,0,0,1,18.92,8ZM12,4a14.09,14.09,0,0,1,1.91,4H10.09A14.09,14.09,0,0,1,12,4ZM4.26,14a7.82,7.82,0,0,1,0-4H7.64a16.52,16.52,0,0,0-.14,2,16.52,16.52,0,0,0,.14,2Zm.82,2H8a15.65,15.65,0,0,0,1.38,3.56A8,8,0,0,1,5.08,16ZM8,8h-3A8,8,0,0,1,9.41,4.44,15.65,15.65,0,0,0,8,8Zm4,12a14.09,14.09,0,0,1-1.91-4h3.82A14.09,14.09,0,0,1,12,20Zm2.34-6H9.66a14.71,14.71,0,0,1-.16-2,14.58,14.58,0,0,1,.16-2h4.68a14.58,14.58,0,0,1,.16,2A14.71,14.71,0,0,1,14.34,14Zm.25,5.56A15.65,15.65,0,0,0,16,16h2.95A8,8,0,0,1,14.59,19.56ZM16.36,14a16.52,16.52,0,0,0,.14-2,16.52,16.52,0,0,0-.14-2h3.38a7.82,7.82,0,0,1,0,4Z" transform="translate(-2 -2)"/></svg>