<svg id="Layer_3" data-name="Layer 3" xmlns="http://www.w3.org/2000/svg" viewBox="0 0 14.91 20.1"><title>lock-filled</title><g id="EUXICONS"><g id="lock"><path id="Shape" d="M17.65,8.65h-.9V6.75A4.78,4.78,0,0,0,12,1.95a4.78,4.78,0,0,0-4.7,4.8v1.9h-1a1.82,1.82,0,0,0-1.8,1.9v9.6a1.88,1.88,0,0,0,1.8,1.9h11.3a1.82,1.82,0,0,0,1.8-1.9v-9.6a1.76,1.76,0,0,0-1.8-1.9ZM12,17.25a1.82,1.82,0,0,1-1.8-1.9,1.8,1.8,0,1,1,3.6,0A2,2,0,0,1,12,17.25Zm2.9-8.6H9.15V6.75a3,3,0,0,1,2.9-3,2.93,2.93,0,0,1,2.9,3v1.9Z" transform="translate(-4.55 -1.95)"/></g></g></svg>