<svg id="Layer_3" data-name="Layer 3" xmlns="http://www.w3.org/2000/svg" viewBox="0 0 14.91 20.1"><title>lock-opened-outlined</title><g id="EUXICONS"><g id="lock_open" data-name="lock open"><path id="Shape" d="M12,17.15a1.82,1.82,0,0,0,1.8-1.9,1.73,1.73,0,0,0-1.8-1.8,1.82,1.82,0,0,0-1.8,1.9A1.79,1.79,0,0,0,12,17.15Zm5.7-8.6h-.9V6.75A4.87,4.87,0,0,0,12,1.95a4.72,4.72,0,0,0-4.7,4.8h1.8a3,3,0,0,1,2.9-3,2.93,2.93,0,0,1,2.9,3v1.9H6.35a1.82,1.82,0,0,0-1.8,1.9v9.6a1.88,1.88,0,0,0,1.8,1.9h11.3a1.82,1.82,0,0,0,1.8-1.9v-9.6a1.82,1.82,0,0,0-1.7-2Zm0,11.5H6.35v-9.5h11.3l.1,9.5Z" transform="translate(-4.55 -1.95)"/></g></g></svg>