<svg id="Layer_1" data-name="Layer 1" xmlns="http://www.w3.org/2000/svg" viewBox="0 0 19 19"><title>loyalty</title><path d="M21.44,12.13,12.89,3.58A1.89,1.89,0,0,0,11.55,3H4.9A1.91,1.91,0,0,0,3,4.93v6.65a1.9,1.9,0,0,0,.56,1.35l8.55,8.55a1.89,1.89,0,0,0,1.34.55,1.86,1.86,0,0,0,1.34-.56l6.65-6.65A1.86,1.86,0,0,0,22,13.48,1.92,1.92,0,0,0,21.44,12.13ZM6.33,7.78A1.42,1.42,0,1,1,7.75,6.36,1.42,1.42,0,0,1,6.33,7.78Zm11.18,7.86-4.06,4.06L9.39,15.64a2.38,2.38,0,0,1,1.68-4.06,2.35,2.35,0,0,1,1.68.7l.69.68.69-.69a2.38,2.38,0,0,1,3.36,3.36Z" transform="translate(-3 -3.03)"/></svg>