<svg id="Layer_1" data-name="Layer 1" xmlns="http://www.w3.org/2000/svg" viewBox="0 0 16 16"><title>met_sku</title><path d="M5.42,7.36q0-.61-.09-1.7h0L6.59,9.94H8.12l1.2-4.27h0q0,1-.06,1.21c0,.17,0,.32,0,.45v2.6h1.47V4H8.62L7.41,8.22h0L6.14,4H4V9.94H5.42Z" transform="translate(-4 -4)"/><polygon points="10.95 4.63 9.03 4.63 9.03 3.51 10.8 3.51 10.8 2.22 9.03 2.22 9.03 1.29 10.95 1.29 10.95 0 7.42 0 7.42 5.94 10.95 5.94 10.95 4.63"/><polygon points="11.5 0 11.5 1.31 12.95 1.31 12.95 5.94 14.55 5.94 14.55 1.31 16 1.31 16 0 11.5 0"/><path d="M6.31,15a3.69,3.69,0,0,1,1.49.39l.51-1.28a4.77,4.77,0,0,0-1.95-.44,2.73,2.73,0,0,0-1.7.47A1.58,1.58,0,0,0,4,15.48a1.94,1.94,0,0,0,.15.79,1.62,1.62,0,0,0,.45.59,3.91,3.91,0,0,0,.9.53,8.86,8.86,0,0,1,.82.4.83.83,0,0,1,.22.19.37.37,0,0,1,.07.22.4.4,0,0,1-.17.33.92.92,0,0,1-.54.13A3.72,3.72,0,0,1,5,18.51a4.92,4.92,0,0,1-1-.38v1.48a3.83,3.83,0,0,0,.87.3,5.18,5.18,0,0,0,1,.09,3.09,3.09,0,0,0,1.28-.25A1.89,1.89,0,0,0,8,19.06a1.81,1.81,0,0,0,.29-1A1.67,1.67,0,0,0,8,17a2.81,2.81,0,0,0-1.1-.77,7,7,0,0,1-1-.52.41.41,0,0,1-.19-.32.34.34,0,0,1,.15-.28A.78.78,0,0,1,6.31,15Z" transform="translate(-4 -4)"/><path d="M12.39,13.77,11.1,15.65a7.25,7.25,0,0,0-.51.79V13.77H8.92v6.15h1.67V17.86l.49-.29,1.22,2.35h1.88l-1.91-3.39,1.94-2.76Z" transform="translate(-4 -4)"/><path d="M18.34,17.37a1.56,1.56,0,0,1-.23,1,1.05,1.05,0,0,1-1.46,0,1.48,1.48,0,0,1-.24-.95V13.77H14.74V17.5a2.43,2.43,0,0,0,.68,1.85,2.69,2.69,0,0,0,1.93.64,2.72,2.72,0,0,0,2-.66A2.49,2.49,0,0,0,20,17.47v-3.7H18.34Z" transform="translate(-4 -4)"/><rect x="0.01" y="6.97" width="1.99" height="2.03"/><rect x="3" y="6.97" width="2" height="2.03"/><rect x="6" y="6.97" width="2" height="2.03"/><rect x="9" y="6.97" width="7" height="2.03"/></svg>