<svg id="Layer_3" data-name="Layer 3" xmlns="http://www.w3.org/2000/svg" viewBox="0 0 18 20"><title>microphone-off</title><g id="EUXICONS"><g id="mic_off" data-name="mic off"><path id="Shape" d="M19,11.38H17.31a5.88,5.88,0,0,1-.45,2.18l1.26,1.33A7.77,7.77,0,0,0,19,11.38Zm-4,.19V5.13A3.08,3.08,0,0,0,12,2,3.09,3.09,0,0,0,8.94,5.13v.19l6,6.26ZM4.26,3,3,4.37l6,6.35v.76a3,3,0,0,0,3,3.13h0a1.46,1.46,0,0,0,.63-.09l1.62,1.71a5,5,0,0,1-2.34.57A5.33,5.33,0,0,1,6.6,11.48H5a7.28,7.28,0,0,0,6,7.11V22h2V18.59a5.86,5.86,0,0,0,2.52-.95L19.74,22,21,20.67Z" transform="translate(-3 -2)"/></g></g></svg>