<svg id="Layer_3" data-name="Layer 3" xmlns="http://www.w3.org/2000/svg" viewBox="0 0 15.1 19.9"><title>phone-lock</title><g id="EUXICONS"><g id="phone_lock" data-name="phone lock"><path id="Shape" d="M18.3,2H9.5a1.79,1.79,0,0,0-1.8,1.8v2.7H9.5V4.75h8.8v14.5H9.5v-1.8H7.7v2.7A1.79,1.79,0,0,0,9.5,22h8.8a1.79,1.79,0,0,0,1.8-1.8V3.85A1.79,1.79,0,0,0,18.3,2Zm-7.2,9.1V9.75a2.51,2.51,0,0,0-2.5-2.3,2.44,2.44,0,0,0-2.5,2.3v1.4A1.18,1.18,0,0,0,5,12.25v3.2a1.28,1.28,0,0,0,1.1,1.2H11a1.11,1.11,0,0,0,1.1-1.1v-3.2A1.06,1.06,0,0,0,11.1,11.15Zm-1.1,0H7.3V9.75a1.24,1.24,0,0,1,1.3-1.2h0a1.24,1.24,0,0,1,1.3,1.2v1.4Z" transform="translate(-5 -2.05)"/></g></g></svg>