<svg id="Layer_3" data-name="Layer 3" xmlns="http://www.w3.org/2000/svg" viewBox="0 0 16.44 19.9"><title>mobile-settings</title><g id="EUXICONS"><g id="settings_mobile" data-name="settings mobile"><path id="Shape" d="M11.6,12.55v-.9l1-.7a.37.37,0,0,0,.1-.3L11.8,9c-.1-.1-.2-.2-.3-.1l-1.2.4a2.18,2.18,0,0,0-.8-.5l-.1-1.2c0-.1-.1-.2-.3-.2H7.3c-.1,0-.2.1-.3.2l-.2,1.2a3.51,3.51,0,0,0-.8.5l-1.2-.5a.37.37,0,0,0-.3.1l-.9,1.5c-.1.1,0,.2.1.3l1,.7v.9l-1,.7c-.1.1-.1.2-.1.4L4.5,15c.1.1.2.2.3.1l1.2-.4c.3.2.5.3.8.5l.2,1.2c-.1.1.1.2.2.2H9c.1,0,.2-.1.3-.2l.2-1.2a2.18,2.18,0,0,0,.8-.5l1.2.5a.37.37,0,0,0,.3-.1l.9-1.5c.1-.1,0-.2-.1-.3l-1-.8Zm-3.4,1.3A1.8,1.8,0,1,1,10,12h0A1.79,1.79,0,0,1,8.2,13.85ZM18.2,2H9.1a1.79,1.79,0,0,0-1.8,1.8v2.7H9.1V4.75h9.1v14.5H9.1v-1.8H7.3v2.7A1.79,1.79,0,0,0,9.1,22h9.1a1.79,1.79,0,0,0,1.8-1.8V3.85A1.79,1.79,0,0,0,18.2,2Z" transform="translate(-3.56 -2.05)"/></g></g></svg>