<svg id="Layer_1" data-name="Layer 1" xmlns="http://www.w3.org/2000/svg" viewBox="0 0 12.1 20"><defs><style>.cls-1{fill:none;stroke:#ea1313;stroke-miterlimit:10;stroke-width:0.05px;}</style></defs><title>text_2_confirm_success</title><path class="cls-1" d="M17.75,10.25" transform="translate(-5.95 -2)"/><path class="cls-1" d="M6.53,10.25" transform="translate(-5.95 -2)"/><path d="M15.35,2H8.55A2.67,2.67,0,0,0,6,4.7V19.2A2.69,2.69,0,0,0,8.55,22h6.9A2.67,2.67,0,0,0,18,19.3V4.7A2.82,2.82,0,0,0,15.35,2Zm-1.7,18.2h-3.4v-.9h3.4Zm2.8-2.7h-9V4.7h9Z" transform="translate(-5.95 -2)"/><polygon points="9.24 7.99 8.25 7 5.23 10.01 4.05 8.83 3.05 9.82 5.23 12 9.24 7.99"/></svg>