<svg id="Layer_1" data-name="Layer 1" xmlns="http://www.w3.org/2000/svg" viewBox="0 0 20 19"><title>new_lower_price</title><path d="M16.92,7.79h-.38V9h.27a.73.73,0,0,0,.52-.18.67.67,0,0,0,.19-.51Q17.53,7.79,16.92,7.79Z" transform="translate(-2 -3)"/><path d="M19,16,21,5a2,2,0,0,0-2-2H5A2,2,0,0,0,3,5L5,16H2l10,6,10-6Zm-8.33-4H8.76l-2-3.79h0q.07.9.07,1.37V12H5.54V6.61h1.9l2,3.74h0Q9.37,9.54,9.37,9V6.61h1.3Zm4.13,0H11.27V6.61h1.46v4.21H14.8ZM17,10.21h-.41V12H15.09V6.61H17a2.28,2.28,0,0,1,1.53.45A1.59,1.59,0,0,1,19,8.33a1.8,1.8,0,0,1-.53,1.39A2.14,2.14,0,0,1,17,10.21Z" transform="translate(-2 -3)"/></svg>