<svg id="Layer_1" data-name="Layer 1" xmlns="http://www.w3.org/2000/svg" viewBox="0 0 19.82 19.9"><title>note-list-check</title><path d="M5.8,11.14V13h7.35a4.94,4.94,0,0,1,.78-1.81Z" transform="translate(-2.18 -2.1)"/><path d="M5.8,14.76v1.81h8a4.92,4.92,0,0,1-.67-1.81Z" transform="translate(-2.18 -2.1)"/><path d="M16.66,18.75v1.44H4V5.71H5.8V8.43h9V5.71h1.81V9.2A4.93,4.93,0,0,1,18,9a4.89,4.89,0,0,1,.49,0V5.71A1.81,1.81,0,0,0,16.66,3.9H12.88a2.7,2.7,0,0,0-5.1,0H4A1.81,1.81,0,0,0,2.18,5.71V20.19A1.81,1.81,0,0,0,4,22H16.66a1.81,1.81,0,0,0,1.81-1.81V18.9A4.89,4.89,0,0,1,18,19,4.93,4.93,0,0,1,16.66,18.75ZM10.32,3.9a.9.9,0,1,1-.9.9A.91.91,0,0,1,10.32,3.9Z" transform="translate(-2.18 -2.1)"/><path d="M18,10a4,4,0,1,0,4,4A4,4,0,0,0,18,10Zm-.52,5.6-.26-.27L15.88,14l.54-.55,1.08,1.08,2.16-2.16.55.54Z" transform="translate(-2.18 -2.1)"/></svg>