<svg id="Layer_3" data-name="Layer 3" xmlns="http://www.w3.org/2000/svg" viewBox="0 0 20 12.8"><title>people</title><g id="EUXICONS"><g id="person_group" data-name="person group"><path id="Shape" d="M15.6,11.1a2.7,2.7,0,1,0-2.7-2.7,2.69,2.69,0,0,0,2.7,2.7Zm-7.2,0a2.69,2.69,0,0,0,2.7-2.7A2.78,2.78,0,0,0,8.4,5.6,2.86,2.86,0,0,0,5.6,8.4a2.71,2.71,0,0,0,2.8,2.7Zm0,1.8C6.2,12.9,2,14,2,16.1v2.3H14.7V16.1C14.7,14,10.5,12.9,8.4,12.9Zm7.2,0h-.9A3.65,3.65,0,0,1,16.5,16v2.3H22V16C22,14,17.8,12.9,15.6,12.9Z" transform="translate(-2 -5.6)"/></g></g></svg>