<svg id="Layer_3" data-name="Layer 3" xmlns="http://www.w3.org/2000/svg" viewBox="0 0 20 18.52"><title>piggy-bank</title><path d="M22,11.5C22,7.36,17.75,4,12.5,4A11.7,11.7,0,0,0,9,4.52L7,3H4L5.88,6.13A7.57,7.57,0,0,0,3.55,9H2.46a10,10,0,0,0-.26,5H3.55a7.58,7.58,0,0,0,2.32,2.86l-1.15,2A10,10,0,0,0,9,21.52l1.56-2.71a11.84,11.84,0,0,0,2,.18,11.93,11.93,0,0,0,2.15-.2L16,21.16A10,10,0,0,0,20,18l-.72-1.25A6.78,6.78,0,0,0,22,11.5ZM7,10A1,1,0,1,1,8,9,1,1,0,0,1,7,10Zm8.32,4.38a3.14,3.14,0,0,1-1.83.7v.7H12.4V15a3.27,3.27,0,0,1-1.66-.57A2,2,0,0,1,10,12.75v-.36H12.4v.45a3.36,3.36,0,0,0,.07.93q.07.18.35.18a.47.47,0,0,0,.36-.13.53.53,0,0,0,.12-.37,2.53,2.53,0,0,0-.11-.89,1.54,1.54,0,0,0-.76-.58q-1.08-.53-1.47-.78a2.21,2.21,0,0,1-.67-.7,1.89,1.89,0,0,1-.28-1,1.56,1.56,0,0,1,.6-1.3,3.41,3.41,0,0,1,1.8-.58V7h1.09v.59a3,3,0,0,1,1.64.57,1.6,1.6,0,0,1,.54,1.28q0,.11,0,.35H13.29V9.49a1.59,1.59,0,0,0-.08-.64.36.36,0,0,0-.35-.15.4.4,0,0,0-.33.13.6.6,0,0,0-.11.39.73.73,0,0,0,.22.61,9.08,9.08,0,0,0,1.28.68,10,10,0,0,1,1.23.65,1.81,1.81,0,0,1,.55.64,2.13,2.13,0,0,1,.23,1A2,2,0,0,1,15.32,14.38Z" transform="translate(-2 -3)"/></svg>