<svg id="Layer_3" data-name="Layer 3" xmlns="http://www.w3.org/2000/svg" viewBox="0 0 20 20"><title>pro-direct-filled</title><path d="M12,2A10,10,0,1,0,22,12,10,10,0,0,0,12,2Zm.95,4,1,2.32L10.2,9.84l-1-2.32ZM5.58,8.28a1.62,1.62,0,0,1-.23-.68c0-.34.46-.57.8-.57l2.17.8,1.94,4.79A4.22,4.22,0,0,0,9,13.19L7.29,9Zm6.67,10.51a2.85,2.85,0,1,1,1.56-3.72A2.85,2.85,0,0,1,12.25,18.79Zm-1-6.4-.8-1.83,5.82-2.4L17.91,12,14,13.65A3.65,3.65,0,0,0,11.29,12.39Zm7.42,1.94-3.88,1.6a3.38,3.38,0,0,0-.23-1.14c0-.11-.11-.11-.11-.23l3.65-1.48a.66.66,0,0,1,.8.23A.74.74,0,0,1,18.71,14.33Z" transform="translate(-2 -2)"/></svg>