<svg id="Layer_1" data-name="Layer 1" xmlns="http://www.w3.org/2000/svg" viewBox="0 0 20 20"><title>proxtra-outlined</title><path d="M12,2A10,10,0,1,0,22,12,10,10,0,0,0,12,2Zm0,18a8,8,0,0,1-7.89-6.72L6.83,16l.74-.74-.94-.94.44-.44a1.42,1.42,0,0,0,.48-1,1.32,1.32,0,0,0-.45-1,1.32,1.32,0,0,0-1-.45,1.42,1.42,0,0,0-1,.48L4.08,13.08A8,8,0,0,1,19.51,9.27L16.26,7.81l-.77.77,1.57,3.5-1.65-.22a1.06,1.06,0,0,0,.18-.7,1.13,1.13,0,0,0-.35-.65,1.3,1.3,0,0,0-.38-.27,1.05,1.05,0,0,0-.89,0,1.52,1.52,0,0,0-.46.33l-1.1,1.1,2.72,2.72.71-.71-1-1L16.5,13l.67-.67h0l.75-.75-.31-.63,1-1,.63.31.43-.43A8,8,0,0,1,12,20ZM5.33,13l.24-.24q.41-.41.76-.05t-.05.76L6,13.73ZM17.9,9.58l-.63.63L16.68,9Zm-3.21,2a.73.73,0,0,1-.23.41l-.13.13-.67-.67.13-.13a.73.73,0,0,1,.41-.23.47.47,0,0,1,.5.5Z" transform="translate(-2 -2)"/><path d="M9.86,13,8.77,11.87l1.79.39.92-.92-2.05-.27a1.11,1.11,0,0,0,.19-.73,1.18,1.18,0,0,0-.37-.68,1.37,1.37,0,0,0-.4-.28,1.1,1.1,0,0,0-.93,0,1.59,1.59,0,0,0-.48.34L6.29,10.87,9.13,13.7ZM8.44,11.26l-.14.14-.7-.7.14-.14a.76.76,0,0,1,.42-.24.49.49,0,0,1,.52.52A.76.76,0,0,1,8.44,11.26Z" transform="translate(-2 -2)"/><path d="M9.94,10.05a2.07,2.07,0,0,0,2.32.45,2.55,2.55,0,0,0,1.27-1.27,2.11,2.11,0,0,0,.18-.82,2.05,2.05,0,0,0-.15-.8,2.19,2.19,0,0,0-1.18-1.18,2,2,0,0,0-.8-.15,2.11,2.11,0,0,0-.82.18A2.55,2.55,0,0,0,9.5,7.73a2.07,2.07,0,0,0,.45,2.32Zm.54-2a1.18,1.18,0,0,1,.61-.61,1.14,1.14,0,0,1,.42-.09,1.1,1.1,0,0,1,.42.07,1.12,1.12,0,0,1,.62.62,1.1,1.1,0,0,1,.07.42,1.13,1.13,0,0,1-.09.42,1.18,1.18,0,0,1-.61.61,1.1,1.1,0,0,1-.84,0,1.12,1.12,0,0,1-.62-.62,1.1,1.1,0,0,1,0-.84Z" transform="translate(-2 -2)"/><polygon points="10.93 10.33 10.33 9.74 8.53 11.54 7.69 12.38 7.94 13.53 6.87 13.2 6 14.07 8.11 14.49 8.5 17 9.35 16.15 9.1 14.62 10.53 14.96 11.39 14.11 8.94 13.67 8.6 11.74 9.06 12.2 9.64 11.62 11.76 13.74 12.47 13.03 10.35 10.91 10.93 10.33"/></svg>