<svg id="Layer_3" data-name="Layer 3" xmlns="http://www.w3.org/2000/svg" viewBox="0 0 18.97 18"><title>pro-direct</title><rect x="8.69" y="4.92" width="5.53" height="3.48" transform="translate(-4.51 0.84) rotate(-22.27)"/><path d="M5.52,8.11,7.9,14a5.84,5.84,0,0,1,1.74-.79L6.95,6.52l-3-1.11c-.47,0-1.11.32-1.11.79a2.25,2.25,0,0,0,.32.95Z" transform="translate(-2.84 -4)"/><path d="M20.54,13.8l-5.06,2.05c0,.16.16.16.16.32A4.68,4.68,0,0,1,16,17.75l5.37-2.21a1,1,0,0,0,.32-1.42A.91.91,0,0,0,20.54,13.8Z" transform="translate(-2.84 -4)"/><path d="M10,10.32l1.11,2.53a5,5,0,0,1,3.79,1.74l5.37-2.21L18,7Z" transform="translate(-2.84 -4)"/><circle cx="10.89" cy="18.05" r="3.95" transform="translate(-8.86 1.47) rotate(-22.27)"/></svg>