<svg xmlns="http://www.w3.org/2000/svg" viewBox="0 0 24.01 24.01"><defs><style>.cls-1{fill:none;stroke:#000;stroke-miterlimit:10;stroke-width:0.01px;}</style></defs><title>pro-direct-outline</title><g id="Icon_Grid" data-name="Icon Grid"><path d="M18,2a2,2,0,0,1,2,2V20a2,2,0,0,1-2,2H6a2,2,0,0,1-2-2V4A2,2,0,0,1,6,2H18m0,0H6A2,2,0,0,0,4,4V20a2,2,0,0,0,2,2H18a2,2,0,0,0,2-2V4a2,2,0,0,0-2-2Z" transform="translate(0 0)"/><path d="M20,4a2,2,0,0,1,2,2V18a2,2,0,0,1-2,2H4a2,2,0,0,1-2-2V6A2,2,0,0,1,4,4H20m0,0H4A2,2,0,0,0,2,6V18a2,2,0,0,0,2,2H20a2,2,0,0,0,2-2V6a2,2,0,0,0-2-2Z" transform="translate(0 0)"/><path d="M19,3a2,2,0,0,1,2,2V19a2,2,0,0,1-2,2H5a2,2,0,0,1-2-2V5A2,2,0,0,1,5,3H19m0,0H5A2,2,0,0,0,3,5V19a2,2,0,0,0,2,2H19a2,2,0,0,0,2-2V5a2,2,0,0,0-2-2Z" transform="translate(0 0)"/><path d="M12,2A10,10,0,1,1,2,12,10,10,0,0,1,12,2m0,0A10,10,0,1,0,22,12,10,10,0,0,0,12,2Z" transform="translate(0 0)"/><path d="M12,7a5,5,0,1,1-5,5,5,5,0,0,1,5-5m0,0a5,5,0,1,0,5,5,5,5,0,0,0-5-5Z" transform="translate(0 0)"/><line class="cls-1" y1="24" x2="24"/><line class="cls-1" x2="24" y2="24"/></g><g id="Layer_3" data-name="Layer 3"><path d="M12,2A10,10,0,1,0,22,12,10,10,0,0,0,12,2Zm.1,18A8,8,0,1,1,20,12,7.94,7.94,0,0,1,12.1,20Z" transform="translate(0 0)"/><rect x="9.9" y="7.61" width="3.69" height="2.32" transform="translate(-2.44 5.11) rotate(-22.27)"/><path d="M7.79,9.74l1.58,3.9a3.9,3.9,0,0,1,1.16-.53L8.74,8.68l-2-.74c-.32,0-.74.21-.74.53a1.5,1.5,0,0,0,.21.63Z" transform="translate(0 0)"/><path d="M17.8,13.53,14.43,14.9c0,.11.11.11.11.21a3.12,3.12,0,0,1,.21,1.05l3.58-1.48a.69.69,0,0,0,.21-.95A.6.6,0,0,0,17.8,13.53Z" transform="translate(0 0)"/><path d="M10.74,11.21l.74,1.69A3.37,3.37,0,0,1,14,14.06l3.58-1.48L16.12,9Z" transform="translate(0 0)"/><circle cx="11.37" cy="16.36" r="2.63" transform="translate(-5.35 5.53) rotate(-22.27)"/></g></svg>