<svg id="Layer_1" data-name="Layer 1" xmlns="http://www.w3.org/2000/svg" viewBox="0 0 20 20"><title>nav_pro-referral_rev</title><path d="M12,2A10,10,0,1,0,22,12,10,10,0,0,0,12,2Zm2.61,4.27,2,2.06-2.06,2L11.22,6.9Zm1.75,9.26-1.29,1.26a.49.49,0,0,1-.69,0l-2.44-2.5L9.39,16.77a.49.49,0,0,1-.69,0L7.44,15.46a.49.49,0,0,1,0-.69L10,12.29l-.51-.52A2.53,2.53,0,0,1,6.6,8.24L8.38,10,9.64,8.75,7.86,7a2.54,2.54,0,0,1,3.55,2.77l.57.59.63-.62,1.95,2-.63.62,2.44,2.5A.49.49,0,0,1,16.36,15.53Zm.21-3.14L15.23,11l2.06-2,1.34,1.37Z" transform="translate(-2 -2)"/></svg>