<svg id="Layer_1" data-name="Layer 1" xmlns="http://www.w3.org/2000/svg" viewBox="0 0 20 20"><title>nav_pro-referral</title><path d="M12,2A10,10,0,1,0,22,12,10,10,0,0,0,12,2Zm0,18a8,8,0,1,1,8-8A8,8,0,0,1,12,20Z" transform="translate(-2 -2)"/><polygon points="14.62 6.33 12.61 4.27 9.22 4.9 12.56 8.34 14.62 6.33"/><rect x="15.49" y="9.75" width="2.87" height="1.92" transform="translate(-4.67 12.85) rotate(-44.26)"/><path d="M13.94,12.34l.63-.62-1.95-2-.63.62-.57-.59A2.54,2.54,0,0,0,7.86,7L9.64,8.75,8.38,10,6.6,8.24a2.53,2.53,0,0,0,2.87,3.53l.51.52L7.44,14.77a.49.49,0,0,0,0,.69L8.7,16.75a.49.49,0,0,0,.69,0l2.55-2.48,2.44,2.5a.49.49,0,0,0,.69,0l1.29-1.26a.49.49,0,0,0,0-.69Z" transform="translate(-2 -2)"/></svg>