<svg id="Layer_1" data-name="Layer 1" xmlns="http://www.w3.org/2000/svg" viewBox="0 0 20 15.44"><title>pumpkin</title><g id="EUXICONS"><g id="holiday_light_pumpkin" data-name="holiday light pumpkin"><path id="Combined-Shape" d="M13.3,12.7l-1.4-2.4-1.3,2.4Zm3.6-2.6a1.5,1.5,0,1,0-.3,2.1,1.43,1.43,0,0,0,.6-1.2,1.61,1.61,0,0,0-.3-.9M8.2,9.5A1.5,1.5,0,1,0,9.7,11a1.61,1.61,0,0,0-.3-.9A1.43,1.43,0,0,0,8.2,9.5Zm8.9,3.7a13.08,13.08,0,0,1-4.1.6v.6H11v-.6a13.08,13.08,0,0,1-4.1-.6,5.81,5.81,0,0,0,1.6,1.9l.4-.8,1.7.9-.4.7a6.53,6.53,0,0,0,3.4,0l-.4-.8.9-.4.9-.4.4.9a5.51,5.51,0,0,0,1.7-2m.7,4.8a.9.9,0,0,1-.5.1,1.88,1.88,0,0,1-.8-.2h-.1l-.2.1H16a1.48,1.48,0,0,1-.7.1,2.45,2.45,0,0,1-1.6-.6h0l-.3-.2v.1a1.75,1.75,0,0,1-2.3.6,1.7,1.7,0,0,1-.6-.6c-.1.1-.2.1-.2.2l-.1.1a2.66,2.66,0,0,1-1.9.4,1.42,1.42,0,0,1-.6-.2,1.61,1.61,0,0,1-.9.3H6.3c-1.8-.4-3.1-2.6-3.1-5.2,0-2.9,1.6-5.2,3.6-5.3h.3a2.35,2.35,0,0,1,.8.2H8a1.85,1.85,0,0,1,2.4.6,1.83,1.83,0,0,1,2.7-.4c.2.1.3.3.4.4v.1A2,2,0,0,1,16,7.9h0a1.85,1.85,0,0,1,.7-.2H17c2.1,0,3.7,2.4,3.7,5.3,0,2.4-1.2,4.5-2.9,5M17,6.2a2.77,2.77,0,0,0-.9.1,3.39,3.39,0,0,0-2.6.4c-.1-.1-.2-.1-.3-.2V4H10.8V6.4c-.1.1-.2.1-.3.2a5.26,5.26,0,0,0-1.7-.4,2.77,2.77,0,0,0-.9.1h0A2.77,2.77,0,0,0,7,6.2c-2.8,0-5,2.9-5,6.6s2.2,6.6,5,6.6a2.77,2.77,0,0,0,.9-.1h0a2.77,2.77,0,0,0,.9.1,3.29,3.29,0,0,0,1.7-.4,2.55,2.55,0,0,0,3-.1,3.74,3.74,0,0,0,1.8.5,2,2,0,0,0,.8-.1,2.77,2.77,0,0,0,.9.1c2.8,0,5-2.9,5-6.6s-2.2-6.6-5-6.6" transform="translate(-2 -4)"/></g></g></svg>