<svg id="Layer_1" data-name="Layer 1" xmlns="http://www.w3.org/2000/svg" viewBox="0 0 20 20"><title>qr_code</title><g id="EUXICONS"><g id="qr_code" data-name="qr code"><path id="Shape" d="M7.5,16.5v1.8H5.6V16.5Zm0-10.9V7.4H5.6V5.6Zm10.9,0V7.4H16.6V5.6ZM3.8,20.2H9.3V14.8H3.8Zm0-10.9H9.3V3.8H3.8Zm10.9,0h5.5V3.8H14.7Zm-3.6,3.6V22H2V12.9Zm7.3,7.3V22H16.6V20.2Zm3.6,0V22H20.2V20.2Zm0-7.3v5.5H16.5V16.6H14.7V22H12.9V12.9h5.5v1.8h1.8V12.9ZM11.1,2v9.1H2V2ZM22,2v9.1H12.9V2Z" transform="translate(-2 -2)"/></g></g></svg>