<svg id="Layer_3" data-name="Layer 3" xmlns="http://www.w3.org/2000/svg" viewBox="0 0 20 20"><title>quote-center-outlined</title><path d="M12,2A10,10,0,1,0,22,12,10,10,0,0,0,12,2Zm.1,18A8,8,0,1,1,20,12,7.94,7.94,0,0,1,12.1,20Z" transform="translate(-2 -2)"/><path d="M14,11.5A4.5,4.5,0,1,0,9.5,16c.1,0,.2,0,.3,0L11,17h3l-2-1.75A4.49,4.49,0,0,0,14,11.5Zm-3.63,2.34A2.71,2.71,0,0,1,10,14,2.32,2.32,0,0,1,9,14a2.61,2.61,0,0,1-.44-.13,2.5,2.5,0,1,1,1.78,0Z" transform="translate(-2 -2)"/><path d="M14.5,9a2.49,2.49,0,0,1,2,1l1.85-.82A4.4,4.4,0,0,0,13,7.27,5.52,5.52,0,0,1,14.4,9Z" transform="translate(-2 -2)"/><path d="M14.5,14h-.1A5.52,5.52,0,0,1,13,15.73a4.42,4.42,0,0,0,5.18-1.67l-2.06-.69A2.48,2.48,0,0,1,14.5,14Z" transform="translate(-2 -2)"/></svg>