<svg id="Layer_3" data-name="Layer 3" xmlns="http://www.w3.org/2000/svg" viewBox="0 0 20 20"><title>quote-center-filled</title><path d="M9.5,9a2.5,2.5,0,0,0-.91,4.82A2.61,2.61,0,0,0,9,14,2.32,2.32,0,0,0,10,14a2.71,2.71,0,0,0,.42-.12A2.5,2.5,0,0,0,9.5,9Z" transform="translate(-2 -2)"/><path d="M12,2A10,10,0,1,0,22,12,10,10,0,0,0,12,2ZM11,17,9.8,16c-.1,0-.2,0-.3,0A4.51,4.51,0,1,1,12,15.25L14,17Zm3.5-1A4.46,4.46,0,0,1,13,15.73,5.52,5.52,0,0,0,14.4,14h.1a2.48,2.48,0,0,0,1.63-.62l2.06.69A4.49,4.49,0,0,1,14.5,16Zm2-6a2.49,2.49,0,0,0-2-1h-.1A5.52,5.52,0,0,0,13,7.27a4.4,4.4,0,0,1,5.32,1.91Z" transform="translate(-2 -2)"/></svg>