<svg id="Layer_1" data-name="Layer 1" xmlns="http://www.w3.org/2000/svg" viewBox="0 0 16 20"><title>receipt</title><path d="M18,2H6A2,2,0,0,0,4,4V22l2-2,2,2,2-2,2,2,2-2,2,2,2-2,2,2V4A2,2,0,0,0,18,2ZM13.59,17a2,2,0,0,1-1.23.51V18h-.74v-.53a2.09,2.09,0,0,1-1.12-.42A1.51,1.51,0,0,1,10,15.78v-.27h1.6v.33a2.68,2.68,0,0,0,0,.68.22.22,0,0,0,.24.13.3.3,0,0,0,.24-.09.41.41,0,0,0,.08-.27,2,2,0,0,0-.08-.65,1.06,1.06,0,0,0-.51-.43,11.42,11.42,0,0,1-1-.57,1.57,1.57,0,0,1-.45-.52,1.48,1.48,0,0,1-.19-.75,1.19,1.19,0,0,1,.41-1A2.18,2.18,0,0,1,11.62,12v-.43h.74V12a1.89,1.89,0,0,1,1.11.42,1.22,1.22,0,0,1,.37.94q0,.08,0,.26h-1.6v-.23a1.26,1.26,0,0,0-.06-.47.24.24,0,0,0-.24-.11.26.26,0,0,0-.22.1.47.47,0,0,0-.07.29.56.56,0,0,0,.15.45,6,6,0,0,0,.86.5,6.57,6.57,0,0,1,.83.48,1.3,1.3,0,0,1,.37.47,1.69,1.69,0,0,1,.15.76A1.55,1.55,0,0,1,13.59,17ZM18,10H6V8H18Zm0-4H6V4H18Z" transform="translate(-4 -2)"/></svg>