<svg id="Layer_1" data-name="Layer 1" xmlns="http://www.w3.org/2000/svg" viewBox="0 0 20 18"><title>refund</title><path d="M12.53,16v-.63a3.36,3.36,0,0,0,1.85-.63A1.74,1.74,0,0,0,15,13.32a1.79,1.79,0,0,0-.23-.94,1.71,1.71,0,0,0-.56-.58A10.35,10.35,0,0,0,13,11.2a9.49,9.49,0,0,1-1.29-.62.63.63,0,0,1-.23-.56.51.51,0,0,1,.11-.36.43.43,0,0,1,.33-.12c.18,0,.3,0,.36.14a1.33,1.33,0,0,1,.08.58v.28h2.4c0-.14,0-.25,0-.32a1.39,1.39,0,0,0-.55-1.17,3.19,3.19,0,0,0-1.66-.52V8h-1.1v.54a3.7,3.7,0,0,0-1.82.53A1.37,1.37,0,0,0,9,10.25a1.6,1.6,0,0,0,.29.93,2.12,2.12,0,0,0,.68.64q.39.23,1.49.71a1.54,1.54,0,0,1,.77.53,2.1,2.1,0,0,1,.11.81.45.45,0,0,1-.12.34.5.5,0,0,1-.36.12c-.19,0-.31-.06-.36-.17a2.75,2.75,0,0,1-.07-.85v-.41H9v.33a1.72,1.72,0,0,0,.72,1.58,3.55,3.55,0,0,0,1.68.52V16Z" transform="translate(-1 -3)"/><path d="M12,3a9,9,0,0,0-9,9H1l3,2.83L7,12H5a7,7,0,1,1,7,7v2A9,9,0,0,0,12,3Z" transform="translate(-1 -3)"/></svg>