<svg id="Layer_1" data-name="Layer 1" xmlns="http://www.w3.org/2000/svg" viewBox="0 0 20 18"><title>register</title><path d="M20,4H4A2,2,0,0,0,2,6V16a2,2,0,0,0,2,2h6v2H8v2h8V20H14V18h6a2,2,0,0,0,2-2V6A2,2,0,0,0,20,4Zm0,12H4V6H20Z" transform="translate(-2 -4)"/><path d="M14.72,9.55H12.33V9.27a1.33,1.33,0,0,0-.08-.58.39.39,0,0,0-.36-.14.43.43,0,0,0-.33.12.51.51,0,0,0-.11.36.63.63,0,0,0,.23.56A9.55,9.55,0,0,0,13,10.2a10.24,10.24,0,0,1,1.24.59,1.72,1.72,0,0,1,.56.58,1.8,1.8,0,0,1,.23.94,1.75,1.75,0,0,1-.62,1.42,3.39,3.39,0,0,1-1.85.63V15h-1.1v-.66a3.54,3.54,0,0,1-1.68-.52A1.72,1.72,0,0,1,9,12.25v-.33h2.4v.41a2.79,2.79,0,0,0,.07.85c.05.11.17.17.36.17a.5.5,0,0,0,.36-.12.45.45,0,0,0,.12-.34,2.09,2.09,0,0,0-.11-.81q-.11-.24-.77-.53-1.1-.48-1.49-.71a2.12,2.12,0,0,1-.68-.64A1.6,1.6,0,0,1,9,9.25a1.37,1.37,0,0,1,.61-1.19,3.71,3.71,0,0,1,1.82-.53V7h1.1v.54a3.2,3.2,0,0,1,1.66.52,1.39,1.39,0,0,1,.55,1.17A2.88,2.88,0,0,1,14.72,9.55Z" transform="translate(-2 -4)"/></svg>