<svg id="Layer_1" data-name="Layer 1" xmlns="http://www.w3.org/2000/svg" viewBox="0 0 20 16"><title>returns</title><g id="EUXICONS"><g id="returns"><path id="Combined-Shape" d="M22,7.4,14.9,4,12,5.6,8.9,4,2,7.3,5.3,9.1,2.1,10.8,5.9,13v3.5L12,20l6.1-3.5V12.9l3.8-2.2-3-1.5Zm-9.3,7.9V12.8l2.6,1.4,1.2-.7v2l-3.8,2.2V15.3Zm-5.2.3V13.7l1,.6,2.8-1.5v5L7.5,15.6ZM5.4,10.8l1.8-1,3.3,1.8-2,1C8.6,12.7,5.4,10.8,5.4,10.8Zm.1-3.4L8.9,5.8l1.6.8L7.2,8.3Zm8-.8L15,5.8l3.5,1.7-1.6.8ZM8.7,9.1,12,7.4l3.4,1.8L12,10.9,8.7,9.1Zm4.7,2.6,3.5-1.8,1.7.9-3.3,2-1.9-1.1Z" transform="translate(-2 -4)"/></g></g></svg>