<svg xmlns="http://www.w3.org/2000/svg" viewBox="0 0 24.01 24.01"><defs><style>.cls-1{fill:none;stroke:#000;stroke-miterlimit:10;stroke-width:0.01px;}</style></defs><title>scan</title><g id="Icon_Grid" data-name="Icon Grid"><path d="M18,2a2,2,0,0,1,2,2V20a2,2,0,0,1-2,2H6a2,2,0,0,1-2-2V4A2,2,0,0,1,6,2H18m0,0H6A2,2,0,0,0,4,4V20a2,2,0,0,0,2,2H18a2,2,0,0,0,2-2V4a2,2,0,0,0-2-2Z" transform="translate(0 0)"/><path d="M20,4a2,2,0,0,1,2,2V18a2,2,0,0,1-2,2H4a2,2,0,0,1-2-2V6A2,2,0,0,1,4,4H20m0,0H4A2,2,0,0,0,2,6V18a2,2,0,0,0,2,2H20a2,2,0,0,0,2-2V6a2,2,0,0,0-2-2Z" transform="translate(0 0)"/><path d="M19,3a2,2,0,0,1,2,2V19a2,2,0,0,1-2,2H5a2,2,0,0,1-2-2V5A2,2,0,0,1,5,3H19m0,0H5A2,2,0,0,0,3,5V19a2,2,0,0,0,2,2H19a2,2,0,0,0,2-2V5a2,2,0,0,0-2-2Z" transform="translate(0 0)"/><path d="M12,2A10,10,0,1,1,2,12,10,10,0,0,1,12,2m0,0A10,10,0,1,0,22,12,10,10,0,0,0,12,2Z" transform="translate(0 0)"/><path d="M12,7a5,5,0,1,1-5,5,5,5,0,0,1,5-5m0,0a5,5,0,1,0,5,5,5,5,0,0,0-5-5Z" transform="translate(0 0)"/><line class="cls-1" y1="24" x2="24"/><line class="cls-1" x2="24" y2="24"/></g><g id="Layer_1" data-name="Layer 1"><polygon points="21.3 3 22 3 22 6.8 21.1 6.8 21.1 3.9 17.8 3.9 17.8 3 21.3 3"/><polygon points="22 21 22 17.2 21.1 17.2 21.1 20 17.8 20 17.8 21 22 21"/><polygon points="2.91 20 2.91 17.2 2.01 17.2 2.01 21 6.21 21 6.21 20.1 2.91 20.1 2.91 20"/><polygon points="2.9 3 2 3 2 6.8 2.9 6.8 2.9 3.9 6.2 3.9 6.2 3 2.9 3"/><rect x="4" y="5" width="2" height="14"/><rect x="14" y="5" width="2.11" height="14"/><rect x="8" y="5" width="5" height="14"/><rect x="18" y="5" width="2.09" height="14"/></g></svg>