<svg xmlns="http://www.w3.org/2000/svg" viewBox="0 0 24.01 24.01"><defs><style>.cls-1{fill:none;stroke:#000;stroke-miterlimit:10;stroke-width:0.01px;}</style></defs><title>search</title><g id="Icon_Grid" data-name="Icon Grid"><path d="M18,2a2,2,0,0,1,2,2V20a2,2,0,0,1-2,2H6a2,2,0,0,1-2-2V4A2,2,0,0,1,6,2H18m0,0H6A2,2,0,0,0,4,4V20a2,2,0,0,0,2,2H18a2,2,0,0,0,2-2V4a2,2,0,0,0-2-2Z" transform="translate(0 0)"/><path d="M20,4a2,2,0,0,1,2,2V18a2,2,0,0,1-2,2H4a2,2,0,0,1-2-2V6A2,2,0,0,1,4,4H20m0,0H4A2,2,0,0,0,2,6V18a2,2,0,0,0,2,2H20a2,2,0,0,0,2-2V6a2,2,0,0,0-2-2Z" transform="translate(0 0)"/><path d="M19,3a2,2,0,0,1,2,2V19a2,2,0,0,1-2,2H5a2,2,0,0,1-2-2V5A2,2,0,0,1,5,3H19m0,0H5A2,2,0,0,0,3,5V19a2,2,0,0,0,2,2H19a2,2,0,0,0,2-2V5a2,2,0,0,0-2-2Z" transform="translate(0 0)"/><path d="M12,2A10,10,0,1,1,2,12,10,10,0,0,1,12,2m0,0A10,10,0,1,0,22,12,10,10,0,0,0,12,2Z" transform="translate(0 0)"/><path d="M12,7a5,5,0,1,1-5,5,5,5,0,0,1,5-5m0,0a5,5,0,1,0,5,5,5,5,0,0,0-5-5Z" transform="translate(0 0)"/><line class="cls-1" y1="24" x2="24"/><line class="cls-1" x2="24" y2="24"/></g><g id="Layer_1" data-name="Layer 1"><g id="EUXICONS"><g id="search"><path id="Shape" d="M16.3,14.6h-.9l-.3-.3A7.45,7.45,0,0,0,3.8,4.6a7.54,7.54,0,0,0,.8,10.5,7.43,7.43,0,0,0,9.7,0l.3.3v.9L20.3,22,22,20.3l-5.7-5.7Zm-6.9,0a5.1,5.1,0,1,1,5.1-5.1h0a5,5,0,0,1-5.1,5.1Z" transform="translate(0 0)"/></g></g></g></svg>