<svg id="Layer_1" data-name="Layer 1" xmlns="http://www.w3.org/2000/svg" viewBox="0 0 20 20"><title>sentiment-dissatisfied</title><g id="EUXICONS"><g id="sentiment_dissatisfied" data-name="sentiment dissatisfied"><path id="Combined-Shape" d="M15.5,11A1.5,1.5,0,1,0,14,9.5h0A1.54,1.54,0,0,0,15.5,11Zm-7,0A1.5,1.5,0,1,0,7,9.5,1.54,1.54,0,0,0,8.5,11ZM12,2A10,10,0,1,0,22,12,10,10,0,0,0,12,2Zm0,18a8,8,0,1,1,8-8h0A8,8,0,0,1,12,20Zm0-6a5.43,5.43,0,0,0-5.1,3.5H8.6A3.92,3.92,0,0,1,14,16.1a3.16,3.16,0,0,1,1.4,1.4h1.7A5.43,5.43,0,0,0,12,14Z" transform="translate(-2 -2)"/></g></g></svg>