<svg id="Layer_1" data-name="Layer 1" xmlns="http://www.w3.org/2000/svg" viewBox="0 0 20 20"><title>sentiment_very_dissatisfied</title><g id="EUXICONS"><g id="sentiment_very_dissatisfied" data-name="sentiment very dissatisfied"><path id="Shape" d="M12,2A10,10,0,1,0,22,12,10,10,0,0,0,12,2Zm0,18a8,8,0,1,1,8-8h0A8,8,0,0,1,12,20ZM16.2,7.8,15.1,8.9,14,7.8l-1,1,1.1,1.1-1.1,1L14.1,12l1.1-1.1L16.3,12l1.1-1.1L16.3,9.8l1.1-1.1ZM7.8,12l1.1-1.1,1,1.1L11,10.9l-1.1-1L11,8.8l-1.1-1-1,1-1.1-1-1,1L7.9,9.9,6.8,11ZM12,14a5.43,5.43,0,0,0-5.1,3.5H17.1A5.43,5.43,0,0,0,12,14Z" transform="translate(-2 -2)"/></g></g></svg>