<svg id="Layer_1" data-name="Layer 1" xmlns="http://www.w3.org/2000/svg" viewBox="0 0 20 20"><title>sentiment_very_satisfied</title><g id="EUXICONS"><g id="sentiment_very_satisfied" data-name="sentiment very satisfied"><path id="Shape" d="M12,2A10,10,0,1,0,22,12,10,10,0,0,0,12,2Zm0,18a8,8,0,1,1,8-8h0A8,8,0,0,1,12,20ZM13,9.9,14.1,11l1.1-1.1L16.3,11l1.1-1.1L15.3,7.8Zm-4.1,0,1,1.1L11,9.9,8.9,7.8,6.8,9.9l1,1.1ZM12,17.5A5.43,5.43,0,0,0,17.1,14H6.9A5.43,5.43,0,0,0,12,17.5Z" transform="translate(-2 -2)"/></g></g></svg>