<svg id="Layer_1" data-name="Layer 1" xmlns="http://www.w3.org/2000/svg" viewBox="0 0 19.97 16"><defs><style>.cls-1{fill:#231f20;}</style></defs><title>self_credit</title><path class="cls-1" d="M11.14,6l4.71,4.33,6.15-4V6a2,2,0,0,0-2-2H4A2,2,0,0,0,2,6V9.14Z" transform="translate(-2.03 -4)"/><path class="cls-1" d="M15.67,13,10.73,8.46,2,11.45V18a2,2,0,0,0,2,2H20a2,2,0,0,0,2-2V8.85ZM8.49,17a3,3,0,0,1-1.54.48V18H6v-.49a3.19,3.19,0,0,1-1.4-.39A1.25,1.25,0,0,1,4,15.93v-.25H6V16a1.87,1.87,0,0,0,.06.63c0,.08.14.12.3.12a.45.45,0,0,0,.3-.09.32.32,0,0,0,.1-.25,1.43,1.43,0,0,0-.09-.61,1.28,1.28,0,0,0-.64-.4q-.91-.36-1.24-.53a1.7,1.7,0,0,1-.57-.48,1.12,1.12,0,0,1-.24-.7,1,1,0,0,1,.51-.89A3.33,3.33,0,0,1,6,12.4V12h.92v.4a2.86,2.86,0,0,1,1.38.39,1,1,0,0,1,.46.88,2.22,2.22,0,0,1,0,.24h-2V13.7a.91.91,0,0,0-.07-.44c0-.07-.15-.1-.3-.1a.38.38,0,0,0-.27.09.36.36,0,0,0-.09.27.45.45,0,0,0,.19.42,8.31,8.31,0,0,0,1.08.46,9.07,9.07,0,0,1,1,.45,1.35,1.35,0,0,1,.47.44A1.24,1.24,0,0,1,9,16,1.25,1.25,0,0,1,8.49,17Z" transform="translate(-2.03 -4)"/></svg>