<svg id="Layer_3" data-name="Layer 3" xmlns="http://www.w3.org/2000/svg" viewBox="0 0 20 20"><title>esvs-filled</title><path d="M12,2A10,10,0,1,0,22,12,10,10,0,0,0,12,2ZM9.9,18.1A1,1,0,0,1,8.8,17,1.1,1.1,0,0,1,11,17,1,1,0,0,1,9.9,18.1Zm5.2,0A1,1,0,0,1,14,17a1.1,1.1,0,1,1,1.1,1.1Zm2.1-8.8-1.9,3.4a.87.87,0,0,1-.9.6H10.5l-.5.9v.1a.1.1,0,0,0,.1.1h6.1v1.1H10a1.11,1.11,0,0,1-1.1-1.1,1.42,1.42,0,0,1,.2-.6l.7-1.2L7.9,8.7H6.8V7.6H8.5l.5,1h7.7a.56.56,0,0,1,.6.5A.31.31,0,0,1,17.2,9.3Z" transform="translate(-2 -2)"/></svg>