<svg id="Layer_1" data-name="Layer 1" xmlns="http://www.w3.org/2000/svg" viewBox="0 0 20 20"><title>add_cart</title><g id="EUXICONS"><g id="add_cart" data-name="add cart"><path id="Shape" d="M11.9,9.6h2V6.8h3V4.9h-3V2h-2V4.9h-3V6.8h3V9.6Zm-4,8.6a2,2,0,0,0-2,1.9,1.92,1.92,0,0,0,2,1.9,1.9,1.9,0,1,0,0-3.8Zm10,0a2,2,0,0,0-2,1.9,1.92,1.92,0,0,0,2,1.9,1.9,1.9,0,1,0,0-3.8Zm-9.8-3V15L9,13.5h7.4a1.82,1.82,0,0,0,1.7-1L22,5.8l-1.7-.9h0L19.2,6.8l-2.7,4.8h-7l-.1-.3L7,6.8,6.1,4.9,5.2,3H2V4.9H4l3.6,7.3L6.2,14.5a1.22,1.22,0,0,0-.3.9,1.92,1.92,0,0,0,2,1.9h12V15.4H8.3a.22.22,0,0,1-.2-.2Z" transform="translate(-2 -2)"/></g></g></svg>