<svg id="Layer_3" data-name="Layer 3" xmlns="http://www.w3.org/2000/svg" viewBox="0 0 20 20"><title>esvs</title><path d="M9.9,15.9A1.11,1.11,0,0,0,8.8,17a1,1,0,0,0,1.1,1.1A1,1,0,0,0,11,17,1.11,1.11,0,0,0,9.9,15.9Z" transform="translate(-2 -2)"/><path d="M16.7,8.6H9l-.5-1H6.8V8.7H7.9l1.9,3.9-.7,1.2a1.42,1.42,0,0,0-.2.6A1.11,1.11,0,0,0,10,15.5h6.2V14.4H10.1a.1.1,0,0,1-.1-.1v-.1l.5-.9h3.9a.87.87,0,0,0,.9-.6l1.9-3.4a.31.31,0,0,0,.1-.2A.56.56,0,0,0,16.7,8.6Z" transform="translate(-2 -2)"/><path d="M15.1,15.9A1.11,1.11,0,0,0,14,17a1,1,0,0,0,1.1,1.1,1.1,1.1,0,1,0,0-2.2Z" transform="translate(-2 -2)"/><path d="M12,2A10,10,0,1,0,22,12,10,10,0,0,0,12,2Zm0,18a8,8,0,1,1,8-8A8,8,0,0,1,12,20Z" transform="translate(-2 -2)"/></svg>