<svg xmlns="http://www.w3.org/2000/svg" viewBox="0 0 24.01 24.01"><defs><style>.cls-1{fill:none;stroke:#000;stroke-miterlimit:10;stroke-width:0.01px;}</style></defs><title>cart_reorder</title><g id="Icon_Grid" data-name="Icon Grid"><path d="M18,2a2,2,0,0,1,2,2V20a2,2,0,0,1-2,2H6a2,2,0,0,1-2-2V4A2,2,0,0,1,6,2H18m0,0H6A2,2,0,0,0,4,4V20a2,2,0,0,0,2,2H18a2,2,0,0,0,2-2V4a2,2,0,0,0-2-2Z" transform="translate(0 0)"/><path d="M20,4a2,2,0,0,1,2,2V18a2,2,0,0,1-2,2H4a2,2,0,0,1-2-2V6A2,2,0,0,1,4,4H20m0,0H4A2,2,0,0,0,2,6V18a2,2,0,0,0,2,2H20a2,2,0,0,0,2-2V6a2,2,0,0,0-2-2Z" transform="translate(0 0)"/><path d="M19,3a2,2,0,0,1,2,2V19a2,2,0,0,1-2,2H5a2,2,0,0,1-2-2V5A2,2,0,0,1,5,3H19m0,0H5A2,2,0,0,0,3,5V19a2,2,0,0,0,2,2H19a2,2,0,0,0,2-2V5a2,2,0,0,0-2-2Z" transform="translate(0 0)"/><path d="M12,2A10,10,0,1,1,2,12,10,10,0,0,1,12,2m0,0A10,10,0,1,0,22,12,10,10,0,0,0,12,2Z" transform="translate(0 0)"/><path d="M12,7a5,5,0,1,1-5,5,5,5,0,0,1,5-5m0,0a5,5,0,1,0,5,5,5,5,0,0,0-5-5Z" transform="translate(0 0)"/><line class="cls-1" y1="24" x2="24"/><line class="cls-1" x2="24" y2="24"/></g><g id="Layer_1" data-name="Layer 1"><path d="M8.8,13.85a.9.9,0,0,0,.9.9h5.4v-.9H9.89a.11.11,0,0,1-.11-.11v-.05L10.2,13h3.35a.9.9,0,0,0,.79-.46l1.61-2.92A.44.44,0,0,0,16,9.35a.45.45,0,0,0-.45-.45H8.89L8.47,8H7v.9h.9l1.62,3.42-.61,1.1A.87.87,0,0,0,8.8,13.85Z" transform="translate(0 0)"/><circle cx="14.2" cy="16.1" r="0.9"/><circle cx="9.7" cy="16.1" r="0.9"/><path d="M12,3a9,9,0,0,0-9,9H1l3,2.83L7,12H5a7,7,0,1,1,7,7v2A9,9,0,0,0,12,3Z" transform="translate(0 0)"/></g></svg>