<svg id="Layer_1" data-name="Layer 1" xmlns="http://www.w3.org/2000/svg" viewBox="0 0 20 20"><defs><style>.cls-1{fill:none;stroke:#ea1313;stroke-miterlimit:10;stroke-width:0.05px;}</style></defs><title>star_circle_outline</title><path class="cls-1" d="M17.75,10.25" transform="translate(-2 -2)"/><path class="cls-1" d="M6.53,10.25" transform="translate(-2 -2)"/><g id="Icons"><g id="Icons_Rating_Star-Circle-Outline" data-name="Icons Rating Star-Circle-Outline"><path id="Combined-Shape" d="M12,14.8l3.5,2.1L14.6,13l3.1-2.6-4-.3L12,6.4,10.4,10l-4,.3,3,2.7-.9,3.9ZM12,2A10,10,0,1,0,22,12,10,10,0,0,0,12,2Zm0,18a8,8,0,1,1,8-8h0A8,8,0,0,1,12,20Z" transform="translate(-2 -2)"/></g></g></svg>