<svg id="Layer_1" data-name="Layer 1" xmlns="http://www.w3.org/2000/svg" viewBox="0 0 20 18"><title>store-menu</title><rect x="3" y="3" width="2" height="2"/><rect x="6" y="3" width="2" height="2"/><rect x="9" y="3" width="2" height="2"/><rect x="12" y="3" width="2" height="2"/><rect x="15" y="3" width="2" height="2"/><rect x="3" y="6" width="2" height="2"/><rect x="6" y="6" width="2" height="2"/><rect x="9" y="6" width="2" height="2"/><rect x="12" y="6" width="2" height="2"/><rect x="15" y="6" width="2" height="2"/><rect x="3.01" y="9.01" width="2" height="2"/><rect x="6.01" y="9.01" width="2" height="2"/><rect x="9.01" y="9.01" width="2" height="2"/><rect x="12.01" y="9.01" width="2" height="2"/><rect x="15.01" y="9.01" width="2" height="2"/><path d="M20,4H4A2,2,0,0,0,2,6V16a2,2,0,0,0,2,2h6v2H8v2h8V20H14V18h6a2,2,0,0,0,2-2V6A2,2,0,0,0,20,4Zm0,12H4V6H20Z" transform="translate(-2 -4)"/></svg>