<svg id="Layer_1" data-name="Layer 1" xmlns="http://www.w3.org/2000/svg" viewBox="0 0 20 20"><defs><style>.cls-1{fill:none;stroke:#ea1313;stroke-miterlimit:10;stroke-width:0.05px;}</style></defs><title>sunshine</title><path class="cls-1" d="M17.75,10.25" transform="translate(-2 -2)"/><path class="cls-1" d="M6.53,10.25" transform="translate(-2 -2)"/><g id="EUXICONS"><g id="sunshine"><path id="sun" d="M12,6.1A5.91,5.91,0,0,1,17.9,12,5.85,5.85,0,0,1,12,17.9,5.91,5.91,0,0,1,6.1,12h0A6,6,0,0,1,12,6.1ZM12,2,10.4,5.3h3.3Zm7.1,2.9L15.6,6.1l2.3,2.3ZM5,4.9,8.5,6.1,6.1,8.4ZM2,12l3.3,1.7V10.4Zm20,0-3.3,1.7V10.4ZM12,22l-1.7-3.3h3.3Zm7.1-2.9-3.5-1.2,2.3-2.3Zm-14.2,0,3.5-1.2L6.1,15.6Z" transform="translate(-2 -2)"/></g></g></svg>