<svg id="Layer_1" data-name="Layer 1" xmlns="http://www.w3.org/2000/svg" viewBox="0 0 20 18"><defs><style>.cls-1{fill:none;stroke:#ea1313;stroke-miterlimit:10;stroke-width:0.05px;}</style></defs><title>thumb_up</title><path class="cls-1" d="M17.75,10.25" transform="translate(-2 -3)"/><path class="cls-1" d="M6.53,10.25" transform="translate(-2 -3)"/><g id="EUXICONS"><g id="thumb_up" data-name="thumb up"><path id="Shape" d="M2,21H5.6V10.22H2Zm20-9.89a1.78,1.78,0,0,0-1.8-1.78H14.5l.9-4.15v-.3a1.26,1.26,0,0,0-.4-1L14,3,8,8.93a1.87,1.87,0,0,0-.5,1.29v9A1.78,1.78,0,0,0,9.3,21h8.2a1.85,1.85,0,0,0,1.7-1.09l2.7-6.33a1.45,1.45,0,0,0,.1-.69V11.11Z" transform="translate(-2 -3)"/></g></g></svg>