<svg id="Layer_1" data-name="Layer 1" xmlns="http://www.w3.org/2000/svg" viewBox="0 0 20.1 18"><defs><style>.cls-1{fill:none;stroke:#ea1313;stroke-miterlimit:10;stroke-width:0.05px;}</style></defs><title>thumb_down</title><path class="cls-1" d="M17.75,10.25" transform="translate(-1.9 -3)"/><path class="cls-1" d="M6.53,10.25" transform="translate(-1.9 -3)"/><g id="EUXICONS"><g id="thumb_down" data-name="thumb down"><path id="Shape" d="M1.9,3H5.5V13.72H1.9Zm20,9.84a1.78,1.78,0,0,1-1.8,1.77H14.4l.9,4.13V19a1.25,1.25,0,0,1-.4,1l-1,1L8,15.1a1.85,1.85,0,0,1-.5-1.28v-9A1.78,1.78,0,0,1,9.3,3h8.2a1.85,1.85,0,0,1,1.7,1.08l2.7,6.3a1.44,1.44,0,0,1,.1.69v1.77Z" transform="translate(-1.9 -3)"/></g></g></svg>