<svg id="Layer_1" data-name="Layer 1" xmlns="http://www.w3.org/2000/svg" viewBox="0 0 16.31 19.17"><defs><style>.cls-1{fill:none;stroke:#ea1313;stroke-miterlimit:10;stroke-width:0.05px;}</style></defs><title>timer</title><path class="cls-1" d="M17.75,10.25" transform="translate(-4.04 -1)"/><path class="cls-1" d="M6.53,10.25" transform="translate(-4.04 -1)"/><polygon points="10.96 0 4.96 0 4.96 2.05 10.96 2.05 10.96 0 10.96 0"/><rect x="6.92" y="6.94" width="2.05" height="5.08"/><path d="M18.56,7,19.8,5.65a15.25,15.25,0,0,0-1.24-1.24L17.31,5.65A8.1,8.1,0,0,0,5.83,6.89,8.17,8.17,0,1,0,18.56,17.13,8.06,8.06,0,0,0,18.56,7ZM12.14,18.47A6.41,6.41,0,1,1,18.56,12,6.41,6.41,0,0,1,12.14,18.47Z" transform="translate(-4.04 -1)"/></svg>