<svg id="Layer_1" data-name="Layer 1" xmlns="http://www.w3.org/2000/svg" viewBox="0 0 17.58 20.25"><defs><style>.cls-1{fill:none;stroke:#ea1313;stroke-miterlimit:10;stroke-width:0.05px;}</style></defs><title>timer_off</title><path class="cls-1" d="M17.75,10.25" transform="translate(-2.73 -1)"/><path class="cls-1" d="M6.53,10.25" transform="translate(-2.73 -1)"/><path d="M18.53,4.45l-1.3,1.3a8.11,8.11,0,0,0-9.6-.4l1.3,1.3a6.33,6.33,0,0,1,8.7,8.6l1.3,1.3a8.11,8.11,0,0,0-.4-9.6l1.3-1.3Z" transform="translate(-2.73 -1)"/><polygon points="12.27 0 6.27 0 6.27 2.05 12.27 2.05 12.27 0 12.27 0"/><polygon points="8.27 8.26 10.3 10 10.3 7 8.27 7 8.27 8.26"/><path d="M13.13,13,3.93,4l-1.2,1.2,2.5,2.5A8.2,8.2,0,0,0,7.53,19a8.34,8.34,0,0,0,9.1,0l2.3,2.3,1.2-1.2Zm-1,5.5a6.38,6.38,0,0,1-6.4-6.4A6.2,6.2,0,0,1,6.63,9l8.7,8.7A6.2,6.2,0,0,1,12.13,18.55Z" transform="translate(-2.73 -1)"/></svg>