<svg id="Layer_3" data-name="Layer 3" xmlns="http://www.w3.org/2000/svg" viewBox="0 0 20 20"><title>toolbox-outlined</title><path d="M12,2A10,10,0,1,0,22,12,10,10,0,0,0,12,2Zm.1,18A8,8,0,1,1,20,12,7.94,7.94,0,0,1,12.1,20Z" transform="translate(-2 -2)"/><path d="M13.09,14H10.8V13.3H6.65v2.47A1.23,1.23,0,0,0,7.85,17h8.29a1.23,1.23,0,0,0,1.2-1.23V13.3H13.09Z" transform="translate(-2 -2)"/><path d="M16.69,8.47h-2.4V7.23L13.09,6h-2.4L9.6,7.23V8.47H7.09A1.11,1.11,0,0,0,6,9.59v1.8a1.23,1.23,0,0,0,1.2,1.23h3.6V11.39h2.4v1.23h3.6A1.23,1.23,0,0,0,18,11.39V9.59A1.53,1.53,0,0,0,16.69,8.47Zm-3.6,0h-2.4V7.23h2.4Z" transform="translate(-2 -2)"/></svg>