<svg id="Layer_3" data-name="Layer 3" xmlns="http://www.w3.org/2000/svg" viewBox="0 0 20 20"><title>tool-rental-outlined</title><polygon points="12.29 4.27 12.29 5.69 13 4.98 13 3.56 12.29 4.27"/><polygon points="10.88 5.69 10.88 7.1 11.59 6.39 11.59 4.98 10.88 5.69"/><path d="M10.76,8.39l-.71-.71L6.51,11.22a2,2,0,0,0,0,2.83l.71.71a2,2,0,0,0,2.83,0L12.88,19,15,16.88l-2.83-4.24,1.41-1.41-.71-.71.71-.71-.71-.71L11.46,7.69Zm0,1.41L7.93,12.64l-.71-.71L10.05,9.1Z" transform="translate(-2 -2)"/><path d="M12,2A10,10,0,1,0,22,12,10,10,0,0,0,12,2Zm.1,18h0A8,8,0,1,1,20,12,7.94,7.94,0,0,1,12.1,20Z" transform="translate(-2 -2)"/></svg>