<?xml version="1.0" encoding="utf-8"?>
<!-- Generator: Adobe Illustrator 20.1.0, SVG Export Plug-In . SVG Version: 6.00 Build 0)  -->
<svg version="1.1" id="Layer_1" xmlns="http://www.w3.org/2000/svg" xmlns:xlink="http://www.w3.org/1999/xlink" x="0px" y="0px"
	 viewBox="0 0 24 24" style="enable-background:new 0 0 24 24;" xml:space="preserve">
<style type="text/css">
	.st0{fill:none;}
</style>
<title>measurement_1</title>
<g id="EUXICONS">
	<g id="measurement_1">
		<polygon id="Combined-Shape" points="16.2,4.5 16.8,4 18.5,6 19.1,5.5 17.4,3.5 18.2,2.8 22,7.1 5.8,21.2 2,16.9 2.8,16.2 
			3.5,17.1 4,16.7 3.2,15.8 3.8,15.3 5.5,17.3 6.1,16.7 4.4,14.8 4.9,14.3 5.7,15.2 6.1,14.8 5.4,13.9 6,13.4 7.7,15.4 8.2,14.9 
			6.6,12.9 7.1,12.4 7.9,13.3 8.3,12.9 7.5,12 8.1,11.6 9.8,13.5 10.4,13 8.7,11 9.3,10.5 10.1,11.4 10.5,11 9.7,10.1 10.3,9.7 
			12,11.6 12.6,11.1 10.9,9.1 11.5,8.6 12.2,9.5 12.7,9.1 11.9,8.3 12.4,7.8 14.1,9.8 14.7,9.2 13,7.3 13.6,6.7 14.4,7.6 14.8,7.3 
			14.1,6.4 14.6,5.9 16.3,7.9 16.9,7.4 15.2,5.4 15.8,4.8 16.6,5.7 17,5.4 		"/>
	</g>
</g>
<rect class="st0" width="24" height="24"/>
</svg>
