<svg id="Layer_1" data-name="Layer 1" xmlns="http://www.w3.org/2000/svg" viewBox="0 0 19.92 18.03"><title>tool-hammer</title><g id="EUXICONS"><g id="hammer"><path id="path3059" d="M14.74,10.62,4.84,21,2,18.32l10.5-9.8Zm5.4,1.7a1,1,0,0,1-1.3,0l-.4-.4a.65.65,0,0,1-.2-.9c.3-.2.2-.7-.3-1.2a1.65,1.65,0,0,0-2-.4,3.29,3.29,0,0,0-.6.6L13,8l.4-.3.3-.3a1,1,0,0,0,0-1.4,7.49,7.49,0,0,0-4.8-1.8v-.8c5.5-1.4,7.6,1,8.4,1.7l1.6,1.6c.4.4,0,1.5.6,2.1a1.22,1.22,0,0,0,.9.3.76.76,0,0,1,1,.1l.3.3a.78.78,0,0,1,0,1.1h0Z" transform="translate(-2.04 -2.98)"/></g></g></svg>