<svg id="Layer_3" data-name="Layer 3" xmlns="http://www.w3.org/2000/svg" viewBox="0 0 20 13.7"><title>lawn-mower</title><polygon points="12.5 3.7 3.9 4.4 3.9 6.1 12.5 6.1 12.5 3.7"/><path d="M14.6,13.8h-7v1.8H2v3.1H2a2.33,2.33,0,0,1,2.5-2,2.33,2.33,0,0,1,2,2h.9v.9h6.5v-.9H15a5,5,0,0,1-.2-1.2,2.9,2.9,0,0,1,.5-1.8C16.8,13.9,22,8.8,22,8.8V6.3Z" transform="translate(-2 -6.3)"/><path d="M18.5,14.8a2.6,2.6,0,1,0,0,5.2,2.52,2.52,0,0,0,2.6-2.6h0a2.58,2.58,0,0,0-2.6-2.6Z" transform="translate(-2 -6.3)"/><circle cx="2" cy="12.7" r="1"/></svg>