<svg id="Layer_3" data-name="Layer 3" xmlns="http://www.w3.org/2000/svg" viewBox="0 0 20 20"><title>tool-rental-full</title><rect x="6.38" y="10.21" width="4.42" height="1.1" transform="translate(-7.09 7.22) rotate(-45)"/><path d="M12,2A10,10,0,1,0,22,12,10,10,0,0,0,12,2Zm.88,17.74L9.76,15.05a2.21,2.21,0,0,1-3.12,0l-.78-.78a2.21,2.21,0,0,1,0-3.12l3.9-3.9.78.78.78-.78,1.56,1.56V7.24l.78-.78V8l-.78.78.78.78-.78.78.78.78L12.1,12.71l3.12,4.68ZM15.22,6.46l-.78.78V5.68l.78-.78Z" transform="translate(-2 -2)"/></svg>