<svg xmlns="http://www.w3.org/2000/svg" viewBox="0 0 24.01 24.01"><defs><style>.cls-1{fill:none;stroke:#000;stroke-miterlimit:10;stroke-width:0.01px;}</style></defs><title>saw_blade</title><g id="Icon_Grid" data-name="Icon Grid"><path d="M18,2a2,2,0,0,1,2,2V20a2,2,0,0,1-2,2H6a2,2,0,0,1-2-2V4A2,2,0,0,1,6,2H18m0,0H6A2,2,0,0,0,4,4V20a2,2,0,0,0,2,2H18a2,2,0,0,0,2-2V4a2,2,0,0,0-2-2Z" transform="translate(0 0)"/><path d="M20,4a2,2,0,0,1,2,2V18a2,2,0,0,1-2,2H4a2,2,0,0,1-2-2V6A2,2,0,0,1,4,4H20m0,0H4A2,2,0,0,0,2,6V18a2,2,0,0,0,2,2H20a2,2,0,0,0,2-2V6a2,2,0,0,0-2-2Z" transform="translate(0 0)"/><path d="M19,3a2,2,0,0,1,2,2V19a2,2,0,0,1-2,2H5a2,2,0,0,1-2-2V5A2,2,0,0,1,5,3H19m0,0H5A2,2,0,0,0,3,5V19a2,2,0,0,0,2,2H19a2,2,0,0,0,2-2V5a2,2,0,0,0-2-2Z" transform="translate(0 0)"/><path d="M12,2A10,10,0,1,1,2,12,10,10,0,0,1,12,2m0,0A10,10,0,1,0,22,12,10,10,0,0,0,12,2Z" transform="translate(0 0)"/><path d="M12,7a5,5,0,1,1-5,5,5,5,0,0,1,5-5m0,0a5,5,0,1,0,5,5,5,5,0,0,0-5-5Z" transform="translate(0 0)"/><line class="cls-1" y1="24" x2="24"/><line class="cls-1" x2="24" y2="24"/></g><g id="Layer_1" data-name="Layer 1"><g id="EUXICONS"><g id="sawcut"><path id="Shape" d="M12,13.67A1.69,1.69,0,0,1,10.26,12,1.75,1.75,0,0,1,12,10.25a1.71,1.71,0,0,1,0,3.42Zm7.56-3.12Zm0,3.42h0a.35.35,0,0,1,.1-.2c.5-.4,2.19-1.71,2.39-3.42,0,0-2.19,1.21-2.49.3a.37.37,0,0,1,.1-.3c.3-.5,1.39-2.41.9-4.12,0,0-1.59,2-2.19,1.21a.37.37,0,0,1-.1-.3c0-.6-.1-2.81-1.39-3.92,0,0-.3,2.61-1.19,2.21-.1,0-.2-.1-.2-.3-.2-.6-1.09-2.61-2.69-3.12,0,0,.6,2.41-.3,2.51-.1,0-.2-.1-.3-.1C11.75,4,10,2.61,8.27,2.81c0,0,1.59,1.81.8,2.31h-.3c-.5-.2-2.59-1-4.18-.1,0,0,2.09,1.11,1.59,1.91.1.2,0,.3-.2.3-.5.1-2.69.4-3.68,1.91,0,0,2.49-.1,2.29.9a.22.22,0,0,1-.2.2C3.89,10.55,2.1,12,2,13.67c0,0,2.19-1.21,2.49-.3v.2c-.2.6-1.39,2.51-.8,4.22,0,0,1.59-2,2.19-1.21a.37.37,0,0,1,.1.3c0,.6.1,2.81,1.39,3.92,0,0,.4-2.51,1.29-2.21.1,0,.1.1.1.2.2.5,1.09,2.61,2.69,3.22,0,0-.6-2.51.4-2.51H12a.1.1,0,0,1,.1.1c.4.4,2.09,1.91,3.88,1.61,0,0-1.69-1.91-.8-2.41a.36.36,0,0,1,.3.1c.7.2,2.59.9,4.08.1,0,0-2.19-1.21-1.59-1.91.1-.1.1-.1.2-.1.6-.1,2.79-.5,3.68-1.91,0-.1-2.59-.1-2.29-1.11Z" transform="translate(0 0)"/></g></g></g></svg>