<svg id="Layer_3" data-name="Layer 3" xmlns="http://www.w3.org/2000/svg" viewBox="0 0 18 16.5"><title>toolbox</title><path d="M13.64,15.45H10.2v-1H4v3.7A1.84,1.84,0,0,0,5.78,20H18.22A1.84,1.84,0,0,0,20,18.15v-3.7H13.64Z" transform="translate(-3 -3.5)"/><path d="M19,7.2h-3.6V5.35L13.64,3.5H10L8.4,5.35V7.2H4.64A1.66,1.66,0,0,0,3,8.89v2.69a1.84,1.84,0,0,0,1.8,1.85h5.4V11.58h3.6v1.85h5.4A1.84,1.84,0,0,0,21,11.58V8.89A2.29,2.29,0,0,0,19,7.2Zm-5.4,0H10V5.35h3.6Z" transform="translate(-3 -3.5)"/></svg>