<svg id="Layer_3" data-name="Layer 3" xmlns="http://www.w3.org/2000/svg" viewBox="0 0 20 20"><title>my-projects-filled</title><rect x="8.69" y="5.23" width="2.4" height="1.23"/><path d="M12,2A10,10,0,1,0,22,12,10,10,0,0,0,12,2Zm5.24,13.77A1.23,1.23,0,0,1,16,17H7.75a1.23,1.23,0,0,1-1.2-1.23V13.3h4.15V14H13V13.3h4.25ZM18,11.39a1.23,1.23,0,0,1-1.2,1.23H13.2V11.39H10.8v1.23H7.2A1.23,1.23,0,0,1,6,11.39V9.59A1.11,1.11,0,0,1,7.09,8.47H9.6V7.23L10.69,6h2.4l1.2,1.23V8.47h2.4A1.53,1.53,0,0,1,18,9.59Z" transform="translate(-2 -2)"/></svg>