<svg id="Layer_1" data-name="Layer 1" xmlns="http://www.w3.org/2000/svg" viewBox="0 0 20 20"><title>nav_top_30</title><path d="M10.26,10.65a1.59,1.59,0,0,0,1-1.44,2.26,2.26,0,0,0-2.45-2h0a2.37,2.37,0,0,0-2.6,2s0,.05,0,.08H8.28c0-.06,0-.54.43-.54s.44.37.44.6c0,.55-.31.71-.88.71H8v1.47h.3a.83.83,0,0,1,.95.64.65.65,0,0,1,0,.13.56.56,0,0,1-.59.63.51.51,0,0,1-.52-.54V12.3H6a2.22,2.22,0,0,0,2.28,2.18h.32a2.43,2.43,0,0,0,2.73-2s0-.08,0-.12A1.72,1.72,0,0,0,10.26,10.65Z" transform="translate(-2 -2)"/><path d="M15.17,7.21c-2.22,0-2.83,2.06-2.83,3.6s.6,3.6,2.83,3.6S18,12.36,18,10.81,17.39,7.21,15.17,7.21Zm0,5.6c-.66,0-.7-1.21-.7-2s.08-2,.7-2,.7,1.21.7,2,0,2-.7,2Z" transform="translate(-2 -2)"/><path d="M12,2A10,10,0,1,0,22,12,10,10,0,0,0,12,2Zm4.4,16.67L12,14.58,7.6,18.67a8,8,0,1,1,8.81,0Z" transform="translate(-2 -2)"/></svg>