<svg id="Layer_1" data-name="Layer 1" xmlns="http://www.w3.org/2000/svg" viewBox="0 0 20 18.35"><title>nav_top_30_rev</title><path d="M12,2A10,10,0,0,0,6.51,20.35L12,14.86l5.49,5.49A10,10,0,0,0,12,2Zm-.66,10.52a2.43,2.43,0,0,1-2.73,2H8.29A2.22,2.22,0,0,1,6,12.3H8.12v.12a.51.51,0,0,0,.52.54.56.56,0,0,0,.59-.63.65.65,0,0,0,0-.13.83.83,0,0,0-.95-.64H8V10.09h.3c.57,0,.88-.17.88-.71,0-.23,0-.6-.44-.6s-.43.47-.43.54H6.16s0-.05,0-.08a2.37,2.37,0,0,1,2.6-2h0a2.26,2.26,0,0,1,2.45,2,1.59,1.59,0,0,1-1,1.44,1.72,1.72,0,0,1,1.09,1.75S11.34,12.47,11.34,12.52Zm3.84,1.9c-2.22,0-2.83-2.06-2.83-3.6s.6-3.6,2.83-3.6S18,9.27,18,10.81,17.4,14.42,15.17,14.42Z" transform="translate(-2 -2)"/><path d="M15.17,8.8c-.61,0-.7,1.23-.7,2s0,2,.7,2h0c.66,0,.7-1.22.7-2S15.79,8.8,15.17,8.8Z" transform="translate(-2 -2)"/></svg>