<svg id="Layer_1" data-name="Layer 1" xmlns="http://www.w3.org/2000/svg" viewBox="0 0 15 21"><defs><style>.cls-1{fill:none;stroke:#ea1313;stroke-miterlimit:10;stroke-width:0.05px;}</style></defs><title>touch_app</title><path class="cls-1" d="M17.75,10.25" transform="translate(-4.5 -3)"/><path class="cls-1" d="M6.53,10.25" transform="translate(-4.5 -3)"/><path d="M8.75,11.24V7.5a2.5,2.5,0,0,1,5,0v3.74a4.5,4.5,0,1,0-5,0Zm9.84,4.63L14,13.61a1.41,1.41,0,0,0-.54-.11h-.76v-6a1.5,1.5,0,0,0-3,0V18.24l-3.43-.72a1.75,1.75,0,0,0-.24,0,1.12,1.12,0,0,0-.79.33l-.79.8,4.94,4.94A1.51,1.51,0,0,0,10.5,24h6.79a1.46,1.46,0,0,0,1.44-1.28l.75-5.27a1.44,1.44,0,0,0-.89-1.58Z" transform="translate(-4.5 -3)"/></svg>