<svg id="Layer_1" data-name="Layer 1" xmlns="http://www.w3.org/2000/svg" viewBox="0 0 14 20"><title>touch_pad</title><ellipse cx="3.12" cy="1.53" rx="1.56" ry="1.53"/><ellipse cx="7.78" cy="1.53" rx="1.56" ry="1.53"/><ellipse cx="12.44" cy="1.53" rx="1.56" ry="1.53"/><ellipse cx="12.44" cy="6.15" rx="1.56" ry="1.53"/><ellipse cx="3.12" cy="6.15" rx="1.56" ry="1.53"/><path d="M16.54,14.31a3.32,3.32,0,0,0-1.2,1V8.15a1.55,1.55,0,0,0-1.56-1.53h0a1.55,1.55,0,0,0-1.56,1.53v3.29A1.74,1.74,0,0,0,10,11.32c-1.46.76-.9.45-2.46,1.35C6.79,13.15,6,13.3,6,14.4v3A4.64,4.64,0,0,0,10.67,22c3.69,0,8.06-5.32,9-6.59S18.6,13.18,16.54,14.31Z" transform="translate(-6 -2)"/></svg>