<svg id="Layer_3" data-name="Layer 3" xmlns="http://www.w3.org/2000/svg" viewBox="0 0 20 20"><title>truck-circle-outlined</title><path d="M12,2A10,10,0,1,0,22,12,10,10,0,0,0,12,2Zm.1,18h0A8,8,0,1,1,20,12,7.94,7.94,0,0,1,12.1,20Z" transform="translate(-2 -2)"/><path d="M16.53,11l-.36-2.92H13.11v6.72h.8a1.73,1.73,0,1,1,3.46,0H18V11.3Z" transform="translate(-2 -2)"/><circle cx="13.64" cy="12.78" r="1.13"/><path d="M7,8.06v6.72h.61a1.73,1.73,0,1,1,3.46,0H12.5V8.06Z" transform="translate(-2 -2)"/><circle cx="7.34" cy="12.78" r="1.22"/></svg>