<svg id="Layer_1" data-name="Layer 1" xmlns="http://www.w3.org/2000/svg" viewBox="0 0 20 20"><title>value_wheel</title><path d="M12,2A10,10,0,1,0,22,12,10,10,0,0,0,12,2Zm8,9.5H15.3V9.41L18,6.71A8,8,0,0,1,20,11.5ZM17.29,6l-2.7,2.7H12.5V4A8,8,0,0,1,17.29,6ZM11.5,4V8.7H9.41L6.71,6A8,8,0,0,1,11.5,4ZM6,6.71l2.7,2.7V11.5H4A8,8,0,0,1,6,6.71ZM4,12.5H8.7v2.09L6,17.29A8,8,0,0,1,4,12.5ZM6.71,18l2.7-2.7H11.5V20A8,8,0,0,1,6.71,18Zm5.79,2V15.3h2.09l2.7,2.7A8,8,0,0,1,12.5,20ZM18,17.29l-2.7-2.7V12.5H20A8,8,0,0,1,18,17.29Z" transform="translate(-2 -2)"/></svg>