<svg id="Layer_1" data-name="Layer 1" xmlns="http://www.w3.org/2000/svg" viewBox="0 0 20 17.2"><title>visibility_off</title><path d="M11.9,9.8H12a2.69,2.69,0,0,1,2.7,2.7v.2ZM8,10.6a4.53,4.53,0,0,0,6.1,6.1l-1.4-1.4a1.27,1.27,0,0,1-.6.1,2.69,2.69,0,0,1-2.7-2.7,1.27,1.27,0,0,1,.1-.6ZM2.9,5.5,4.1,4.4,20.2,20.5l-1.1,1.1c-1-1-2.1-2-3.1-3a11,11,0,0,1-4,.8A10.75,10.75,0,0,1,2,12.6,11.09,11.09,0,0,1,5.4,8ZM12,8a5.08,5.08,0,0,0-1.7.3l-1.9-2A11.33,11.33,0,0,1,12,5.7a10.75,10.75,0,0,1,10,6.8,10.37,10.37,0,0,1-3.1,4.3l-2.6-2.6a4.67,4.67,0,0,0,.3-1.7A4.57,4.57,0,0,0,12,8Z" transform="translate(-2 -4.4)"/></svg>